<?xml version="1.0" encoding="UTF-8"?>
<svg width="83px" height="83px" viewBox="0 0 83 83" version="1.1" xmlns="http://www.w3.org/2000/svg" xmlns:xlink="http://www.w3.org/1999/xlink">
    <title>02_UI Design Comps/Chips/EMT/card-assest-chip-border-emt</title>
    <g id="UI-Comps---Desktop" stroke="none" stroke-width="1" fill="none" fill-rule="evenodd">
        <g id="02_UI-Design-Comps/Chips/EMT/card-assest-chip-emt" transform="translate(4.000000, 4.000000)" fill-rule="nonzero">
            <g transform="translate(-3.595530, -4.000000)" id="Group">
                <g transform="translate(-0.000000, -0.000000)">
                    <g id="02_UI-Design-Comps/Chips/EMT/card-assest-chip-border-emt" transform="translate(-0.000000, -0.000000)">
                        <path d="M45.3827146,78.7576107 C43.9758102,78.9177323 42.5452773,79 41.0955299,79 C39.624417,79 38.1730893,78.9152896 36.7455614,78.7492916 C36.7385487,78.8579276 36.7358863,78.9677156 36.7377442,79.0784798 C36.7747943,81.2873081 38.5954384,83.0478822 40.8042667,83.0108321 L41.804126,82.9940608 C44.0129543,82.9570108 45.7735284,81.1363666 45.7364784,78.9275383 C45.7352815,78.8561872 45.7322236,78.7853037 45.7273516,78.7149335 L45.3827146,78.7576107 Z M32.7887542,78.076781 C29.8214165,77.4057362 26.9875194,76.3828576 24.3325571,75.0525586 C24.2878692,75.15453 24.2470488,75.2591853 24.210331,75.3664092 C23.4946343,77.4564028 24.608722,79.7308643 26.6987156,80.446561 L27.6447826,80.7705319 C29.7347762,81.4862287 32.0092377,80.372141 32.7249344,78.2821474 L32.7887542,78.076781 Z M57.8106248,75.0778909 C55.2239954,76.3680104 52.467346,77.368043 49.5813184,78.0356763 C49.6118862,78.1424568 49.6471221,78.2488392 49.6871331,78.3545863 C50.4689062,80.4207726 52.7776334,81.4619953 54.8438198,80.6802223 L55.7791101,80.3263409 C57.8452964,79.5445679 58.8865191,77.2358406 58.1047461,75.1696543 L58.0230104,74.9698065 L57.8106248,75.0778909 Z M20.8459517,73.0681573 C18.3138345,71.4405494 15.9902979,69.5166127 13.9248737,67.3433508 C13.8490069,67.4231906 13.7758049,67.506788 13.7055198,67.5941155 C12.3204047,69.3150894 12.592672,71.8330721 14.3136459,73.2181872 L15.0926707,73.8451804 C16.8136446,75.2302956 19.3316272,74.9580282 20.7167424,73.2370543 L20.8459517,73.0681573 Z M68.4577523,67.1430883 C66.4078146,69.3295749 64.0988117,71.2702427 61.5778377,72.9163074 C61.6425821,73.0052029 61.7114909,73.0921613 61.7845826,73.1769308 C63.2271822,74.8500122 65.7529407,75.0368546 67.4260222,73.594255 L68.1833676,72.9412406 C69.8564491,71.498641 70.0432915,68.9728824 68.6006919,67.299801 L68.4577523,67.1430883 Z M11.2817156,64.2493663 C9.46918124,61.8775892 7.93324908,59.2831584 6.72172088,56.5118666 C6.62278775,56.5613142 6.52509201,56.6152396 6.42888322,56.6737037 C4.54098815,57.8209383 3.94056426,60.2813971 5.08779892,62.1692922 L5.60711194,63.0238763 C6.75434659,64.9117713 9.21480537,65.5121952 11.1027004,64.3649606 L11.2817156,64.2493663 Z M75.4168228,56.6329105 C74.242671,59.2919911 72.7685633,61.7889291 71.0361948,64.0817754 C71.1274352,64.143669 71.2219549,64.2023137 71.3196856,64.2574643 C73.2436255,65.3431671 75.6834229,64.6636417 76.7691257,62.7397018 L77.2605854,61.8688015 C78.3462881,59.9448616 77.6667627,57.5050642 75.7428228,56.4193614 L75.553106,56.3188018 L75.4168228,56.6329105 Z M5.33126065,52.8102265 C4.44250735,49.9972495 3.87645301,47.0409195 3.67542054,43.9837064 C3.56615468,43.9964893 3.45653247,44.0138543 3.34676437,44.0359414 C1.18103313,44.4717203 -0.221370296,46.580661 0.214408653,48.7463923 L0.41167055,49.7267431 C0.847449499,51.8924743 2.9563902,53.2948778 5.12212144,52.8590988 L5.33126065,52.8102265 Z M78.5157647,43.9656353 C78.3236311,46.9258005 77.788028,49.792344 76.9462719,52.5271608 C77.0542088,52.5543708 77.1641526,52.5773246 77.2759508,52.595809 C79.4555,52.9561706 81.5145045,51.4814277 81.8748661,49.3018785 L82.0379892,48.3152728 C82.3983508,46.1357236 80.9236079,44.0767191 78.7440587,43.7163575 C78.673318,43.7046614 78.6027044,43.6948985 78.5322717,43.68703 L78.5157647,43.9656353 Z M0.189763795,34.3951098 L0.0435322283,35.3843602 C-0.279513628,37.5697518 1.2302159,39.6032421 3.41560751,39.926288 L3.62693038,39.9512567 C3.7513893,36.8875239 4.24342469,33.9185187 5.06180646,31.085875 C4.95364183,31.0605863 4.84355182,31.0395697 4.73169161,31.0230345 C2.5463,30.6999886 0.512809652,32.2097182 0.189763795,34.3951098 Z M77.2571265,30.7563263 L77.0472616,30.801362 C77.8869927,33.6274363 78.4025831,36.5929979 78.5509519,39.6552667 C78.6605866,39.6443564 78.7706577,39.6288569 78.8809564,39.6086241 C81.0538405,39.210039 82.4921939,37.1254514 82.0936088,34.9525674 L81.9131833,33.9689787 C81.5145981,31.7960947 79.4300105,30.3577412 77.2571265,30.7563263 Z M5.06355012,20.8728935 L4.58707745,21.7520828 C3.53448309,23.6943341 4.25569257,26.1221363 6.1979439,27.1747306 L6.38876766,27.2721914 C7.5370667,24.4740392 9.01391329,21.8454589 10.77293,19.4330144 C10.6805581,19.3726261 10.5849565,19.3155488 10.4861979,19.2620271 C8.54394661,18.2094327 6.11614448,18.9306422 5.06355012,20.8728935 Z M71.4767634,19.1526129 L71.2961497,19.2645879 C73.0667873,21.6668333 74.5581745,24.2870343 75.7214542,27.080154 C75.8215074,27.0323035 75.9203945,26.9799296 76.0178648,26.9229666 C77.925175,25.8083083 78.5677463,23.3585189 77.4530881,21.4512087 L76.9485212,20.5878361 C75.833863,18.6805259 73.3840735,18.0379546 71.4767634,19.1526129 Z M14.2217675,9.85970106 L13.4756101,10.5254707 C11.8272448,11.9962483 11.6832815,14.5248132 13.1540591,16.1731786 L13.3000196,16.3269805 C15.3132043,14.105421 17.5890231,12.1262779 20.081003,10.4388481 C20.0146457,10.3508833 19.9441414,10.2649335 19.8694755,10.1812521 C18.3986978,8.53288675 15.8701329,8.38892344 14.2217675,9.85970106 Z M61.8813387,10.2830281 C64.3839603,11.9527216 66.6744598,13.9153531 68.7044099,16.1232887 C68.7812884,16.0450365 68.8555862,15.9630128 68.927054,15.8772405 C70.3412029,14.1800434 70.111747,11.6577991 68.4145499,10.2436502 L67.6462881,9.60351441 C65.949091,8.18936549 63.4268468,8.41882137 62.0126978,10.1160185 L61.8813387,10.2830281 Z M26.6762682,2.56175453 L25.7472368,2.93175541 C23.6948773,3.74913877 22.6937313,6.07552502 23.5111147,8.12788453 C23.5379142,8.19517501 23.5663358,8.26133545 23.5957167,8.3251342 C26.2221201,6.9368298 29.0332592,5.85128166 31.9837949,5.11518566 C31.9513653,5.00885673 31.9142672,4.90300718 31.8723974,4.79787665 C31.055014,2.74551714 28.7286277,1.74437117 26.6762682,2.56175453 Z M50.0913983,4.86519792 C50.8428609,2.78779594 53.1361088,1.71290973 55.2135108,2.46437238 L55.2135108,2.46437238 L56.153878,2.80453325 C58.23128,3.5559959 59.3061662,5.84924379 58.5547036,7.92664577 C58.5161962,8.03309867 58.4736402,8.13691908 58.4272723,8.23799615 C55.7933686,6.86173839 52.976966,5.79060295 50.0234177,5.06928203 L50.0234177,5.06928203 Z M40.3145852,0.000574202969 L41.4255545,0.017345476 C43.8798402,0.0543955492 45.8360591,1.87503969 45.7948919,4.08386798 C45.793562,4.15521914 45.7901643,4.22610257 45.7847509,4.29647278 L45.4018159,4.25379564 C43.8385683,4.093674 42.2490667,4.01140632 40.6382152,4.01140632 C39.0036239,4.01140632 37.3910165,4.09611668 35.8048538,4.26211472 C35.7970618,4.15347877 35.7941035,4.04369071 35.7961679,3.93292652 C35.8373352,1.72409823 37.8602995,-0.0364758703 40.3145852,0.000574202969 Z" id="02_UI-Design-Comps/Chips/EMT/card-assest-chip-border-emt-Copy-2" fill-opacity="0.6" fill="#FFFFFF"></path>
                        <path d="M42.0955299,1.5 C43.4762417,1.5 44.5955299,2.61928813 44.5955299,4 C44.5955299,5.38071187 43.4762417,6.5 42.0955299,6.5 L41.0955299,6.5 C39.714818,6.5 38.5955299,5.38071187 38.5955299,4 C38.5955299,2.61928813 39.714818,1.5 41.0955299,1.5 L42.0955299,1.5 Z M55.6436367,4.21508414 C56.942013,4.6847483 57.6138169,6.11802823 57.1441527,7.41640447 C56.6744885,8.71478071 55.2412086,9.38658459 53.9428324,8.91692043 L53.0024651,8.57675956 C51.7040889,8.1070954 51.032285,6.67381547 51.5019491,5.37543923 C51.9716133,4.07706299 53.4048932,3.40525911 54.7032695,3.87492327 L55.6436367,4.21508414 Z M67.4543463,11.3960429 C68.5150944,12.279886 68.6585044,13.8562886 67.7746613,14.9170368 C66.8908182,15.977785 65.3144155,16.1211949 64.2536673,15.2373518 L63.4854056,14.5972161 C62.4246574,13.713373 62.2812475,12.1369703 63.1650905,11.0762221 C64.0489336,10.015474 65.6253363,9.87206403 66.6860845,10.7559071 L67.4543463,11.3960429 Z M76.1580291,22.208059 C76.8546905,23.4001278 76.4530835,24.9312462 75.2610146,25.6279077 C74.0689457,26.3245691 72.5378273,25.922962 71.8411659,24.7308931 L71.3365991,23.8675205 C70.6399377,22.6754517 71.0415447,21.1443332 72.2336136,20.4476718 C73.4256825,19.7510104 74.9568009,20.1526175 75.6534623,21.3446863 L76.1580291,22.208059 Z M80.6182258,35.2232057 C80.8673415,36.5812582 79.9683706,37.8841255 78.6103181,38.1332412 C77.2522656,38.3823569 75.9493983,37.483386 75.7002826,36.1253334 L75.5198571,35.1417448 C75.2707414,33.7836923 76.1697123,32.480825 77.5277648,32.2317093 C78.8858173,31.9825936 80.1886846,32.8815645 80.4378003,34.239617 L80.6182258,35.2232057 Z M80.3949575,49.0571939 C80.1697315,50.4194121 78.8828537,51.3411264 77.5206354,51.1159005 C76.1584172,50.8906745 75.2367029,49.6037966 75.4619289,48.2415784 L75.625052,47.2549727 C75.850278,45.8927544 77.1371558,44.9710401 78.499374,45.1962661 C79.8615923,45.4214921 80.7833066,46.7083699 80.5580806,48.0705882 L80.3949575,49.0571939 Z M75.4627752,62.0025123 C74.7842109,63.2049747 73.2593376,63.6296781 72.0568751,62.9511138 C70.8544127,62.2725496 70.4297093,60.7476762 71.1082736,59.5452138 L71.5997333,58.6743135 C72.2782975,57.4718511 73.8031709,57.0471477 75.0056333,57.7257119 C76.2080957,58.4042761 76.6327991,59.9291495 75.9542349,61.1316119 L75.4627752,62.0025123 Z M66.4465005,72.4582368 C65.4008246,73.3598616 63.8222256,73.243085 62.9206008,72.1974091 C62.018976,71.1517332 62.1357526,69.5731342 63.1814284,68.6715094 L63.9387739,68.018495 C64.9844498,67.1168702 66.5630489,67.2336467 67.4646737,68.2793226 C68.3662984,69.3249985 68.2495219,70.9035976 67.203846,71.8052224 L66.4465005,72.4582368 Z M54.3129978,79.2772868 C53.0216313,79.7658949 51.5786768,79.1151308 51.0900686,77.8237643 C50.6014604,76.5323978 51.2522246,75.0894433 52.5435911,74.6008351 L53.4788814,74.2469538 C54.7702479,73.7583456 56.2132024,74.4091098 56.7018106,75.7004763 C57.1904187,76.9918427 56.5396546,78.4347973 55.2482881,78.9234054 L54.3129978,79.2772868 Z M40.7791098,81.5110431 C39.3985921,81.5341994 38.2606895,80.4338406 38.2375332,79.0533229 C38.2143769,77.6728052 39.3147357,76.5349026 40.6952534,76.5117463 L41.6951128,76.4949751 C43.0756304,76.4718188 44.213533,77.5721776 44.2366893,78.9526953 C44.2598456,80.3332129 43.1594868,81.4711155 41.7789691,81.4942718 L40.7791098,81.5110431 Z M27.1846719,79.0274605 C25.8784259,78.58015 25.1821211,77.1586116 25.6294316,75.8523656 C26.0767421,74.5461196 27.4982805,73.8498148 28.8045265,74.2971252 L29.7505935,74.6210961 C31.0568395,75.0684066 31.7531443,76.489945 31.3058339,77.796191 C30.8585234,79.102437 29.436985,79.7987418 28.130739,79.3514314 L27.1846719,79.0274605 Z M15.2541357,72.0496502 C14.178527,71.1839532 14.00836,69.610214 14.8740569,68.5346053 C15.7397539,67.4589966 17.313493,67.2888296 18.3891017,68.1545265 L19.1681265,68.7815197 C20.2437352,69.6472167 20.4139022,71.2209559 19.5482053,72.2965645 C18.6825083,73.3721732 17.1087692,73.5423403 16.0331605,72.6766434 L15.2541357,72.0496502 Z M6.36967507,61.3903226 C5.65265341,60.2103882 6.02791834,58.6726015 7.20785275,57.9555798 C8.38778717,57.2385582 9.9255739,57.6138231 10.6425956,58.7937575 L11.1619086,59.6483416 C11.8789302,60.828276 11.5036653,62.3660628 10.3237309,63.0830844 C9.14379648,63.8001061 7.60600975,63.4248411 6.88898809,62.2449067 L6.36967507,61.3903226 Z M1.68493489,48.4504994 C1.41257305,47.0969174 2.28907519,45.7788294 3.64265722,45.5064676 C4.99623925,45.2341058 6.31432719,46.1106079 6.58668903,47.4641899 L6.78395093,48.4445408 C7.05631277,49.7981228 6.17981063,51.1162107 4.8262286,51.3885726 C3.47264657,51.6609344 2.15455863,50.7844323 1.88219679,49.4308502 L1.68493489,48.4504994 Z M1.67363938,34.6144571 C1.87554304,33.2485874 3.1464745,32.3050064 4.51234426,32.5069101 C5.87821402,32.7088137 6.82179497,33.9797452 6.61989131,35.345615 L6.47365975,36.3348653 C6.27175609,37.7007351 5.00082462,38.6443161 3.63495486,38.4424124 C2.2690851,38.2405087 1.32550415,36.9695773 1.52740781,35.6037075 L1.67363938,34.6144571 Z M6.38233405,21.5876025 C7.04020552,20.3736955 8.55758185,19.9229395 9.77148893,20.580811 C10.985396,21.2386825 11.4361519,22.7560588 10.7782805,23.9699659 L10.3018078,24.8491552 C9.64393631,26.0630623 8.12655999,26.5138182 6.9126529,25.8559467 C5.69874582,25.1980752 5.2479899,23.6806989 5.90586138,22.4667918 L6.38233405,21.5876025 Z M15.2204219,10.9789371 C16.2506503,10.0597011 17.8310034,10.1496782 18.7502394,11.1799065 C19.6694754,12.2101349 19.5794983,13.790488 18.54927,14.709724 L17.8031126,15.3754936 C16.7728843,16.2947296 15.1925312,16.2047525 14.2732952,15.1745242 C13.3540592,14.1442958 13.4440362,12.5639427 14.4742646,11.6447067 L15.2204219,10.9789371 Z M27.2312695,3.95530164 C28.5139942,3.44443704 29.9679856,4.07015327 30.4788502,5.35287796 C30.9897148,6.63560266 30.3639986,8.08959406 29.0812739,8.60045867 L28.1522425,8.97045954 C26.8695178,9.48132414 25.4155264,8.85560791 24.9046618,7.57288322 C24.3937972,6.29015852 25.0195134,4.83616712 26.3022381,4.32530252 L27.2312695,3.95530164 Z M40.7327211,1.48930394 C42.1126587,1.443072 43.2687976,2.5242541 43.3150295,3.90419174 C43.3612615,5.28412938 42.2800794,6.44026825 40.9001417,6.48650019 L39.9007025,6.51998432 C38.5207649,6.56621625 37.364626,5.48503416 37.318394,4.10509652 C37.2721621,2.72515888 38.3533442,1.56902001 39.7332818,1.52278807 L40.7327211,1.48930394 Z" id="02_UI-Design-Comps/Chips/EMT/card-assest-chip-border-emt-Copy-2" fill="#D5D6D8"></path>
                        <path d="M27.0692139,76.2887637 C27.992184,76.6612475 28.9333728,76.9980666 29.8910727,77.2975135 L29.8867333,77.3102347 C30.0656575,76.7877363 29.7871356,76.2191209 29.2646372,76.0401967 L28.3185701,75.7162258 C27.833393,75.5500819 27.3084518,75.7783686 27.0926789,76.2301701 L27.0692139,76.2887637 Z M54.0097034,75.6498893 L53.0744131,76.0037706 C52.5751512,76.192674 52.3152684,76.7381958 52.4770499,77.2416653 C53.4329826,76.9375257 54.3722893,76.5960976 55.2932607,76.2190901 L55.2988751,76.2312983 C55.1034318,75.7147517 54.52625,75.454446 54.0097034,75.6498893 Z M16.0780986,69.4357202 C16.8216776,70.1020726 17.5920149,70.7391715 18.3873007,71.3452069 L18.3796682,71.3560747 C18.725947,70.9258313 18.6578801,70.2963356 18.2276367,69.9500568 L17.4486119,69.3230636 C17.0514641,69.0034217 16.4845393,69.0368316 16.1273124,69.3822611 L16.0780986,69.4357202 Z M64.9182955,69.1545132 L64.1609501,69.8075276 C63.7565148,70.1562483 63.6994657,70.7581413 64.0249696,71.1753381 C64.815437,70.5636672 65.580798,69.9211139 66.3192439,69.2494869 L66.3286554,69.2588443 C65.9680055,68.8405739 65.3365659,68.7938633 64.9182955,69.1545132 Z M8.03382147,59.212228 C8.50746928,60.0944897 9.01540009,60.9556028 9.55583212,61.7937855 L9.54476136,61.8012083 C10.0167351,61.5143996 10.1668411,60.8992849 9.88003244,60.4273111 L9.36071941,59.572727 C9.09439708,59.1344657 8.54499455,58.9737332 8.08997865,59.1826425 L8.03382147,59.212228 Z M72.9060837,59.411503 L72.4146241,60.2824033 C72.1522986,60.747262 72.3021843,61.3325822 72.7491545,61.6159947 C73.2846572,60.7751079 73.7875735,59.9114448 74.256125,59.0267838 L74.2684438,59.0320624 C73.7874588,58.7606367 73.1775094,58.9305181 72.9060837,59.411503 Z M3.99150344,46.9692716 C4.13695047,47.9646216 4.32149833,48.9472784 4.54353771,49.9156325 L4.53033575,49.9180463 C5.07176857,49.8091016 5.42236942,49.2818664 5.31342468,48.7404336 L5.11616279,47.7600828 C5.01499982,47.2573237 4.55316805,46.9191086 4.05420681,46.9605845 L3.99150344,46.9692716 Z M78.2413884,46.6748348 L78.2546894,46.6761747 C77.7098021,46.5860843 77.195051,46.95477 77.1049606,47.4996573 L76.9418375,48.486263 C76.8547388,49.0130557 77.1964521,49.5116805 77.7132178,49.6237467 C77.9273222,48.6543316 78.1039126,47.6708274 78.2413884,46.6748348 Z M4.29859273,34.2357943 C4.12256829,35.1325641 3.97850923,36.0407938 3.86765105,36.9592479 L3.85430221,36.9585368 C4.40065011,37.0392983 4.9090227,36.6618659 4.98978417,36.115518 L5.13601573,35.1262676 C5.21409527,34.5980628 4.86390709,34.1053531 4.34685689,34.0002318 L4.29859273,34.2357943 Z M78.2866155,36.6642414 C78.1582188,35.6669434 77.9906445,34.6819155 77.7854859,33.710751 L77.7984031,33.7070923 C77.2551821,33.8067386 76.8955938,34.3278855 76.99524,34.8711065 L77.1756656,35.8546951 C77.2681943,36.3591146 77.7241597,36.7051978 78.2237587,36.6722823 L78.2866155,36.6642414 Z M8.91230418,22.2407972 C8.46203979,22.9915983 8.03730392,23.7594602 7.63929654,24.543183 L7.62736191,24.5371628 C8.11292474,24.8003114 8.71987527,24.620009 8.98302386,24.1344462 L9.45949653,23.2552569 C9.71391148,22.7858094 9.55382241,22.202898 9.10411221,21.926915 L8.91230418,22.2407972 Z M74.4562015,24.3563125 C73.9978026,23.4660906 73.5048175,22.59659 72.9790219,21.7495864 L72.9904639,21.7427308 C72.5136363,22.0213954 72.3529935,22.6338427 72.631658,23.1106703 L73.1362249,23.9740429 C73.3949848,24.4168113 73.9415473,24.5869511 74.4000823,24.3858833 L74.4562015,24.3563125 Z M17.5770248,12.2899435 C16.8276386,12.8940768 16.1019797,13.5264584 15.4016657,14.1854705 L15.3925312,14.1758698 C15.7602256,14.5879611 16.3923669,14.6239519 16.8044582,14.2562575 L17.5506156,13.5904879 C17.9492587,13.2347929 17.9959481,12.6316293 17.6657126,12.2195918 L17.5770248,12.2899435 Z M66.5859042,13.9953927 C65.8537904,13.3165739 65.0945278,12.6666261 64.3099265,12.0473596 L64.3174832,12.0364258 C63.963946,12.4607251 64.02131,13.0912861 64.4456092,13.4448234 L65.213871,14.0849592 C65.6055319,14.4113012 66.1729425,14.3875263 66.5359855,14.0482147 L66.5859042,13.9953927 Z M28.6857683,6.10205706 C27.8786287,6.38500789 27.0841023,6.69478441 26.3032584,7.03031731 L26.2982089,7.0178819 C26.5025548,7.53097178 27.0841513,7.78125827 27.5972412,7.57691243 L28.5262726,7.20691156 C29.0221935,7.00940354 29.2726045,6.45946955 29.1042966,5.95959979 L28.6857683,6.10205706 Z M40.3858276,77.9005716 L41.1514323,77.9340558 L41.198631,77.9403971 L41.2502456,77.9281248 L41.294571,77.9230946 L41.3395813,77.9213971 L42.1056157,77.9213971 L42.1949514,77.9281248 C42.5466239,77.9814465 42.8256501,78.3456941 42.8664963,78.804776 L42.8664963,78.804776 L42.8696619,78.8691121 L42.381335,78.8971539 L41.8039128,78.9158832 L40.6490668,78.9158832 L40.5687429,78.9142439 L40.5283687,78.9070127 L40.0839194,78.8862152 L39.5955299,78.853419 L39.6027149,78.7501963 C39.6596969,78.2550707 39.993198,77.8833998 40.3858276,77.9005716 L40.3858276,77.9005716 Z M52.9085044,5.89850879 C53.8609525,6.21437988 54.7964608,6.56740406 55.7133119,6.95586371 L55.7133119,6.95586371 L55.6876053,7.01354134 C55.4641098,7.46157292 54.9353277,7.68081623 54.4530737,7.50636954 L54.4530737,7.50636954 L53.5127064,7.16620867 C52.9933559,6.97834301 52.7246344,6.40503104 52.9125,5.88568054 Z M41.7016796,4.00551392 L42.4554607,4.02424319 L43.0929346,4.05228503 L43.0888021,4.11662113 C43.0354805,4.57570299 42.6712329,4.93995063 42.212151,4.99327227 L42.0955299,5 L41.0955299,5 L41.0367723,4.99830244 L40.9789087,4.99327227 L40.9115299,4.981 L40.8499155,4.98734131 L39.8504763,5.02082544 C39.337928,5.0379973 38.9025675,4.66632637 38.8281818,4.17120078 L38.8188023,4.06797811 L39.456358,4.0351819 L40.0365529,4.0143844 L40.0892585,4.00715319 L40.1941153,4.00551392 L41.7016796,4.00551392 Z" id="02_UI-Design-Comps/Chips/EMT/card-assest-chip-border-emt-Copy-2" fill="#FFFFFF"></path>
                    </g>
                </g>
            </g>
        </g>
    </g>
</svg>