<?xml version="1.0" encoding="UTF-8"?>
<svg width="211px" height="70px" viewBox="0 0 211 70" version="1.1" xmlns="http://www.w3.org/2000/svg" xmlns:xlink="http://www.w3.org/1999/xlink">
    <title>Brand/Logo - Current</title>
    <g id="UI-Comps---Desktop" stroke="none" stroke-width="1" fill="none" fill-rule="evenodd">
        <g id="1440w---EMT---Homepage" transform="translate(-142.000000, -21.000000)">
            <g id="Brand/Logo---Current" transform="translate(142.000000, 21.122167)">
                <path d="M28.994658,5.30100324 C28.994658,7.44505996 27.7031082,9.37799952 25.7222543,10.1984951 C23.7414004,11.0189907 21.4613385,10.5654597 19.9452581,9.04938292 C18.4291777,7.53330618 17.9756449,5.25324911 18.7961413,3.27239891 C19.6166378,1.29154872 21.5495808,0 23.6936418,0 C26.6213114,0 28.994658,2.37333965 28.994658,5.30100324 Z M23.6936418,41.937231 C20.7659734,41.937231 18.3926299,44.3105718 18.3926299,47.2382343 C18.3926299,50.1658967 20.7659734,52.5392375 23.6936418,52.5392375 C26.6213102,52.5392375 28.994658,50.1659009 28.994658,47.2382385 C28.994658,45.8323239 28.4361612,44.4839916 27.4420276,43.4898597 C26.4478941,42.4957277 25.0995593,41.937231 23.6936418,41.937231 Z M0.943439277,13.1348094 C-0.520390988,15.6702419 0.348317996,18.9122826 2.8837553,20.3761106 C5.41919261,21.8399386 8.66124011,20.9712323 10.1250718,18.4358006 C11.5889035,15.9003689 10.7201964,12.6583277 8.18475994,11.1944983 C6.96719948,10.491542 5.52025819,10.3010504 4.16224696,10.6649293 C2.80423573,11.0288083 1.6463959,11.9172508 0.943439277,13.1348094 Z M37.2622192,34.1034249 C35.7983889,36.6388575 36.6670979,39.8808981 39.2025352,41.3447261 C41.7379725,42.8085542 44.98002,41.9398479 46.4438517,39.4044161 C47.9076834,36.8689844 47.0389763,33.6269432 44.5035398,32.1631138 C43.2859792,31.4601581 41.8390381,31.2696668 40.4810271,31.6335457 C39.123016,31.9974246 37.9651762,32.8858667 37.2622192,34.1034249 L37.2622192,34.1034249 Z M0.943439277,39.4044281 C2.40727172,41.9398594 5.64931947,42.8085648 8.18475636,41.3447361 C10.7201932,39.8809073 11.5889013,36.6388664 10.1250703,34.1034343 C8.66123932,31.5680021 5.41919207,30.6992949 2.88375434,32.1631222 C1.66619328,32.8660774 0.777748993,34.0239149 0.413869285,35.3819233 C0.0499895774,36.7399318 0.240481614,38.1868702 0.943439277,39.4044281 Z M37.2622192,18.4358126 C38.7260516,20.9712439 41.9680994,21.8399493 44.5035363,20.3761206 C47.0389731,18.9122918 47.9076812,15.6702509 46.4438502,13.1348188 C44.9800192,10.5993866 41.737972,9.73067939 39.2025342,11.1945067 C37.9849732,11.8974619 37.0965289,13.0552993 36.7326492,14.4133078 C36.3687695,15.7713163 36.5592615,17.2182546 37.2622192,18.4358126 L37.2622192,18.4358126 Z M66.1258395,6.93919133 L66.1258395,15.8711386 L78.1585362,15.8711386 L78.1585362,22.4388644 L66.1258395,22.4388644 L66.1258395,31.5547391 L81.835528,31.5547391 L81.835528,38.3853311 L57.1938741,38.3853311 L57.1938741,0.108599314 L81.835528,0.108599314 L81.835528,6.93919133 L66.1258395,6.93919133 Z M126.198541,0.108993019 L126.198541,38.3857269 L118.370145,38.3857269 L118.370145,16.3708235 C118.370145,15.8628491 118.383301,15.3110654 118.409614,14.7154724 C118.435665,14.120271 118.483554,13.5161246 118.553283,12.9030332 L108.387497,32.5797627 C108.105165,33.1567788 107.662555,33.6402265 107.112631,33.972256 C106.558312,34.2929235 105.927057,34.4563994 105.286768,34.4450994 L104.079,34.4450994 C103.438461,34.4563982 102.806953,34.2929272 102.252348,33.972256 C101.702841,33.6399564 101.260553,33.1565615 100.978271,32.5797627 L90.8116958,12.8505294 C90.864585,13.4808568 90.9072125,14.0981604 90.943524,14.702438 C90.9782585,15.3067178 90.995625,15.8628434 90.9956236,16.370815 L90.9956236,38.3857269 L83.1664355,38.3857269 L83.1664355,0.108993019 L89.9441522,0.108993019 C90.3293744,0.108993019 90.6667077,0.117808213 90.956152,0.135438601 C91.2210916,0.14788298 91.4825417,0.200997731 91.7313348,0.292920449 C91.9634492,0.383785723 92.1737915,0.522580534 92.3486313,0.700244724 C92.5651405,0.930684134 92.7465404,1.19174626 92.886995,1.47503226 L102.738612,20.8892935 C103.089101,21.5551442 103.426434,22.2469127 103.750612,22.964599 C104.074263,23.682952 104.385017,24.4185319 104.682873,25.1713387 C104.980473,24.4008945 105.291227,23.6478169 105.615133,22.9121057 C105.938784,22.1763946 106.284801,21.4758109 106.653183,20.8103547 L116.478742,1.47503647 C116.618918,1.19158947 116.800346,0.930491755 117.017106,0.700259462 C117.191669,0.522259128 117.402087,0.383413811 117.634402,0.292935187 C117.883173,0.200934028 118.144635,0.147816785 118.409585,0.135453338 C118.698501,0.118086122 119.034783,0.108993019 119.420797,0.108993019 L126.198541,0.108993019 Z M62.609888,52.5390943 L62.1196868,52.5390943 C62.06516,52.5408372 62.0109375,52.5303162 61.9610193,52.5083075 C61.9115725,52.4819432 61.8703343,52.4424802 61.8418213,52.3942405 L59.3126114,49.1976074 C59.2854426,49.1595778 59.2547869,49.1241644 59.2210422,49.0918272 C59.1900232,49.0626795 59.1542472,49.0390521 59.1152618,49.0219667 C59.0706961,49.0040464 59.0239971,48.9919735 58.9763301,48.9860491 C58.9106167,48.9777854 58.8444209,48.9739618 58.7781931,48.9746043 L57.7480324,48.9746043 L57.7480324,52.5390943 L57.1741446,52.5390943 L57.1741446,44.6586142 L59.1902532,44.6586142 C60.0956844,44.6586142 60.7742979,44.8339917 61.2260934,45.1847468 C61.6768363,45.5356295 61.902339,46.050838 61.9026014,46.7303721 C61.9059972,47.0126801 61.8531324,47.2928372 61.747092,47.5544949 C61.644198,47.8011268 61.4915634,48.0238982 61.2987184,48.2088993 C61.0925267,48.4033632 60.8529185,48.5590016 60.5914234,48.6683253 C60.2935501,48.7926614 59.9792899,48.8733529 59.6583626,48.907904 C59.7509086,48.9670173 59.8319517,49.0424439 59.8975482,49.1305134 L62.609888,52.5390943 Z M59.1120953,48.5514897 C59.4293788,48.5557274 59.7455786,48.5135761 60.0506722,48.4263717 C60.3059631,48.3538266 60.5444379,48.2316393 60.7524426,48.0668056 C60.9398368,47.9157518 61.0895512,47.7232038 61.1897651,47.5043639 C61.2927972,47.2713239 61.3439723,47.0186824 61.3397501,46.763917 C61.3754795,46.2828989 61.1702397,45.8154915 60.7919121,45.516286 C60.4256328,45.2451309 59.8917408,45.1096194 59.1902364,45.1097512 L57.7480176,45.1097512 L57.7480176,48.5514897 L59.1120953,48.5514897 Z M70.0167439,52.0658572 L70.0056928,52.5390965 L65.2827688,52.5390965 L65.2827688,44.6586142 L70.0056991,44.6586142 L70.0056991,45.1318535 L65.8566566,45.1318535 L65.8566566,48.3174376 L69.3094552,48.3174376 L69.3094552,48.7800195 L65.8566566,48.7800195 L65.8566566,52.0658572 L70.0167439,52.0658572 Z M79.0836955,44.6586163 L75.8314024,52.5390965 L75.324613,52.5390965 L72.0723199,44.6586163 L72.5230621,44.6586163 C72.5693332,44.6567349 72.6147331,44.6715879 72.6509447,44.7004543 C72.6855633,44.7296209 72.7124135,44.7669127 72.7290942,44.8089946 L75.4130283,51.3471168 C75.4430236,51.4288199 75.473021,51.5164413 75.5030184,51.6091956 C75.532227,51.7019485 75.5598559,51.7965436 75.585905,51.8929809 C75.6087967,51.7966748 75.632478,51.7019478 75.6585278,51.6091956 C75.6833646,51.5202452 75.7131444,51.4327496 75.7477284,51.3471168 L78.4269254,44.8089946 C78.4419824,44.7670185 78.4688461,44.7302863 78.5042854,44.7032165 C78.5424813,44.6732176 78.5899279,44.6574488 78.6384821,44.6586163 L79.0836955,44.6586163 Z M86.4739863,52.0658572 L86.4629352,52.5390965 L81.740005,52.5390965 L81.740005,44.6586142 L86.4629352,44.6586142 L86.4629352,45.1318535 L82.3138927,45.1318535 L82.3138927,48.3174376 L85.7666914,48.3174376 L85.7666914,48.7800195 L82.3138927,48.7800195 L82.3138927,52.0658572 L86.4739863,52.0658572 Z M95.6293512,44.6586163 L95.6293512,52.5390965 L95.3625305,52.5390965 C95.3211091,52.5406707 95.2799272,52.532136 95.242543,52.5142299 C95.2058926,52.4926904 95.1745886,52.4631405 95.1509738,52.4277917 L90.0325591,45.5885151 C90.0436123,45.7002135 90.0491382,45.8061235 90.0491368,45.9062452 L90.0491368,52.5390943 L89.547874,52.5390943 L89.547874,44.6586142 L89.8320536,44.6586142 C89.8729596,44.6566391 89.9138273,44.6632263 89.9520411,44.6779542 C89.9888825,44.6992388 90.0202401,44.7288386 90.0436123,44.7643923 L95.1509759,51.5866955 C95.1399227,51.4753908 95.1336087,51.3696127 95.1336087,51.2693612 L95.1336087,44.6586142 L95.6293512,44.6586163 Z M102.189985,52.1325596 C102.538746,52.1385385 102.884873,52.0711695 103.205932,51.9348188 C103.496365,51.8092765 103.756023,51.6220755 103.966906,51.3861925 C104.17887,51.1448794 104.340681,50.8637891 104.442908,50.5593054 C104.554688,50.2282922 104.610188,49.8808829 104.607102,49.5315195 L104.607102,44.6586142 L105.174674,44.6586142 L105.174674,49.5315174 C105.178324,49.9461724 105.108847,50.3582244 104.969433,50.7487573 C104.839138,51.113516 104.637318,51.4485849 104.37581,51.7343116 C104.112595,52.0186281 103.791823,52.243599 103.434856,52.3942405 C102.635681,52.7136817 101.744288,52.7136817 100.945113,52.3942405 C100.588256,52.2434016 100.267522,52.0184582 100.004159,51.7343116 C99.7426517,51.4485849 99.5408315,51.113516 99.4105359,50.7487573 C99.2711221,50.3582244 99.2016454,49.9461724 99.2052954,49.5315174 L99.2052954,44.6586142 L99.7783937,44.6586142 L99.7783937,49.5259929 C99.7756984,49.8753268 99.8311878,50.2226716 99.9425857,50.5537788 C100.0447,50.8578052 100.205635,51.1387696 100.416222,51.3806638 C100.625863,51.6172308 100.884443,51.8053773 101.174037,51.9320608 C101.49463,52.0702033 101.840947,52.1385489 102.189985,52.1325575 L102.189985,52.1325596 Z M113.484599,52.0658572 L113.473548,52.5390965 L108.75062,52.5390965 L108.75062,44.6586142 L113.473548,44.6586142 L113.473548,45.1318535 L109.323716,45.1318535 L109.323716,48.3174376 L112.777305,48.3174376 L112.777305,48.7800195 L109.323716,48.7800195 L109.323716,52.0658572 L113.484599,52.0658572 Z M128.715906,44.6586142 L128.715906,52.5390943 L128.220168,52.5390943 L128.220168,45.8225693 C128.220754,45.7202462 128.22655,45.6180194 128.237535,45.516286 L125.135227,51.0242558 C125.09632,51.1124166 125.008982,51.1692466 124.912617,51.1691054 L124.823417,51.1691054 C124.72693,51.169663 124.639384,51.1126974 124.600809,51.0242558 L121.415612,45.5052328 C121.426665,45.6165376 121.431402,45.7223157 121.431402,45.8225672 L121.431402,52.5390943 L120.930929,52.5390943 L120.930929,44.6586142 L121.325624,44.6586142 C121.367316,44.6571049 121.408961,44.6627111 121.44877,44.6751919 C121.487155,44.6945216 121.518193,44.7258368 121.537181,44.7643923 L124.71764,50.2447333 C124.774762,50.3519387 124.823074,50.4636105 124.862099,50.5786453 C124.884205,50.5194423 124.908674,50.4610266 124.934724,50.4034026 C124.960774,50.3457785 124.988411,50.2909146 125.018398,50.238813 L128.109657,44.7643944 C128.129263,44.7251968 128.161528,44.6937662 128.201226,44.675194 C128.241878,44.6628558 128.284276,44.6572558 128.326738,44.6586163 L128.715906,44.6586142 Z M138.384375,52.5390943 L137.944684,52.5390943 C137.898395,52.5411059 137.852951,52.5262383 137.816803,52.4972564 C137.782183,52.468091 137.755333,52.4307988 137.738654,52.388716 L136.814275,50.0998795 L132.943892,50.0998795 L132.018724,52.388716 C132.003383,52.4305404 131.976573,52.4671989 131.941364,52.4944941 C131.903197,52.5245465 131.855731,52.5403219 131.807168,52.5390943 L131.373003,52.5390943 L134.597667,44.6586142 L135.160504,44.6586142 L138.384375,52.5390943 Z M136.641399,49.6763712 L135.037354,45.6942932 C134.974244,45.5417974 134.920466,45.3856049 134.876318,45.2265805 C134.854212,45.3157809 134.829745,45.4002463 134.803695,45.4799747 C134.779714,45.5548145 134.751783,45.6283306 134.720019,45.7002135 L133.115975,49.6763712 L136.641399,49.6763712 Z M147.12294,44.6586142 L147.12294,52.5390943 L146.855336,52.5390943 C146.814176,52.5405878 146.773269,52.532054 146.736138,52.5142278 C146.699237,52.4927363 146.667665,52.4631886 146.64378,52.4277896 L141.526154,45.5885151 C141.537206,45.7002135 141.541945,45.806 141.541945,45.9062452 L141.541945,52.5390943 L141.041472,52.5390943 L141.041472,44.6586142 L141.325653,44.6586142 C141.366303,44.656627 141.406915,44.6632165 141.444851,44.6779542 C141.481797,44.6993861 141.513381,44.7289453 141.53721,44.7643923 L146.643784,51.5866955 C146.632732,51.4753915 146.627206,51.3696134 146.627206,51.2693612 L146.627206,44.6586142 L147.12294,44.6586142 Z M156.791408,52.5390943 L156.350932,52.5390943 C156.304644,52.5411059 156.2592,52.5262383 156.223052,52.4972564 C156.188432,52.468091 156.161581,52.4307988 156.144902,52.388716 L155.220524,50.0998795 L151.349347,50.0998795 L150.425758,52.388716 C150.409803,52.4306349 150.382464,52.4672686 150.346819,52.4944941 C150.309076,52.5247648 150.261772,52.5405792 150.213412,52.5390943 L149.779248,52.5390943 L153.003912,44.6586142 L153.565959,44.6586142 L156.791408,52.5390943 Z M155.047641,49.6763712 L153.443597,45.6942932 C153.379844,45.5419579 153.325795,45.3857416 153.281771,45.2265805 C153.259665,45.3157809 153.235987,45.4002463 153.209938,45.4799747 C153.183888,45.5600967 153.155469,45.6331153 153.126262,45.7002135 L151.522217,49.6763712 L155.047641,49.6763712 Z M165.567862,48.9635532 L165.567862,51.7650984 C164.765332,52.3457309 163.79533,52.6487882 162.804991,52.6283011 C162.231627,52.6371172 161.661575,52.5398339 161.123587,52.3413578 C160.646641,52.1634849 160.21291,51.8863473 159.851098,51.5282862 C159.493662,51.1668833 159.218001,50.7329387 159.042759,50.2557991 C158.849636,49.724076 158.754424,49.161768 158.761736,48.5961068 C158.7543,48.0317417 158.847869,47.4705962 159.038024,46.9391788 C159.376552,45.979096 160.121105,45.2170733 161.073081,44.8563739 C161.597967,44.6581023 162.155577,44.5607483 162.716595,44.5694306 C162.995113,44.5678673 163.273319,44.5883229 163.548613,44.6306064 C163.790598,44.6685297 164.028469,44.7291865 164.259066,44.8117716 C164.472872,44.8888375 164.678149,44.9877728 164.871633,45.1070038 C165.064417,45.2264865 165.247111,45.3615269 165.417892,45.5107763 L165.261593,45.7558837 C165.240867,45.7972221 165.203342,45.8276325 165.158607,45.839345 C165.113872,45.8510575 165.066259,45.8429374 165.027934,45.8170595 C164.94165,45.7754878 164.86101,45.7230989 164.787959,45.6611567 C164.654278,45.5612433 164.510636,45.4754019 164.359319,45.4049982 C164.142109,45.3034139 163.915541,45.2231772 163.682809,45.1654194 C163.36071,45.0888895 163.030234,45.0533489 162.699228,45.0596413 C162.224793,45.0528859 161.753372,45.1360535 161.30989,45.3047467 C160.910273,45.4586055 160.549215,45.6981429 160.252107,46.0065136 C159.951127,46.3259187 159.721352,46.7055569 159.577965,47.1203439 C159.414095,47.5948235 159.333963,48.0941802 159.341148,48.5961089 C159.333701,49.1034713 159.413814,49.6083173 159.577965,50.0884494 C159.722377,50.5086415 159.95614,50.8925445 160.263158,51.2137246 C160.569364,51.5269425 160.941116,51.7684864 161.351728,51.9210181 C161.813375,52.090446 162.302246,52.1735296 162.793947,52.1661234 C163.011041,52.1672196 163.227921,52.1523125 163.442824,52.1215232 C163.635049,52.0934053 163.824997,52.0514592 164.011187,51.9960115 C164.19051,51.9426498 164.365479,51.8756183 164.534554,51.7955063 C164.703483,51.715778 164.874783,51.6257859 165.050026,51.5255344 L165.050026,49.4036371 L163.540709,49.4036371 C163.502649,49.4048877 163.465679,49.3908111 163.438089,49.3645635 C163.411516,49.3424956 163.395939,49.3098988 163.395461,49.2753609 L163.395461,48.9635553 L165.567862,48.9635532 Z M173.543092,52.0658572 L173.532041,52.5390965 L168.809111,52.5390965 L168.809111,44.6586142 L173.532041,44.6586142 L173.532041,45.1318535 L169.382209,45.1318535 L169.382209,48.3174376 L172.835797,48.3174376 L172.835797,48.7800195 L169.382209,48.7800195 L169.382209,52.0658572 L173.543092,52.0658572 Z M184.402753,44.6586163 L184.402753,52.5390965 L183.907015,52.5390965 L183.907015,45.8225693 C183.9076,45.7202462 183.913397,45.6180194 183.924382,45.516286 L180.822082,51.0242558 C180.783176,51.1124167 180.695838,51.1692469 180.599474,51.1691054 L180.509484,51.1691054 C180.41312,51.1692469 180.325782,51.1124167 180.286876,51.0242558 L177.10168,45.5052328 C177.112731,45.6165369 177.118257,45.722315 177.118257,45.8225672 L177.118257,52.5390965 L176.616995,52.5390965 L176.616995,44.6586142 L177.012479,44.6586142 C177.053916,44.6570325 177.095313,44.6626414 177.134835,44.6751919 C177.17331,44.6946657 177.204562,44.7259171 177.224036,44.7643923 L180.403706,50.2447333 C180.461093,50.3519159 180.509669,50.463588 180.548954,50.5786453 C180.57106,50.5194423 180.594737,50.4610266 180.621577,50.4034026 C180.646444,50.3470575 180.674371,50.2921132 180.705234,50.2388151 L183.795716,44.7643923 C183.815592,44.7251158 183.848132,44.6936893 183.888077,44.6751919 C183.928457,44.6628462 183.970596,44.6572451 184.012799,44.6586142 L184.402753,44.6586163 Z M192.81293,52.0658572 L192.801879,52.5390965 L188.078159,52.5390965 L188.078159,44.6586142 L192.801885,44.6586142 L192.801885,45.1318535 L188.652047,45.1318535 L188.652047,48.3174376 L192.105637,48.3174376 L192.105637,48.7800195 L188.652047,48.7800195 L188.652047,52.0658572 L192.81293,52.0658572 Z M201.968295,44.6586163 L201.968295,52.5390965 L201.700691,52.5390965 C201.65953,52.5405909 201.618623,52.532057 201.581493,52.5142299 C201.544592,52.4927384 201.51302,52.4631907 201.489135,52.4277917 L196.371509,45.5885151 C196.38256,45.7002135 196.3873,45.806 196.3873,45.9062452 L196.3873,52.5390943 L195.886826,52.5390943 L195.886826,44.6586142 L196.171008,44.6586142 C196.211657,44.656627 196.25227,44.6632165 196.290206,44.6779542 C196.327152,44.6993861 196.358736,44.7289453 196.382565,44.7643923 L201.489139,51.5866955 C201.478087,51.4753915 201.472561,51.3696134 201.472561,51.2693612 L201.472561,44.6586142 L201.968295,44.6586163 Z M210.767643,45.1429067 L207.999247,45.1429067 L207.999247,52.5390965 L207.426149,52.5390965 L207.426149,45.1429046 L204.641176,45.1429046 L204.641176,44.6586142 L210.767643,44.6586142 L210.767643,45.1429067 Z" id="Shape" fill="#53565A" fill-rule="nonzero"></path>
                <path d="M31.0906846,26.2021695 L37.2318098,29.7431598 L33.3776556,36.4100269 L27.2365789,32.8690366 L27.2365789,39.9509729 L19.5283655,39.9509729 L19.5283655,32.8690366 L13.387234,36.4100269 L9.53313253,29.7431598 L15.6742577,26.2021695 L9.53313253,22.661175 L13.387234,15.9943101 L19.5283655,19.5353003 L19.5283655,12.4533662 L27.2365789,12.4533662 L27.2365789,19.5353003 L33.3776556,15.9943101 L37.2318098,22.661175 L31.0906846,26.2021695 Z M149.110705,0 L118.601341,0 L118.601341,7.05175843 L129.40288,7.05175843 L129.40288,38.3375307 L138.309163,38.3375307 L138.309163,7.05175422 L149.110705,7.05175422 L149.110705,0 Z M164.602097,24.2075389 C164.801587,24.2268983 164.998101,24.1485122 165.129348,23.9972282 C165.258508,23.7552781 165.31357,23.4807353 165.287681,23.2077691 C165.317124,21.5413254 165.044629,19.883295 164.483345,18.3136851 C164.001456,16.9799646 163.253233,15.7579431 162.284088,14.7217883 C161.359146,13.7528159 160.235823,12.9944774 158.990742,12.498499 C157.682706,11.9818486 156.286953,11.722766 154.880392,11.7355275 C153.166283,11.706137 151.465219,12.0379081 149.888125,12.7092062 C148.466473,13.3248875 147.198005,14.2456488 146.172814,15.4060921 C145.133182,16.6059252 144.344739,18.0015864 143.854017,19.5107085 C143.304163,21.1876486 143.032729,22.943136 143.050472,24.7076105 C143.018519,26.7182382 143.307402,28.7211184 143.906267,30.6409964 C144.411997,32.251679 145.241425,33.7423925 146.343818,35.0219538 C147.384796,36.2061334 148.68254,37.137552 150.13829,37.7453273 C151.692033,38.3833745 153.358901,38.7011216 155.038726,38.6794739 C156.024878,38.6792019 157.008624,38.5822783 157.975819,38.3900968 C158.909647,38.2089275 159.82649,37.9493362 160.716579,37.6140892 C161.529568,37.3090776 162.306831,36.9164423 163.034589,36.4431443 C163.666104,36.042207 164.230815,35.5449233 164.708179,34.9693856 L164.02259,34.1273499 C163.904124,33.9546263 163.704764,33.8552247 163.495337,33.8644604 C163.319588,33.8644604 163.038809,34.0091486 162.653001,34.2985249 C162.153547,34.6587069 161.629802,34.9840385 161.085496,35.2722015 C160.308632,35.6794315 159.491796,36.0055833 158.647945,36.2454838 C157.533096,36.5547682 156.379259,36.7011078 155.22239,36.6799426 C153.84956,36.6999155 152.487064,36.4401752 151.218125,35.9165873 C150.031269,35.4140892 148.983089,34.633442 148.162289,33.6407108 C147.267161,32.5339318 146.60381,31.2588245 146.211614,29.891082 C145.729132,28.2063574 145.498643,26.4596613 145.527619,24.707621 L145.527619,24.2075389 L164.602097,24.2075389 Z M145.659025,22.6025316 C145.793461,21.3264646 146.112942,20.0766953 146.607445,18.892435 C147.049941,17.8347789 147.689299,16.8705456 148.491619,16.0508616 C149.279464,15.2568954 150.2264,14.638143 151.270379,14.2351472 C152.431874,13.7981713 153.665495,13.5839821 154.906511,13.6038186 C156.030066,13.5903807 157.14505,13.8005609 158.186399,14.2220942 C159.161322,14.6219521 160.037994,15.227892 160.756158,15.998266 C161.503261,16.815557 162.072578,17.7786695 162.428165,18.8267948 C162.840375,20.0423076 163.041193,21.3193242 163.021918,22.6025316 L145.659025,22.6025316 Z M187.497182,14.7613225 C186.493109,13.8184704 185.323152,13.0691292 184.046294,12.5510757 C182.604146,11.9844064 181.064275,11.7072721 179.514778,11.7355275 C177.781906,11.7026402 176.061919,12.0390217 174.469463,12.7222507 C173.033908,13.3567344 171.759563,14.3054465 170.740703,15.4982008 C169.690395,16.7500249 168.902178,18.1995344 168.422694,19.7609583 C167.87748,21.5334438 167.610948,23.379684 167.632608,25.2337943 C167.603108,27.1604254 167.883223,29.0793114 168.462277,30.9173374 C168.949112,32.4637167 169.736842,33.8988958 170.780287,35.1405586 C171.752374,36.274343 172.968637,37.1738691 174.33805,37.7718148 C175.781477,38.3901311 177.338675,38.6993363 178.90915,38.679476 C179.859984,38.6826503 180.808716,38.590072 181.740952,38.4031455 C182.604354,38.2316308 183.447728,37.971584 184.25767,37.6271379 C184.994741,37.3142678 185.692924,36.9169414 186.338179,36.4431485 C186.913703,36.0253328 187.427977,35.5292885 187.866099,34.9693898 L187.207432,34.1273541 C187.084309,33.9604824 186.888515,33.8627127 186.680971,33.8644646 C186.470389,33.8644646 186.206763,34.013501 185.890093,34.3115736 C185.487082,34.6760041 185.050819,35.0019838 184.587006,35.2852523 C183.923049,35.6877368 183.215863,36.0143494 182.478788,36.2589289 C181.452526,36.5830152 180.37938,36.7341192 179.303402,36.706038 C178.016085,36.7233719 176.740175,36.4631275 175.562754,35.9430664 C174.443577,35.4382927 173.459705,34.6764888 172.691368,33.7197772 C171.852489,32.6529522 171.23021,31.4328354 170.859445,30.1278825 C170.405869,28.5368139 170.188484,26.8878931 170.214234,25.2337964 C170.193952,23.6163478 170.402367,22.004136 170.833312,20.4448677 C171.195018,19.124639 171.81762,17.8900529 172.664443,16.8138353 C173.45805,15.8249261 174.47338,15.0362482 175.628454,14.5114797 C177.784559,13.6253099 180.171802,13.4681442 182.425729,14.0639763 C183.086835,14.2584888 183.72679,14.518589 184.336028,14.8403888 C184.760191,15.0662406 185.165509,15.3257438 185.548075,15.6163965 C185.74275,15.805151 185.991034,15.9292693 186.259001,15.9717911 C186.37602,15.9788748 186.492021,15.9464305 186.588335,15.8796802 C186.676574,15.8106879 186.760145,15.7359407 186.838502,15.6559286 L187.497182,14.7613225 Z M192.898744,0.052572408 L190.369359,0.052572408 L190.369359,38.3375349 L192.898744,38.3375349 L192.898744,18.6556366 C193.964587,17.196559 195.313096,15.9662181 196.864218,15.0376508 C198.310815,14.1795383 199.96338,13.7293605 201.645902,13.7350651 C203.946494,13.7350651 205.659139,14.4324134 206.783838,15.8271099 C207.907218,17.2218037 208.469303,19.147021 208.470094,21.6027618 L208.470094,38.3375349 L210.998687,38.3375349 L210.998687,21.6027618 C211.017632,20.2147275 210.831432,18.8314953 210.446101,17.4977405 C210.117162,16.3631259 209.561295,15.3068962 208.812095,14.3928813 C208.077431,13.5234591 207.141556,12.8460757 206.085576,12.4194348 C204.873939,11.9425769 203.579722,11.7101346 202.277646,11.7355275 C200.449152,11.7094907 198.645831,12.1631434 197.047876,13.0511556 C195.45764,13.9589939 194.050604,15.1546708 192.898735,16.5770306 L192.898744,0.052572408 Z" id="Shape" fill="#FF9E1B" fill-rule="nonzero"></path>
                <text id="Powered-by" font-family="Muli-Regular, Muli" font-size="8.87799398" font-weight="normal" letter-spacing="0.295933134" fill="#6C7075">
                    <tspan x="56.1216048" y="65.9671682">Powered by</tspan>
                </text>
                <line x1="110.340782" y1="68.6459177" x2="151.63452" y2="68.6459177" id="Path-3" stroke="#FFC97F" stroke-width="0.634142427"></line>
                <text id="MP-Cloud" font-family="Nunito-Regular, Nunito" font-size="8.87799398" font-weight="normal" letter-spacing="0.295933134" fill="#53565A">
                    <tspan x="110.023711" y="65.9671682">MP Cloud</tspan>
                </text>
            </g>
        </g>
    </g>
</svg>