<?xml version="1.0" encoding="UTF-8"?>
<svg width="664px" height="218px" viewBox="0 0 664 218" version="1.1" xmlns="http://www.w3.org/2000/svg" xmlns:xlink="http://www.w3.org/1999/xlink">
    <title>Brand - EMTech</title>
    <g id="Brand---EMTech" stroke="none" stroke-width="1" fill="none" fill-rule="evenodd">
        <g id="Group">
            <path d="M90.7124318,16.7186519 C90.7124318,23.4807187 86.6390575,29.5769503 80.3917105,32.1646831 C74.1443635,34.7524159 66.9533546,33.32204 62.1718407,28.5405377 C57.3903268,23.7590354 55.9599452,16.5680418 58.5476808,10.3207064 C61.1354163,4.0733711 67.2316587,0 73.9937392,0 C83.2272156,0 90.7124318,7.48519434 90.7124318,16.7186519 Z M73.9937392,132.264391 C64.7602666,132.264391 57.27506,139.749589 57.27506,148.983043 C57.27506,158.216497 64.7602666,165.701695 73.9937392,165.701695 C83.2272119,165.701695 90.7124318,158.21651 90.7124318,148.983056 C90.7124318,144.548991 88.951008,140.296532 85.8156444,137.161173 C82.6802808,134.025815 78.4278139,132.264391 73.9937392,132.264391 Z M2.2426575,41.4254238 C-2.37406645,49.4218374 0.365724949,59.646798 8.36215351,64.2635148 C16.3585821,68.8802317 26.5835642,66.1404488 31.2002928,58.1440378 C35.8170213,50.1476268 33.0772357,39.9226646 25.0808098,35.3059432 C21.2407877,33.0889137 16.6773293,32.4881287 12.3943444,33.635754 C8.11135945,34.7833794 4.45968821,37.5854076 2.2426575,41.4254238 Z M116.787209,107.557619 C112.170485,115.554033 114.910276,125.778994 122.906705,130.39571 C130.903133,135.012427 141.128116,132.272644 145.744844,124.276233 C150.361573,116.279822 147.621787,106.05486 139.625361,101.438139 C135.785339,99.2211111 131.221881,98.6203271 126.938896,99.7679523 C122.655912,100.915578 119.004241,103.717605 116.787209,107.557619 L116.787209,107.557619 Z M2.2426575,124.276271 C6.85938831,132.272681 17.0843713,135.012461 25.0807985,130.395742 C33.0772257,125.779023 35.8170142,115.554061 31.200288,107.557649 C26.5835617,99.5612367 16.3585804,96.8214508 8.36215048,101.438165 C4.5221265,103.655192 1.72009261,107.306855 0.572464906,111.589832 C-0.575162795,115.872808 0.0256234892,120.436257 2.2426575,124.276271 Z M116.787209,58.1440757 C121.40394,66.1404853 131.628923,68.8802653 139.62535,64.2635462 C147.621777,59.646827 150.361566,49.4218656 145.744839,41.4254533 C141.128113,33.4290411 130.903132,30.6892552 122.906702,35.3059698 C119.066678,37.522996 116.264644,41.1746598 115.117016,45.457636 C113.969389,49.7406123 114.570175,54.3040614 116.787209,58.1440757 L116.787209,58.1440757 Z M207.819189,21.885277 L207.819189,50.0554385 L245.768697,50.0554385 L245.768697,70.7691629 L207.819189,70.7691629 L207.819189,99.5194068 L257.365435,99.5194068 L257.365435,121.062176 L179.64897,121.062176 L179.64897,0.342507644 L257.365435,0.342507644 L257.365435,21.885277 L207.819189,21.885277 Z M397.280418,0.343749336 L397.280418,121.063424 L372.590707,121.063424 L372.590707,51.6313773 C372.590707,50.0292943 372.632201,48.2890427 372.715189,46.4106225 C372.797349,44.5334373 372.948386,42.6280407 373.168301,40.6944327 L341.106779,102.752194 C340.21634,104.572025 338.820408,106.096754 337.086021,107.14393 C335.337773,108.155272 333.346881,108.670854 331.327496,108.635215 L327.518357,108.635215 C325.498185,108.67085 323.506492,108.155284 321.757342,107.14393 C320.02427,106.095902 318.629355,104.571339 317.739074,102.752194 L285.675062,40.5288428 C285.841868,42.5168108 285.976309,44.4637034 286.090831,46.3695138 C286.200379,48.275331 286.25515,50.0292766 286.255146,51.6313508 L286.255146,121.063424 L261.562939,121.063424 L261.562939,0.343749336 L282.938947,0.343749336 C284.153885,0.343749336 285.217789,0.371551273 286.130658,0.427155146 C286.966242,0.466403048 287.79082,0.633919835 288.57548,0.923831735 C289.307538,1.2104086 289.970929,1.64814878 290.52235,2.20847776 C291.205191,2.93525269 291.777302,3.75860756 292.220277,4.65205354 L323.290954,65.8820247 C324.396349,67.9820282 325.460253,70.1637731 326.482665,72.4272593 C327.503417,74.6928482 328.483492,77.0127684 329.42289,79.3870197 C330.361482,76.9571423 331.341557,74.5820367 332.363115,72.2617026 C333.383867,69.9413686 334.475157,67.7318218 335.636984,65.6330622 L366.625476,4.65206682 C367.067575,3.75811307 367.639771,2.93464596 368.323403,2.20852424 C368.873951,1.64713511 369.537584,1.20923564 370.270273,0.923878216 C371.054863,0.633718925 371.87948,0.466194277 372.715096,0.427201627 C373.6263,0.372427761 374.686886,0.343749336 375.904324,0.343749336 L397.280418,0.343749336 Z M196.73035,165.701244 L195.184322,165.701244 C195.012351,165.70674 194.841341,165.673558 194.683906,165.604146 C194.527957,165.520996 194.397897,165.396535 194.307971,165.244394 L186.331183,155.162643 C186.245496,155.042702 186.148812,154.931013 186.042386,154.829026 C185.944556,154.737098 185.831724,154.66258 185.708769,154.608696 C185.568215,154.552177 185.420932,154.514101 185.270597,154.495416 C185.063346,154.469354 184.854573,154.457295 184.645699,154.459321 L181.396711,154.459321 L181.396711,165.701244 L179.586746,165.701244 L179.586746,140.847268 L185.945282,140.847268 C188.80089,140.847268 190.941146,141.400385 192.366048,142.506619 C193.787631,143.613257 194.498836,145.238155 194.499663,147.381314 C194.510373,148.271675 194.343645,149.155253 194.009208,149.980487 C193.684694,150.758331 193.203305,151.460922 192.595097,152.04439 C191.944797,152.657703 191.189104,153.148566 190.364384,153.493358 C189.424932,153.885497 188.433797,154.139987 187.421636,154.248957 C187.713513,154.435393 187.969112,154.673278 188.175995,154.951037 L196.73035,165.701244 Z M185.698782,153.124874 C186.699452,153.13824 187.696703,153.0053 188.658927,152.730269 C189.464081,152.501471 190.216198,152.116109 190.872217,151.596246 C191.463233,151.119842 191.935412,150.512572 192.251474,149.82238 C192.576423,149.087403 192.737822,148.290606 192.724506,147.48711 C192.837192,145.970044 192.189893,144.495904 190.996699,143.55225 C189.841503,142.697063 188.157679,142.269678 185.945228,142.270094 L181.396664,142.270094 L181.396664,153.124874 L185.698782,153.124874 Z M220.090578,164.208717 L220.055725,165.70125 L205.160257,165.70125 L205.160257,140.847268 L220.055744,140.847268 L220.055744,142.339801 L206.970222,142.339801 L206.970222,152.386705 L217.859885,152.386705 L217.859885,153.845626 L206.970222,153.845626 L206.970222,164.208717 L220.090578,164.208717 Z M248.686525,140.847275 L238.42923,165.70125 L236.830884,165.70125 L226.573589,140.847275 L227.995169,140.847275 C228.141102,140.841341 228.284287,140.888185 228.398494,140.979226 C228.507676,141.071214 228.592358,141.188827 228.644967,141.321548 L237.109734,161.941906 C237.204335,162.199587 237.298943,162.475933 237.393551,162.768468 C237.485671,163.060998 237.572809,163.359338 237.654964,163.663488 C237.727162,163.359752 237.801849,163.060996 237.884007,162.768468 C237.962338,162.48793 238.05626,162.211981 238.165334,161.941906 L246.615161,141.321548 C246.662648,141.189161 246.747373,141.073312 246.859144,140.987938 C246.979609,140.893325 247.129249,140.843593 247.282382,140.847275 L248.686525,140.847275 Z M271.99451,164.208717 L271.959656,165.70125 L257.064168,165.70125 L257.064168,140.847268 L271.959656,140.847268 L271.959656,142.339801 L258.874133,142.339801 L258.874133,152.386705 L269.763796,152.386705 L269.763796,153.845626 L258.874133,153.845626 L258.874133,164.208717 L271.99451,164.208717 Z M300.8693,140.847275 L300.8693,165.70125 L300.027783,165.70125 C299.897146,165.706215 299.767264,165.679298 299.649359,165.622824 C299.533769,165.554892 299.43504,165.461695 299.360562,165.35021 L283.21777,143.78005 C283.25263,144.132332 283.270058,144.466358 283.270054,144.782129 L283.270054,165.701244 L281.689138,165.701244 L281.689138,140.847268 L282.585402,140.847268 C282.714414,140.841039 282.843306,140.861814 282.963827,140.908264 C283.08002,140.975393 283.178917,141.068746 283.25263,141.180878 L299.360569,162.697506 C299.325708,162.346465 299.305795,162.012855 299.305795,161.696676 L299.305795,140.847268 L300.8693,140.847275 Z M321.560656,164.419088 C322.660604,164.437944 323.752241,164.225472 324.764818,163.79544 C325.680806,163.399496 326.499731,162.809089 327.164826,162.065146 C327.833333,161.304077 328.343664,160.417556 328.666074,159.457255 C329.018612,158.413284 329.193653,157.317602 329.18392,156.215757 L329.18392,140.847268 L330.973965,140.847268 L330.973965,156.21575 C330.985477,157.523516 330.766356,158.823073 330.326664,160.054761 C329.915729,161.205161 329.279215,162.261923 328.454455,163.163067 C327.624312,164.059763 326.612638,164.769291 325.486813,165.244394 C322.966322,166.251869 320.154991,166.251869 317.6345,165.244394 C316.509019,164.768668 315.497469,164.059227 314.666858,163.163067 C313.842097,162.261923 313.205583,161.205161 312.794649,160.054761 C312.354956,158.823073 312.135836,157.523516 312.147348,156.21575 L312.147348,140.847268 L313.954822,140.847268 L313.954822,156.198326 C313.946322,157.300079 314.121328,158.395557 314.472662,159.439825 C314.794717,160.398683 315.302285,161.284807 315.966446,162.047709 C316.627626,162.79381 317.443153,163.387199 318.356495,163.786741 C319.367601,164.222424 320.459839,164.437977 321.560656,164.419081 L321.560656,164.419088 Z M357.182354,164.208717 L357.1475,165.70125 L342.252019,165.70125 L342.252019,140.847268 L357.1475,140.847268 L357.1475,142.339801 L344.059488,142.339801 L344.059488,152.386705 L354.951641,152.386705 L354.951641,153.845626 L344.059488,153.845626 L344.059488,164.208717 L357.182354,164.208717 Z M405.219849,140.847268 L405.219849,165.701244 L403.656357,165.701244 L403.656357,144.518226 C403.658204,144.195513 403.676486,143.873103 403.711131,143.55225 L393.926868,160.923646 C393.80416,161.201694 393.528707,161.380928 393.224786,161.380483 L392.94346,161.380483 C392.639154,161.382241 392.363045,161.202579 392.241385,160.923646 L382.195702,143.51739 C382.230562,143.86843 382.245502,144.20204 382.245502,144.518219 L382.245502,165.701244 L380.667077,165.701244 L380.667077,140.847268 L381.911892,140.847268 C382.043383,140.842508 382.174724,140.860189 382.300276,140.899552 C382.421338,140.960515 382.519228,141.059279 382.579113,141.180878 L392.609856,158.465137 C392.790011,158.803248 392.94238,159.155446 393.065458,159.518251 C393.135178,159.331532 393.212349,159.147297 393.294507,158.965559 C393.376665,158.78382 393.463829,158.610787 393.558404,158.446465 L403.30782,141.180885 C403.369654,141.057261 403.471414,140.958133 403.596616,140.899559 C403.724828,140.860645 403.858546,140.842984 403.992464,140.847275 L405.219849,140.847268 Z M435.712899,165.701244 L434.326172,165.701244 C434.180185,165.707588 434.036861,165.660697 433.922854,165.569292 C433.813668,165.477309 433.728985,165.359694 433.676381,165.22697 L430.761016,158.008288 L418.554348,158.008288 L415.636493,165.22697 C415.588107,165.358879 415.503552,165.474495 415.39251,165.56058 C415.272136,165.655361 415.122433,165.705115 414.969272,165.701244 L413.599975,165.701244 L423.770133,140.847268 L425.545244,140.847268 L435.712899,165.701244 Z M430.215787,156.672599 L425.156846,144.11366 C424.957806,143.632709 424.788198,143.140099 424.64896,142.638557 C424.57924,142.919884 424.502075,143.186276 424.419918,143.437729 C424.344285,143.673763 424.256193,143.905623 424.156015,144.132332 L419.097074,156.672599 L430.215787,156.672599 Z M463.27316,140.847268 L463.27316,165.701244 L462.429174,165.701244 C462.299358,165.705954 462.170343,165.679039 462.053239,165.622818 C461.936857,165.555036 461.837284,165.461847 461.761952,165.350203 L445.62165,143.78005 C445.656504,144.132332 445.671451,144.465969 445.671451,144.782129 L445.671451,165.701244 L444.093025,165.701244 L444.093025,140.847268 L444.989296,140.847268 C445.117499,140.841001 445.245586,140.861783 445.36523,140.908264 C445.481752,140.975857 445.581363,141.069083 445.656517,141.180878 L461.761966,162.697506 C461.72711,162.346468 461.709682,162.012858 461.709682,161.696676 L461.709682,140.847268 L463.27316,140.847268 Z M493.76621,165.701244 L492.377007,165.701244 C492.231019,165.707588 492.087696,165.660697 491.973689,165.569292 C491.864502,165.477309 491.779819,165.359694 491.727216,165.22697 L488.811851,158.008288 L476.602679,158.008288 L473.689804,165.22697 C473.639482,165.359177 473.55326,165.474715 473.440841,165.56058 C473.321803,165.65605 473.172614,165.705926 473.020093,165.701244 L471.650797,165.701244 L481.820954,140.847268 L483.593575,140.847268 L493.76621,165.701244 Z M488.266601,156.672599 L483.207661,144.11366 C483.006595,143.633216 482.836129,143.14053 482.697285,142.638557 C482.627564,142.919884 482.55289,143.186276 482.470732,143.437729 C482.388575,143.690423 482.298947,143.920713 482.206829,144.132332 L477.147889,156.672599 L488.266601,156.672599 Z M521.445966,154.424467 L521.445966,163.260164 C518.914893,165.091401 515.855638,166.047203 512.732242,165.98259 C510.923928,166.010394 509.126062,165.703576 507.429319,165.077609 C505.925096,164.516622 504.557165,163.642567 503.416058,162.51329 C502.288754,161.373474 501.419358,160.004871 500.866668,158.500037 C500.257582,156.823054 499.957297,155.04961 499.980357,153.265591 C499.956905,151.485659 500.252011,149.715882 500.851734,148.039862 C501.919404,145.01189 504.267625,142.608573 507.270031,141.470976 C508.925449,140.845654 510.684077,140.538612 512.453452,140.565995 C513.33186,140.561065 514.209283,140.625579 515.077524,140.758935 C515.840714,140.87854 516.590925,141.069844 517.318197,141.330306 C517.992512,141.573362 518.63993,141.88539 519.250153,142.261429 C519.858166,142.638261 520.43436,143.06416 520.97298,143.534873 L520.480035,144.307909 C520.414667,144.438284 520.296319,144.534195 520.15523,144.571134 C520.01414,144.608074 519.863976,144.582464 519.743106,144.500849 C519.470976,144.369737 519.216648,144.20451 518.986257,144.009152 C518.564644,143.694039 518.111616,143.423307 517.634384,143.201263 C516.949331,142.88088 516.234765,142.627824 515.500762,142.445664 C514.484904,142.204299 513.442628,142.092208 512.398678,142.112054 C510.902375,142.090748 509.415576,142.353047 508.016893,142.885083 C506.756555,143.370333 505.617826,144.125802 504.680786,145.098362 C503.731537,146.105722 503.006859,147.30305 502.554635,148.611233 C502.037811,150.107678 501.785085,151.682581 501.807746,153.265597 C501.78426,154.86575 502.036926,156.457967 502.554635,157.972239 C503.010091,159.297468 503.747348,160.508247 504.71564,161.521205 C505.681375,162.509053 506.853829,163.27085 508.148844,163.751914 C509.604819,164.286267 511.146651,164.548301 512.697409,164.524943 C513.382095,164.528401 514.066105,164.481386 514.74388,164.38428 C515.350134,164.2956 515.949202,164.163308 516.536421,163.988433 C517.101983,163.820137 517.65381,163.608729 518.187051,163.356067 C518.71983,163.104614 519.260087,162.820792 519.81278,162.504612 L519.81278,155.812433 L515.052597,155.812433 C514.93256,155.816377 514.815961,155.771981 514.728946,155.6892 C514.64514,155.619601 514.596011,155.516795 514.594505,155.407867 L514.594505,154.424474 L521.445966,154.424467 Z M546.598769,164.208717 L546.563915,165.70125 L531.668428,165.70125 L531.668428,140.847268 L546.563915,140.847268 L546.563915,142.339801 L533.475903,142.339801 L533.475903,152.386705 L544.368056,152.386705 L544.368056,153.845626 L533.475903,153.845626 L533.475903,164.208717 L546.598769,164.208717 Z M580.84868,140.847275 L580.84868,165.70125 L579.285188,165.70125 L579.285188,144.518226 C579.287035,144.195513 579.305316,143.873103 579.339962,143.55225 L569.555725,160.923646 C569.433021,161.201694 569.15757,161.380929 568.85365,161.380483 L568.569834,161.380483 C568.265915,161.380929 567.990463,161.201694 567.867759,160.923646 L557.822076,143.51739 C557.856932,143.868427 557.87436,144.202037 557.87436,144.518219 L557.87436,165.70125 L556.293444,165.70125 L556.293444,140.847268 L557.540749,140.847268 C557.671435,140.84228 557.801997,140.859969 557.926644,140.899552 C558.04799,140.96097 558.146552,141.059532 558.20797,141.180878 L568.236223,158.465137 C568.417216,158.803177 568.570418,159.155375 568.694315,159.518251 C568.764036,159.331532 568.83871,159.147297 568.923358,158.965559 C569.001787,158.787854 569.089866,158.614567 569.187201,158.446472 L578.934167,141.180878 C578.996854,141.057005 579.099481,140.95789 579.225461,140.899552 C579.352813,140.860615 579.485716,140.84295 579.618819,140.847268 L580.84868,140.847275 Z M607.373249,164.208717 L607.338395,165.70125 L592.440418,165.70125 L592.440418,140.847268 L607.338415,140.847268 L607.338415,142.339801 L594.250383,142.339801 L594.250383,152.386705 L605.142543,152.386705 L605.142543,153.845626 L594.250383,153.845626 L594.250383,164.208717 L607.373249,164.208717 Z M636.24804,140.847275 L636.24804,165.70125 L635.404053,165.70125 C635.274237,165.705963 635.145222,165.679049 635.028118,165.622824 C634.911736,165.555043 634.812164,165.461853 634.736832,165.35021 L618.596529,143.78005 C618.631383,144.132332 618.64633,144.465969 618.64633,144.782129 L618.64633,165.701244 L617.067905,165.701244 L617.067905,140.847268 L617.964175,140.847268 C618.092378,140.841001 618.220465,140.861783 618.34011,140.908264 C618.456632,140.975857 618.556243,141.069083 618.631396,141.180878 L634.736845,162.697506 C634.701989,162.346468 634.684561,162.012858 634.684561,161.696676 L634.684561,140.847268 L636.24804,140.847275 Z M664,142.374662 L655.268853,142.374662 L655.268853,165.70125 L653.461378,165.70125 L653.461378,142.374655 L644.677947,142.374655 L644.677947,140.847268 L664,140.847268 L664,142.374662 Z" id="Shape" fill="#53565A" fill-rule="nonzero"></path>
            <path d="M97.8398794,82.6381217 L117.165506,93.8059292 L105.036793,114.832332 L85.7113195,103.664525 L85.7113195,126 L61.4541929,126 L61.4541929,103.664525 L42.1285467,114.832332 L30,93.8059292 L49.3256262,82.6381217 L30,71.4703009 L42.1285467,50.4439047 L61.4541929,61.6117122 L61.4541929,39.2762435 L85.7113195,39.2762435 L85.7113195,61.6117122 L105.036793,50.4439047 L117.165506,71.4703009 L97.8398794,82.6381217 Z M469.239376,0 L373.228864,0 L373.228864,22.2402985 L407.220439,22.2402985 L407.220439,120.91142 L435.247794,120.91142 L435.247794,22.2402852 L469.239376,22.2402852 L469.239376,0 Z M517.989538,76.3473248 C518.617316,76.4083817 519.235731,76.1611625 519.648753,75.6840331 C520.055211,74.9209551 520.228487,74.0550838 520.147016,73.1941851 C520.23967,67.9384455 519.38215,62.7092405 517.615834,57.7589018 C516.099367,53.5525268 513.74477,49.6984349 510.694949,46.430542 C507.784232,43.3745334 504.249226,40.9828356 500.331054,39.4185864 C496.214773,37.7891404 491.822449,36.9720286 487.396116,37.0122767 C482.001952,36.919583 476.64884,37.9659445 471.685853,40.0831285 C467.212029,42.0249046 463.220261,44.928862 459.994067,48.5887441 C456.72243,52.3728567 454.241265,56.7745846 452.697,61.5341528 C450.966654,66.8229964 450.112475,72.3595678 450.168309,77.9244833 C450.067755,84.265733 450.976847,90.5825479 452.861427,96.6375852 C454.452919,101.717462 457.063064,106.418972 460.532205,110.454536 C463.808078,114.18928 467.891974,117.126849 472.473102,119.04369 C477.362607,121.056005 482.608107,122.058137 487.894379,121.989863 C490.997721,121.989005 494.093489,121.683321 497.137175,121.077207 C500.075855,120.505823 502.961087,119.687107 505.762126,118.629783 C508.320536,117.667817 510.76652,116.429498 513.056715,114.93678 C515.044042,113.672278 516.821144,112.103912 518.323367,110.288743 L516.165876,107.633076 C515.793073,107.088329 515.165702,106.774829 514.506653,106.803957 C513.953586,106.803957 513.069997,107.260285 511.855888,108.172939 C510.284148,109.308904 508.635964,110.334956 506.923079,111.243784 C504.478348,112.528133 501.907832,113.556772 499.252301,114.313385 C495.74396,115.288827 492.112929,115.750362 488.472357,115.68361 C484.152171,115.746602 479.864503,114.927416 475.871255,113.27609 C472.136316,111.691278 468.837777,109.229222 466.254787,106.098281 C463.437891,102.607649 461.350379,98.586132 460.116168,94.2724561 C458.597837,88.959061 457.872507,83.4502162 457.963693,77.9245165 L457.963693,76.3473248 L517.989538,76.3473248 Z M458.377218,71.2853475 C458.800275,67.2608037 459.805656,63.3191992 461.361819,59.5842011 C462.754317,56.2484961 464.766325,53.2074337 467.291161,50.6222607 C469.770447,48.1181979 472.750377,46.1667361 476.035695,44.8957413 C479.690826,43.5175781 483.572932,42.842054 487.478309,42.9046157 C491.014048,42.8622345 494.522812,43.5251146 497.799851,44.854574 C500.867857,46.115672 503.626673,48.026725 505.886679,50.4563812 C508.23775,53.0340072 510.029345,56.0715345 511.148348,59.377181 C512.445541,63.2107448 513.077499,67.2382836 513.016841,71.2853475 L458.377218,71.2853475 Z M590.038526,46.5552276 C586.878787,43.5815988 583.197029,41.2182774 579.17886,39.584406 C574.640534,37.7972075 569.794684,36.9231629 564.918543,37.0122767 C559.465333,36.9085545 554.052673,37.9694568 549.041342,40.1242691 C544.523768,42.1253455 540.513506,45.1174559 537.307237,48.8792427 C534.002001,52.8273278 531.521547,57.3988859 530.012648,62.323407 C528.296905,67.913588 527.458149,73.7363818 527.52631,79.5839962 C527.433478,85.660332 528.314975,91.7122405 530.137214,97.5091275 C531.669243,102.3862 534.148166,106.912562 537.431803,110.8286 C540.490883,114.404403 544.318366,117.241388 548.627797,119.127228 C553.170145,121.077315 558.070521,122.052506 563.01268,121.98987 C566.004879,121.999881 568.990462,121.707901 571.924132,121.118361 C574.64119,120.577426 577.295219,119.757273 579.844041,118.670937 C582.163546,117.684186 584.360671,116.431072 586.391235,114.936793 C588.202364,113.619059 589.820744,112.054602 591.199479,110.288756 L589.126705,107.633089 C588.739246,107.106798 588.123101,106.798445 587.469975,106.803971 C586.80729,106.803971 585.97768,107.274011 584.981145,108.214093 C583.712902,109.363457 582.340018,110.391553 580.880435,111.284944 C578.791015,112.554326 576.565558,113.584418 574.246044,114.355789 C571.016481,115.377914 567.639375,115.854476 564.253361,115.765911 C560.202277,115.82058 556.187092,114.999804 552.481841,113.359602 C548.959882,111.767613 545.863715,109.364986 543.445823,106.347646 C540.805936,102.983023 538.847674,99.1349391 537.680908,95.0192928 C536.253541,90.0012764 535.569447,84.8008017 535.65048,79.5840029 C535.586654,74.4827874 536.242519,69.3980882 537.598668,64.4803655 C538.736928,60.3165415 540.696208,56.4228228 543.361092,53.028577 C545.858509,49.9096905 549.053669,47.4223063 552.688593,45.7672569 C559.473683,42.9723966 566.986144,42.4767169 574.079073,44.3558915 C576.15952,44.9693578 578.173406,45.7896789 580.090628,46.8045921 C581.425434,47.5168983 582.700938,48.3353365 583.904844,49.2520159 C584.51747,49.8473225 585.2988,50.2387749 586.142071,50.3728828 C586.510318,50.3952238 586.875365,50.292899 587.178457,50.0823776 C587.456137,49.864785 587.71913,49.6290426 587.965713,49.3766949 L590.038526,46.5552276 Z M607.036806,0.16580631 L599.077036,0.16580631 L599.077036,120.911434 L607.036806,120.911434 L607.036806,58.8373711 C610.390928,54.2356363 614.634576,50.3553063 619.515833,47.4267299 C624.068157,44.7203585 629.268646,43.3005583 634.563406,43.3185496 C641.803184,43.3185496 647.192741,45.5178924 650.732077,49.9165779 C654.267264,54.3152547 656.036101,60.3871313 656.038591,68.1322078 L656.038591,120.911434 L663.995869,120.911434 L663.995869,68.1322078 C664.055487,63.754534 663.46953,59.3920057 662.256925,55.1855222 C661.221779,51.6071001 659.472513,48.2758938 657.114838,45.3932134 C654.80291,42.6511728 651.857788,40.5147967 648.534705,39.1692285 C644.721779,37.6652827 640.648984,36.9321909 636.551455,37.0122767 C630.79733,36.9301601 625.122426,38.3609198 620.093791,41.1615911 C615.089445,44.0247911 610.661617,47.7957953 607.036779,52.281727 L607.036806,0.16580631 Z" id="Shape" fill="#FF9E1B" fill-rule="nonzero"></path>
            <text id="Powered-by-MP-Cloud" font-family="Muli-Regular, Muli" font-size="28" font-weight="normal" letter-spacing="0.933333333">
                <tspan x="177" y="207.666794" fill="#6C7075">Powered by </tspan>
                <tspan x="348.294667" y="207.666794" fill="#53565A">MP Cloud</tspan>
            </text>
            <line x1="348" y1="216.5" x2="478.2349" y2="216.5" id="Path-3" stroke="#FFC97F" stroke-width="2"></line>
        </g>
    </g>
</svg>