<?xml version="1.0" encoding="UTF-8"?>
<svg width="42px" height="40px" viewBox="0 0 42 40" version="1.1" xmlns="http://www.w3.org/2000/svg" xmlns:xlink="http://www.w3.org/1999/xlink">
    <title>02_UI Design Comps/Horizontal Rule/MPC/Horizontal Rule Decor - Right</title>
    <g id="02_UI-Design-Comps/Horizontal-Rule/MPC/Horizontal-Rule-Decor---Right" stroke="none" stroke-width="1" fill="none" fill-rule="evenodd">
        <path d="M7.40688246,19 C8.25210296,19 8.99252415,19.9559106 9.19609983,20.7644296 L11.2194091,28.7391337 L15.1973661,1.55845351 C15.3258557,0.690351122 16.0658754,0.0376959668 16.9564688,0.000604319463 C17.8771769,-0.0214928321 18.6400838,0.564476277 18.8360304,1.41758416 L23.372917,21.2391237 L25.8716378,10.3341794 C26.0523262,9.54815217 26.739344,8.96928572 27.5548512,8.92509141 C28.3775861,8.86550802 29.1320608,9.35519668 29.4115256,10.1116295 L32.2499407,19.4070331 L40.1922027,19.3876981 C40.9490866,19.3857251 41.631286,19.8359546 41.9163722,20.5249122 C41.9512762,20.6092491 41.9792865,20.6941403 42.0007419,20.7790909 L42.0009841,21.6468004 C41.8057482,22.4200066 41.1003422,23.035555 40.1978241,23.0360957 L30.9517944,23.0420145 C30.174031,23.0420145 29.4793842,22.5598231 29.215579,21.8400873 L28.0904922,17.1886369 L25.1765895,29.9114665 C24.9878704,30.7345854 24.2410247,31.3280518 23.372917,31.3280518 C22.5124384,31.3280518 21.7575621,30.7345854 21.5688431,29.9114665 L17.4318802,11.8403371 L13.5366384,38.4421508 C13.4081488,39.3027559 12.6837888,39.9558057 11.8004229,40 L11.7024496,40 C10.8568276,40 10.1172095,39.4365226 9.91323228,38.6201118 L5.96579155,23 L2.63552592,23 L3.80140364e-13,23.001 L3.80140364e-13,19 L7.40688246,19 Z" id="Combined-Shape-Copy" fill="#AAE7F3"></path>
    </g>
</svg>