<?xml version="1.0" encoding="UTF-8"?>
<svg width="1106px" height="508px" viewBox="0 0 1106 508" version="1.1" xmlns="http://www.w3.org/2000/svg" xmlns:xlink="http://www.w3.org/1999/xlink">
    <title>manual-versus-mpcloud-techonlgies-process</title>
    <defs>
        <rect id="path-1" x="9.58378378" y="217" width="111" height="46" rx="16"></rect>
        <filter x="-25.2%" y="-104.3%" width="150.5%" height="239.1%" filterUnits="objectBoundingBox" id="filter-2">
            <feMorphology radius="11" operator="erode" in="SourceAlpha" result="shadowSpreadOuter1"></feMorphology>
            <feOffset dx="0" dy="-20" in="shadowSpreadOuter1" result="shadowOffsetOuter1"></feOffset>
            <feGaussianBlur stdDeviation="17" in="shadowOffsetOuter1" result="shadowBlurOuter1"></feGaussianBlur>
            <feColorMatrix values="0 0 0 0 0.101960784   0 0 0 0 0.631372549   0 0 0 0 0.741176471  0 0 0 0.305042614 0" type="matrix" in="shadowBlurOuter1"></feColorMatrix>
        </filter>
        <rect id="path-3" x="9.58378378" y="217" width="111" height="35" rx="16"></rect>
        <filter x="-45.0%" y="-200.0%" width="159.5%" height="345.7%" filterUnits="objectBoundingBox" id="filter-4">
            <feMorphology radius="11" operator="erode" in="SourceAlpha" result="shadowSpreadOuter1"></feMorphology>
            <feOffset dx="0" dy="-20" in="shadowSpreadOuter1" result="shadowOffsetOuter1"></feOffset>
            <feGaussianBlur stdDeviation="17" in="shadowOffsetOuter1" result="shadowBlurOuter1"></feGaussianBlur>
            <feColorMatrix values="0 0 0 0 0.101960784   0 0 0 0 0.631372549   0 0 0 0 0.741176471  0 0 0 0.305042614 0" type="matrix" in="shadowBlurOuter1"></feColorMatrix>
        </filter>
        <linearGradient x1="0%" y1="50.000117%" x2="100.000051%" y2="50.000117%" id="linearGradient-5">
            <stop stop-color="#00AAD6" offset="0%"></stop>
            <stop stop-color="#1C1C4B" offset="100%"></stop>
        </linearGradient>
        <rect id="path-6" x="9.58378378" y="217" width="111" height="46" rx="16"></rect>
        <filter x="-25.2%" y="-104.3%" width="150.5%" height="239.1%" filterUnits="objectBoundingBox" id="filter-7">
            <feMorphology radius="11" operator="erode" in="SourceAlpha" result="shadowSpreadOuter1"></feMorphology>
            <feOffset dx="0" dy="-20" in="shadowSpreadOuter1" result="shadowOffsetOuter1"></feOffset>
            <feGaussianBlur stdDeviation="17" in="shadowOffsetOuter1" result="shadowBlurOuter1"></feGaussianBlur>
            <feColorMatrix values="0 0 0 0 0.101960784   0 0 0 0 0.631372549   0 0 0 0 0.741176471  0 0 0 0.305042614 0" type="matrix" in="shadowBlurOuter1"></feColorMatrix>
        </filter>
        <rect id="path-8" x="9.58378378" y="217" width="111" height="35" rx="16"></rect>
        <filter x="-45.0%" y="-200.0%" width="159.5%" height="345.7%" filterUnits="objectBoundingBox" id="filter-9">
            <feMorphology radius="11" operator="erode" in="SourceAlpha" result="shadowSpreadOuter1"></feMorphology>
            <feOffset dx="0" dy="-20" in="shadowSpreadOuter1" result="shadowOffsetOuter1"></feOffset>
            <feGaussianBlur stdDeviation="17" in="shadowOffsetOuter1" result="shadowBlurOuter1"></feGaussianBlur>
            <feColorMatrix values="0 0 0 0 0.101960784   0 0 0 0 0.631372549   0 0 0 0 0.741176471  0 0 0 0.305042614 0" type="matrix" in="shadowBlurOuter1"></feColorMatrix>
        </filter>
    </defs>
    <g id="UI-Comps---Desktop" stroke="none" stroke-width="1" fill="none" fill-rule="evenodd">
        <g id="03_Ready-To-Print-Materials/1440w---MPC---Homepage" transform="translate(-134.000000, -2774.000000)">
            <g id="Group" transform="translate(135.000000, 2776.000000)">
                <g id="manual-versus-mpcloud-techonlgies-process" transform="translate(0.000000, 0.000000)">
                    <line x1="585" y1="-2.27240102e-13" x2="585" y2="509" id="Line" stroke="#AAE7F3" stroke-width="3" stroke-linecap="round" stroke-dasharray="8"></line>
                    <line x1="766.5" y1="49" x2="403.5" y2="49" id="Line" stroke="#AAE7F3" stroke-width="3" stroke-linecap="round" stroke-dasharray="8"></line>
                    <g id="Versus" transform="translate(556.000000, 18.000000)">
                        <circle id="Oval" stroke="#FFFFFF" stroke-width="4" fill="#EE2737" cx="29.5" cy="29.5" r="31.5"></circle>
                        <text id="VS" font-family="Mulish-Regular_Black, Mulish" font-size="24" font-weight="700" letter-spacing="0.8" fill="#FFFFFF">
                            <tspan x="11.316" y="39">VS</tspan>
                        </text>
                    </g>
                    <g id="Group-8" transform="translate(0.000000, 32.000000)">
                        <text id="Manual-Process" font-family="Mulish-Regular_Bold, Mulish" font-size="25" font-weight="bold" letter-spacing="0.625" fill="#141B4D">
                            <tspan x="154.330486" y="25">Manual Process</tspan>
                        </text>
                        <g id="Group-6" transform="translate(0.000000, 82.000000)">
                            <path d="M11,124 L121,124 C127.075132,124 132,128.924868 132,135 L132,345 C132,351.075132 127.075132,356 121,356 L11,356 C4.92486775,356 2.52034597e-15,351.075132 0,345 L0,135 C1.03236771e-15,128.924868 4.92486775,124 11,124 Z" id="Bg-Copy-5" stroke="#2CC3E2" stroke-dasharray="3"></path>
                            <rect id="Rectangle" fill="#FFFFFF" x="121" y="157" width="23" height="24"></rect>
                            <rect id="Rectangle" fill="#FFFFFF" x="121" y="233" width="23" height="24"></rect>
                            <g id="Group-2" transform="translate(199.000000, 0.000000)">
                                <rect id="Bg" stroke="#F14855" stroke-width="2" fill="#FFFFFF" x="0" y="0" width="108.583784" height="72" rx="11"></rect>
                                <text id="Client" font-family="Mulish-Regular_Black, Mulish" font-size="24" font-weight="700" letter-spacing="0.8" fill="#141B4D">
                                    <tspan x="20.328" y="44">Client</tspan>
                                </text>
                            </g>
                            <rect id="Bg-Copy" stroke="#AAE7F3" stroke-width="2" fill="#E0F6FB" x="11" y="135" width="108.583784" height="72" rx="11"></rect>
                            <g id="Group" transform="translate(328.000000, 217.000000)">
                                <path d="M11,0 L97.5837838,0 C103.658916,6.6037315e-16 108.583784,4.92486775 108.583784,11 L108.583784,37 C108.583784,43.0751322 103.658916,48 97.5837838,48 L11,48 C4.92486775,48 2.52034597e-15,43.0751322 0,37 L0,11 C1.03236771e-15,4.92486775 4.92486775,-6.6037315e-16 11,0 Z" id="Bg-Copy-6" stroke="#F14855" stroke-dasharray="4"></path>
                                <text id="Clearing-House" font-family="Mulish-Regular, Mulish" font-size="16" font-weight="normal" letter-spacing="0.533333333" fill="#141B4D">
                                    <tspan x="21.0266667" y="20">Clearing </tspan>
                                    <tspan x="29.0266667" y="40">House</tspan>
                                </text>
                            </g>
                            <g id="Group-4" transform="translate(253.000000, 111.000000)">
                                <rect id="Bg-Copy-7" stroke="#F14855" stroke-width="2" fill="#FDE7E9" x="0" y="0" width="122" height="72" rx="11"></rect>
                                <text id="Manually-Batch/Uploa" font-family="Mulish-Regular, Mulish" font-size="16" font-weight="normal" letter-spacing="0.533333333" fill="#141B4D">
                                    <tspan x="25.1226667" y="22">Manually</tspan>
                                    <tspan x="7.104" y="42">Batch/Upload</tspan>
                                    <tspan x="34.32" y="62">Claims</tspan>
                                </text>
                            </g>
                            <g id="Group-4-Copy" transform="translate(205.000000, 285.000000)">
                                <rect id="Bg-Copy-7" stroke="#F14855" stroke-width="2" fill="#FDE7E9" x="0" y="0" width="108.583784" height="72" rx="11"></rect>
                                <text id="Eligibility-Server" font-family="Mulish-Regular, Mulish" font-size="16" font-weight="normal" letter-spacing="0.533333333" fill="#141B4D">
                                    <tspan x="20.2106667" y="32">Eligibility</tspan>
                                    <tspan x="30.48" y="52">Server</tspan>
                                </text>
                            </g>
                            <g id="Group-3" transform="translate(396.000000, 111.000000)">
                                <rect id="Bg-Copy-8" stroke="#F14855" stroke-width="2" fill="#FDE7E9" x="0" y="0" width="108.583784" height="72" rx="11"></rect>
                                <text id="Manually-Retrieve-ER" font-family="Mulish-Regular, Mulish" font-size="16" font-weight="normal" letter-spacing="0.533333333" fill="#141B4D">
                                    <tspan x="20.1226667" y="22">Manually</tspan>
                                    <tspan x="23.5386667" y="42">Retrieve</tspan>
                                    <tspan x="15.0906667" y="62">ERA/ERNs</tspan>
                                </text>
                            </g>
                            <g id="Group-3-Copy" transform="translate(396.000000, 285.000000)">
                                <rect id="Bg-Copy-8" stroke="#F14855" stroke-width="2" fill="#FDE7E9" x="0" y="0" width="108.583784" height="72" rx="11"></rect>
                                <text id="Third-Party-Service" font-family="Mulish-Regular, Mulish" font-size="16" font-weight="normal" letter-spacing="0.533333333" fill="#141B4D">
                                    <tspan x="10.4266667" y="32">Third-Party</tspan>
                                    <tspan x="27.1973333" y="52">Service</tspan>
                                </text>
                            </g>
                            <rect id="Bg-Copy-4" stroke="#AAE7F3" stroke-width="2" fill="#E0F6FB" x="11" y="273" width="108.583784" height="72" rx="11"></rect>
                            <g id="Bg-Copy-3">
                                <use fill="black" fill-opacity="1" filter="url(#filter-2)" xlink:href="#path-1"></use>
                                <use fill="#E0F6FB" fill-rule="evenodd" xlink:href="#path-1"></use>
                            </g>
                            <g id="Bg-Copy-3">
                                <use fill="black" fill-opacity="1" filter="url(#filter-4)" xlink:href="#path-3"></use>
                                <use fill="#FFFFFF" fill-rule="evenodd" xlink:href="#path-3"></use>
                            </g>
                            <rect id="Bg-Copy-2" stroke="#AAE7F3" stroke-width="2" fill="#E0F6FB" x="11" y="217" width="108.583784" height="32" rx="16"></rect>
                            <text id="App-Multiple-Ver" font-family="Mulish-Regular, Mulish" font-size="16" font-weight="normal" letter-spacing="0.533333333" fill="#141B4D">
                                <tspan x="48.728" y="169">App</tspan>
                                <tspan x="18.272" y="189">Multiple Ver</tspan>
                            </text>
                            <text id="Database" font-family="Mulish-Regular, Mulish" font-size="16" font-weight="normal" letter-spacing="0.533333333" fill="#141B4D">
                                <tspan x="28.5786667" y="238">Database</tspan>
                            </text>
                            <text id="Custom-Reports-Multi" font-family="Mulish-Regular, Mulish" font-size="16" font-weight="normal" line-spacing="20" letter-spacing="0.533333333" fill="#141B4D">
                                <tspan x="35.556" y="294">Custom</tspan>
                                <tspan x="34.3773333" y="314">Reports</tspan>
                                <tspan x="18.772" y="334">Multiple Ver</tspan>
                            </text>
                            <path id="Line-2" d="M65.0061537,34.993884 L67.006116,35.0061537 L66.9999812,36.0061349 L66.585,103.506 L72.5857562,103.543207 L65.5,117.5 L58.5860197,103.457319 L64.585,103.494 L65.0000188,35.9938651 L65.0061537,34.993884 Z" fill="#F25E6A" fill-rule="nonzero"></path>
                            <path id="Line-2-Copy-3" d="M142,238 L142,244 L161,244 L161,246 L142,246 L142,252 L128,245 L142,238 Z" fill="#F25E6A" fill-rule="nonzero"></path>
                            <line x1="198" y1="283" x2="122.5" y2="283.5" id="Line-Copy" stroke="#F25E6A" stroke-width="2" stroke-linecap="square" transform="translate(160.000000, 283.000000) scale(-1, 1) rotate(-270.000000) translate(-160.000000, -283.000000) "></line>
                            <g id="Group-5" transform="translate(277.000000, 189.000000)">
                                <g id="Line-2-Copy-2" transform="translate(1.000000, 52.000000)" fill="#F25E6A" fill-rule="nonzero">
                                    <path id="Line-2-Copy" d="M29,-6 L43,1 L29,8 L29,2 L-1,2 L-1,0 L29,0 L29,-6 Z"></path>
                                </g>
                                <path id="Line-2-Copy" d="M30,46 L44,53 L30,60 L30,54 L0,54 L0,52 L30,52 L30,46 Z" fill="#F25E6A" fill-rule="nonzero"></path>
                                <line x1="1" y1="53" x2="0.5" y2="0.5" id="Line-Copy" stroke="#F25E6A" stroke-width="2" stroke-linecap="square"></line>
                            </g>
                            <path id="Line-2-Copy" d="M259,215 L273,222 L259,229 L258.999,223 L164,223 L164,221 L258.999,221 L259,215 Z" fill="#F25E6A" fill-rule="nonzero"></path>
                            <line x1="173" y1="214" x2="172.5" y2="122.5" id="Line-Copy" stroke="#F25E6A" stroke-width="2" stroke-linecap="square" transform="translate(173.000000, 168.000000) scale(-1, 1) rotate(-270.000000) translate(-173.000000, -168.000000) "></line>
                            <path id="Line-2-Copy" d="M471,28 L485,35 L471,42 L471,36 L313,36 L313,34 L471,34 L471,28 Z" fill="#F25E6A" fill-rule="nonzero"></path>
                            <path id="Line-2-Copy-4" d="M372,304 L386,311 L372,318 L372,312 L317,312 L317,310 L372,310 L372,304 Z" fill="#F25E6A" fill-rule="nonzero"></path>
                            <path id="Line-2-Copy-4" d="M375,324 L389,331 L375,338 L375,332 L320,332 L320,330 L375,330 L375,324 Z" fill="#F25E6A" fill-rule="nonzero"></path>
                            <line x1="486" y1="105" x2="486.5" y2="35.5" id="Line-Copy" stroke="#F25E6A" stroke-width="2" stroke-linecap="square" transform="translate(486.000000, 70.000000) rotate(-180.000000) translate(-486.000000, -70.000000) "></line>
                            <g id="Group-5" transform="translate(464.000000, 216.000000) scale(-1, 1) translate(-464.000000, -216.000000) translate(442.000000, 189.000000)">
                                <g id="Line-2-Copy-2" transform="translate(1.000000, 52.000000)" fill="#F25E6A" fill-rule="nonzero">
                                    <path id="Line-2-Copy" d="M29,-6 L43,1 L29,8 L29,2 L-1,2 L-1,0 L29,0 L29,-6 Z"></path>
                                </g>
                                <path id="Line-2-Copy" d="M30,46 L44,53 L30,60 L30,54 L0,54 L0,52 L30,52 L30,46 Z" fill="#F25E6A" fill-rule="nonzero"></path>
                                <line x1="1" y1="53" x2="0.5" y2="0.5" id="Line-Copy" stroke="#F25E6A" stroke-width="2" stroke-linecap="square"></line>
                            </g>
                            <line x1="190" y1="36" x2="66.5" y2="35.5" id="Line" stroke="#F25E6A" stroke-width="2" stroke-linecap="square"></line>
                            <line x1="180.5" y1="343.5" x2="180.5" y2="302.5" id="Line-Copy" stroke="#F25E6A" stroke-width="2" stroke-linecap="square" transform="translate(180.500000, 323.000000) scale(-1, 1) rotate(-270.000000) translate(-180.500000, -323.000000) "></line>
                        </g>
                    </g>
                    <g id="Group-9" transform="translate(665.000000, 24.000000)">
                        <g id="Group-11" transform="translate(0.000000, 0.000000)">
                            <g id="Brand/Logo---Current" transform="translate(128.000000, 0.000000)">
                                <path d="M31.4648619,26.3449546 L26.4258169,26.3278103 C25.7918327,26.3278103 25.2364565,26.7633367 25.0837582,27.3796306 L23.5661115,33.4583517 L20.5823198,12.7398685 C20.4859421,12.0781571 19.9308671,11.5806705 19.2628495,11.5523974 C18.5722435,11.5355538 18.0000012,11.982209 17.8530253,12.6324908 L14.4499908,27.7414664 L12.5757468,19.4291687 C12.4402157,18.8300191 11.9248965,18.388778 11.3131996,18.3550909 C10.6960815,18.3096734 10.130164,18.6829388 9.92054265,19.25953 L7.79150021,26.3449546 L1.83415696,26.3302165 C1.26643239,26.3287126 0.754727324,26.6719002 0.540889421,27.1970584 C0.168630763,28.1111224 0.841768385,29.1106073 1.82994044,29.1112089 L8.76521562,29.1157205 C9.34860156,29.1157205 9.86964321,28.74817 10.0675186,28.1995511 L10.9114253,24.6539814 L13.0970896,34.3519628 C13.2386443,34.9793854 13.7988394,35.4317554 14.4499908,35.4317554 C15.0954199,35.4317554 15.6616386,34.9793854 15.8031932,34.3519628 L18.9062523,20.5772379 L21.8280008,40.8544799 C21.9243785,41.5104765 22.4677075,42.0082639 23.1303038,42.041951 L23.2037917,42.041951 C23.8380771,42.041951 24.3928509,41.6124402 24.5458505,40.9901307 L27.5067525,29.1100058 L30.3324246,29.1100058 L31.4648619,26.3449546 Z" id="Pulse" fill="#E23C50"></path>
                                <path d="M17.8753427,0 C11.9143853,0 7.02231624,4.63769424 6.62144547,10.5088786 L6.62144547,10.5088786 C6.62114429,10.5154957 6.61993957,10.5221128 6.61933721,10.5287299 L6.61933721,10.5287299 C2.66695018,11.8238795 0,15.3634337 0,19.4970242 L0,19.4970242 C0,21.2216846 0.331298159,23.5033856 2.24981568,25.3778334 L2.24981568,25.3778334 L5.64291118,25.3778334 C3.70421459,23.4594721 2.77477267,21.6551055 2.77477267,19.4970242 L2.77477267,19.4970242 C2.77477267,16.3138918 5.04446624,13.6225313 8.29992242,12.9493904 L8.29992242,12.9493904 C8.77819649,12.8609617 9.1085911,12.840208 9.52241262,12.8200559 L9.52241262,12.8200559 C9.52241262,12.8200559 9.52000318,12.8089271 9.51849728,12.8014076 L9.51849728,12.8014076 C9.49952293,12.7099712 9.37754497,12.0834508 9.38055677,11.0490757 L9.38055677,11.0490757 C9.49410169,6.46311523 13.2561429,2.76505111 17.8753427,2.76505111 L17.8753427,2.76505111 C20.9109374,2.77076589 23.7363084,4.50114108 25.2482327,7.28303575 L25.2482327,7.28303575 L25.7292174,8.11799516 L25.7331327,8.12461228 C25.7331327,8.12461228 26.6273366,7.65479722 27.7673034,7.70743335 L27.7673034,7.70743335 C30.170721,7.70743335 32.1898326,9.40923463 32.7277404,11.8410238 L32.7277404,11.8410238 C32.8418877,12.2503826 32.8957989,12.7788493 32.8957989,12.7788493 L32.8957989,12.7788493 C32.8957989,12.7788493 32.9063402,12.7800524 32.9162791,12.780654 L32.9162791,12.780654 C33.0132592,12.7908804 33.5589976,12.8471259 33.8430105,12.9036721 L33.8430105,12.9036721 L33.8433116,12.9036721 C37.1611121,13.4862789 39.5732639,16.2570448 39.5732639,19.4970242 L39.5732639,19.4970242 C39.5732639,23.2744937 36.4982146,26.3451351 32.7159944,26.3451351 L32.7159944,26.3451351 L31.464892,26.3451351 L30.3324547,29.1098854 L32.7159944,29.1156002 C32.8921847,29.1156002 33.0674716,29.1098854 33.237036,29.1044714 L33.237036,29.1044714 C38.3104155,28.827455 42.3474342,24.6258887 42.3474342,19.4970242 L42.3474342,19.4970242 C42.3474342,15.2055253 39.3865322,11.4903168 35.1962128,10.3708215 L35.1962128,10.3708215 C35.1953093,10.3684153 35.1944058,10.3663099 35.1935022,10.3639036 L35.1935022,10.3639036 C34.0993148,7.12783436 31.1625072,4.93666746 27.7673034,4.93666746 L27.7673034,4.93666746 C27.5332864,4.93666746 27.3167379,4.96433902 27.121272,5.00825259 L27.121272,5.00825259 C27.1182602,5.00885415 27.1143448,5.00915493 27.1110319,5.01005726 L27.1110319,5.01005726 C25.0160228,1.89429913 21.5675101,0 17.8753427,0 Z" id="Cloud" fill="url(#linearGradient-5)"></path>
                                <g id="Text" transform="translate(52.925574, 2.000474)" fill="#1C1C4C">
                                    <path d="M18.0722844,17.7162085 C17.7452028,18.0347323 17.350958,18.1932423 16.8904536,18.1932423 C16.4302503,18.1932423 16.0408244,18.0347323 15.7227781,17.7162085 C15.4035272,17.3982863 15.2439017,17.0093805 15.2439017,16.5491903 L15.2439017,8.6988875 C14.3945737,10.3964779 13.6991487,11.7975013 13.1591327,12.9022585 C12.6191167,14.0076172 12.1992716,14.8561116 11.8977903,15.4489448 C11.5966102,16.0408757 11.3800616,16.4788083 11.24694,16.760938 C11.1141196,17.04397 11.0216573,17.2301515 10.9680472,17.3182794 C10.6668671,17.9020893 10.1979296,18.1932423 9.56063238,18.1932423 C8.90556557,18.1932423 8.43662808,17.8933667 8.15321757,17.2915102 L3.85146157,8.6988875 L3.85146157,16.5224211 C3.85146157,16.9826113 3.68761957,17.3760288 3.35933321,17.7029743 C3.03225157,18.0296191 2.63830795,18.1932423 2.17840587,18.1932423 C1.71760024,18.1932423 1.32817432,18.0296191 1.00982691,17.7029743 C0.690877133,17.3760288 0.531251656,16.9826113 0.531251656,16.5224211 L0.531251656,1.72354752 C0.531251656,1.26395891 0.690877133,0.875053106 1.00982691,0.556228546 C1.32817432,0.238607098 1.71760024,0.0791948176 2.17840587,0.0791948176 C2.53229254,0.0791948176 2.84160454,0.176947631 3.10724543,0.371250146 C3.37288632,0.566154216 3.57618292,0.813694417 3.71864112,1.11356997 L9.56063238,12.9687304 L15.3499171,1.11356997 C15.491773,0.813694417 15.6959731,0.566154216 15.961614,0.371250146 C16.2272549,0.176947631 16.5362657,0.0791948176 16.8904536,0.0791948176 C17.350958,0.0791948176 17.7452028,0.243118766 18.0722844,0.569763551 C18.4002696,0.89731067 18.5632081,1.29072815 18.5632081,1.75001598 L18.5632081,16.5491903 C18.5632081,17.0093805 18.4002696,17.3982863 18.0722844,17.7162085" id="Fill-6"></path>
                                    <path d="M33.4892141,5.02596841 C33.4000648,4.75165898 33.2591125,4.50863045 33.0639478,4.29598048 C32.8696866,4.08423285 32.6172976,3.90797701 32.3073833,3.76540829 C31.9968665,3.62464424 31.6297279,3.55335988 31.2053651,3.55335988 L25.8937521,3.55335988 L25.8937521,8.03555195 L31.2053651,8.03555195 C31.6297279,8.03555195 31.9968665,7.96968159 32.3073833,7.83703854 C32.6172976,7.70439549 32.8696866,7.53626065 33.0639478,7.33323558 C33.2591125,7.13021051 33.4000648,6.89530298 33.4892141,6.63001688 C33.5774599,6.36473078 33.6220346,6.09944469 33.6220346,5.83415859 C33.6220346,5.5688725 33.5774599,5.29997707 33.4892141,5.02596841 M36.8085205,7.9029089 C36.5606492,8.5571008 36.175741,9.13669979 35.6534947,9.64050275 C35.1309471,10.1443057 34.4623272,10.5467465 33.6488396,10.8469229 C32.8341473,11.1477007 31.8516977,11.2980897 30.7008884,11.2980897 L25.8937521,11.2980897 L25.8937521,16.4431962 C25.8937521,16.9379758 25.7211759,17.3539517 25.3760234,17.6896198 C25.0311721,18.0249871 24.6104235,18.193122 24.114681,18.193122 C23.6183361,18.193122 23.2030087,18.0249871 22.8659881,17.6896198 C22.529871,17.3539517 22.3615113,16.9379758 22.3615113,16.4431962 L22.3615113,2.06872023 C22.3615113,1.57363983 22.529871,1.15826556 22.8659881,0.821695109 C23.2030087,0.486026987 23.6183361,0.317892149 24.114681,0.317892149 L30.7008884,0.317892149 C31.8516977,0.317892149 32.8341473,0.47279276 33.6488396,0.782593984 C34.4623272,1.0911921 35.1309471,1.49814458 35.6534947,2.00194754 C36.175741,2.5057505 36.5606492,3.09437282 36.8085205,3.76540829 C37.0563918,4.43824842 37.1801768,5.12733056 37.1801768,5.83415859 C37.1801768,6.55963486 37.0563918,7.24961933 36.8085205,7.9029089" id="Fill-8"></path>
                                    <path d="M59.8992492,14.7056324 C59.8369049,14.8560214 59.7441414,15.0018987 59.6203564,15.143565 C58.7878945,16.1689169 57.7563525,16.9557518 56.5263328,17.5043707 C55.2954095,18.0517864 54.0340671,18.3257951 52.7417031,18.3257951 C51.4668075,18.3257951 50.2762424,18.0872782 49.1700078,17.6102445 C48.0628695,17.13291 47.1030084,16.4790189 46.2883161,15.647368 C45.4742262,14.8169203 44.831809,13.8439038 44.3628715,12.7304241 C43.893934,11.6157412 43.6596158,10.4228561 43.6596158,9.14996409 C43.6596158,7.87707208 43.893934,6.68779631 44.3628715,5.5821368 C44.831809,4.4776804 45.4742262,3.50977716 46.2883161,2.67842708 C47.1030084,1.84797934 48.0628695,1.1928851 49.1700078,0.715550593 C50.2762424,0.238516864 51.4668075,0 52.7417031,0 C53.2729849,0 53.8084832,0.0391011253 54.3488003,0.119108043 C54.8879128,0.198513405 55.4146769,0.326644785 55.9290926,0.50380296 C56.4417012,0.680961136 56.9284083,0.910755441 57.3892139,1.1928851 C57.849116,1.47591709 58.2653469,1.81248755 58.6379068,2.20139335 C59.0095631,2.57255327 59.19509,2.99634931 59.19509,3.47428537 C59.19509,3.9335732 59.0309469,4.31375645 58.7038652,4.61453434 C58.37588,4.915613 57.9909718,5.06509961 57.5488394,5.06509961 C57.247358,5.06509961 56.9515991,4.97246002 56.6591532,4.78718085 C56.3667073,4.60130011 56.0441434,4.39376337 55.6893532,4.16336751 C55.3354665,3.9335732 54.9192355,3.72633724 54.4412626,3.54015573 C53.9635909,3.35517733 53.3967699,3.2616354 52.7417031,3.2616354 C51.9092412,3.2616354 51.1523755,3.41653602 50.4714072,3.72633724 C49.7895353,4.03613846 49.2100647,4.45993451 48.7314895,4.99922926 C48.2535166,5.53852401 47.8818603,6.16624746 47.6162194,6.88179805 C47.3505785,7.59855175 47.2180592,8.35410581 47.2180592,9.14996409 C47.2180592,9.94492005 47.3505785,10.7016772 47.6162194,11.4172278 C47.8818603,12.1330792 48.2535166,12.7614042 48.7314895,13.3000974 C49.2100647,13.8393921 49.7895353,14.2686022 50.4714072,14.5862236 C51.1523755,14.9050482 51.9092412,15.0641597 52.7417031,15.0641597 C53.574165,15.0641597 54.2641687,14.9273057 54.8132201,14.6529963 C55.3622715,14.3789877 55.8266913,14.0791121 56.207383,13.7512642 C56.5877735,13.4246194 56.9335283,13.1238415 57.2431415,12.8495321 C57.5530559,12.5752227 57.8849564,12.4383687 58.2394454,12.4383687 C58.6996487,12.4383687 59.1068443,12.6197378 59.4607309,12.9821752 C59.8146176,13.3446125 59.9920127,13.7467525 59.9920127,14.1882945 C59.9920127,14.3834993 59.96069,14.5558451 59.8992492,14.7056324" id="Fill-10"></path>
                                    <path d="M64.2812095,17.7294428 C63.9709939,18.0383417 63.5948199,18.1932423 63.1526875,18.1932423 C62.7096515,18.1932423 62.329261,18.0383417 62.0109136,17.7294428 C61.6916626,17.4205439 61.5329407,17.04397 61.5329407,16.602428 L61.5329407,1.69768063 C61.5329407,1.25523636 61.6916626,0.875053106 62.0109136,0.556228546 C62.329261,0.238607098 62.7096515,0.0791948176 63.1526875,0.0791948176 C63.5948199,0.0791948176 63.9709939,0.238607098 64.2812095,0.556228546 C64.591425,0.875053106 64.7465328,1.25523636 64.7465328,1.69768063 L64.7465328,16.602428 C64.7465328,17.04397 64.591425,17.4205439 64.2812095,17.7294428" id="Fill-12"></path>
                                    <path d="M74.9301563,10.9794155 C74.7973359,10.5911113 74.6066888,10.2503299 74.3588176,9.95827459 C74.1109463,9.66712159 73.8097662,9.43762807 73.4558795,9.26919245 C73.1019928,9.10105761 72.6947973,9.01744136 72.234594,9.01744136 C71.7740896,9.01744136 71.3665929,9.10105761 71.0127062,9.26919245 C70.6588195,9.43762807 70.3576394,9.66712159 70.1097681,9.95827459 C69.8618969,10.2503299 69.6757675,10.5911113 69.5516813,10.9794155 C69.4278963,11.3692237 69.3664555,11.7839964 69.3664555,12.2264406 C69.3664555,12.6679826 69.4278963,13.0836576 69.5516813,13.4728642 C69.6757675,13.86177 69.8618969,14.201649 70.1097681,14.4937043 C70.3576394,14.7857597 70.6588195,15.0152532 71.0127062,15.1836888 C71.3665929,15.3518237 71.7740896,15.4354399 72.234594,15.4354399 C72.6947973,15.4354399 73.1019928,15.3518237 73.4558795,15.1836888 C73.8097662,15.0152532 74.1109463,14.7857597 74.3588176,14.4937043 C74.6066888,14.201649 74.7973359,13.86177 74.9301563,13.4728642 C75.0629768,13.0836576 75.1289352,12.6679826 75.1289352,12.2264406 C75.1289352,11.7839964 75.0629768,11.3692237 74.9301563,10.9794155 M77.8377494,14.5863439 C77.5197032,15.3295661 77.0854014,15.9750354 76.53635,16.5224512 C75.9872986,17.0707693 75.3412672,17.5041902 74.5976534,17.8221124 C73.8543408,18.140937 73.0664536,18.3000485 72.234594,18.3000485 C71.4021321,18.3000485 70.6142449,18.140937 69.8709323,17.8221124 C69.1273185,17.5041902 68.4803835,17.0707693 67.9322357,16.5224512 C67.3831843,15.9750354 66.949786,15.3295661 66.6308363,14.5863439 C66.3124889,13.8437233 66.1528634,13.0577907 66.1528634,12.2264406 C66.1528634,11.3950906 66.3124889,10.6082556 66.6308363,9.865635 C66.949786,9.12331517 67.3831843,8.47814661 67.9322357,7.92952774 C68.4803835,7.38211199 69.1273185,6.94869105 69.8709323,6.63016727 C70.6142449,6.31224504 71.4021321,6.15283276 72.234594,6.15283276 C73.0664536,6.15283276 73.8543408,6.31224504 74.5976534,6.63016727 C75.3412672,6.94869105 75.9872986,7.38211199 76.53635,7.92952774 C77.0854014,8.47814661 77.5197032,9.12331517 77.8377494,9.865635 C78.1570004,10.6082556 78.3157223,11.3950906 78.3157223,12.2264406 C78.3157223,13.0577907 78.1570004,13.8437233 77.8377494,14.5863439" id="Fill-14"></path>
                                    <path d="M90.479033,14.8783692 C90.1778529,15.5680529 89.7703562,16.1644954 89.2580487,16.6685992 C88.7436331,17.1721013 88.1418751,17.5703313 87.4521726,17.8620858 C86.7612653,18.1541411 86.0257834,18.3000184 85.2475339,18.3000184 C84.4677785,18.3000184 83.7332002,18.1541411 83.0434976,17.8620858 C82.3525904,17.5703313 81.7508325,17.1721013 81.2373203,16.6685992 C80.7232058,16.1644954 80.3211303,15.5680529 80.0286844,14.8783692 C79.7365397,14.1883847 79.5910696,13.4550882 79.5910696,12.6769758 L79.5910696,7.85039308 C79.5910696,7.40794881 79.7452739,7.03227723 80.0554894,6.722476 C80.3648014,6.41357711 80.7409754,6.2586765 81.1840114,6.2586765 C81.6261439,6.2586765 82.0077391,6.41357711 82.3257854,6.722476 C82.6450363,7.03227723 82.8046618,7.40794881 82.8046618,7.85039308 L82.8046618,12.9954996 C82.8046618,13.6677382 83.0254268,14.2419232 83.4675593,14.7189569 C83.9105953,15.196893 84.5033178,15.4357106 85.2475339,15.4357106 C85.9733781,15.4357106 86.5661006,15.196893 87.0269062,14.7189569 C87.4868083,14.2419232 87.7178135,13.6677382 87.7178135,12.9954996 L87.7178135,7.85039308 C87.7178135,7.40794881 87.8717165,7.03227723 88.1822333,6.722476 C88.4912441,6.41357711 88.8674181,6.2586765 89.3104541,6.2586765 C89.7525865,6.2586765 90.1341818,6.41357711 90.4525292,6.722476 C90.771479,7.03227723 90.9308033,7.40794881 90.9308033,7.85039308 L90.9308033,12.6769758 C90.9308033,13.4550882 90.7802132,14.1883847 90.479033,14.8783692" id="Fill-16"></path>
                                    <path d="M100.982841,10.9794155 C100.850021,10.5911113 100.659374,10.2503299 100.411502,9.95827459 C100.163631,9.66712159 99.862451,9.43762807 99.5085644,9.26919245 C99.1546777,9.10105761 98.7474821,9.01744136 98.2872789,9.01744136 C97.8267744,9.01744136 97.4192777,9.10105761 97.065391,9.26919245 C96.7115044,9.43762807 96.410023,9.66712159 96.162453,9.95827459 C95.9145817,10.2503299 95.7284524,10.5911113 95.6043661,10.9794155 C95.4805811,11.3692237 95.4188392,11.7839964 95.4188392,12.2264406 C95.4188392,12.6679826 95.4805811,13.0836576 95.6043661,13.4728642 C95.7284524,13.86177 95.9145817,14.201649 96.162453,14.4937043 C96.410023,14.7857597 96.7115044,15.0152532 97.065391,15.1836888 C97.4192777,15.3518237 97.8267744,15.4354399 98.2872789,15.4354399 C98.7474821,15.4354399 99.1546777,15.3518237 99.5085644,15.1836888 C99.862451,15.0152532 100.163631,14.7857597 100.411502,14.4937043 C100.659374,14.201649 100.850021,13.86177 100.982841,13.4728642 C101.115662,13.0836576 101.18162,12.6679826 101.18162,12.2264406 C101.18162,11.7839964 101.115662,11.3692237 100.982841,10.9794155 M103.903987,17.7162386 C103.593471,18.0347624 103.217598,18.1932724 102.775465,18.1932724 C102.420675,18.1932724 102.084558,18.0561176 101.766512,17.7830113 C101.447261,17.5087019 101.287635,17.1065618 101.287635,16.5756889 C101.039764,17.0707693 100.611185,17.4819326 99.9997892,17.8088782 C99.3889958,18.1361246 98.7116417,18.3000485 97.9683291,18.3000485 C97.1536368,18.3000485 96.3967711,18.140937 95.6980332,17.8221124 C94.9983917,17.5041902 94.3878995,17.0707693 93.865352,16.5224512 C93.3431056,15.9750354 92.9356089,15.3295661 92.6434641,14.5863439 C92.3519218,13.8437233 92.2055482,13.0577907 92.2055482,12.2264406 C92.2055482,11.3950906 92.3519218,10.6082556 92.6434641,9.865635 C92.9356089,9.12331517 93.3431056,8.47814661 93.865352,7.92952774 C94.3878995,7.38211199 94.9983917,6.94869105 95.6980332,6.63016727 C96.3967711,6.31224504 97.1536368,6.15283276 97.9683291,6.15283276 C98.3399854,6.15283276 98.6983898,6.20185956 99.0441446,6.29871004 C99.3889958,6.3958613 99.7028256,6.52399268 99.9862361,6.68340496 C100.269647,6.84281724 100.513,7.01907308 100.7172,7.21397715 C100.920497,7.40797889 101.075605,7.60288296 101.18162,7.79688469 L101.18162,1.67094147 C101.18162,1.2284972 101.336728,0.85282562 101.646943,0.543024397 C101.956255,0.234125507 102.332429,0.0792248954 102.775465,0.0792248954 C103.217598,0.0792248954 103.593471,0.234125507 103.903987,0.543024397 C104.213299,0.85282562 104.368106,1.2284972 104.368106,1.67094147 L104.368106,16.5756889 C104.368106,17.0184339 104.213299,17.3983164 103.903987,17.7162386" id="Fill-18"></path>
                                    <path d="M16.1068129,26.0018573 C15.7788278,26.3206819 15.3848841,26.478891 14.924982,26.478891 L10.0651392,26.478891 L10.0651392,39.2625528 C10.0651392,39.7576332 9.89226184,40.1778199 9.54741057,40.5222106 C9.20225813,40.8675036 8.78150947,41.0395485 8.28606813,41.0395485 C7.78942207,41.0395485 7.37319111,40.8675036 7.03737525,40.5222106 C6.70125821,40.1778199 6.53259733,39.7576332 6.53259733,39.2625528 L6.53259733,26.478891 L1.64625067,26.478891 C1.18544505,26.478891 0.796922662,26.3206819 0.477671709,26.0018573 C0.159625476,25.6839351 0,25.2950293 0,24.8348391 C0,24.3755513 0.159625476,23.9821338 0.477671709,23.6545867 C0.796922662,23.3276411 1.18544505,23.1640179 1.64625067,23.1640179 L14.924982,23.1640179 C15.3848841,23.1640179 15.7788278,23.3276411 16.1068129,23.6545867 C16.4338946,23.9821338 16.5980378,24.3755513 16.5980378,24.8348391 C16.5980378,25.2950293 16.4338946,25.6839351 16.1068129,26.0018573" id="Fill-20"></path>
                                    <path d="M21.6831934,32.3140723 C21.2142559,31.9071198 20.6251476,31.7043955 19.9173742,31.7043955 C19.2086974,31.7043955 18.6250102,31.8947879 18.164807,32.2740688 C17.7040014,32.6548536 17.4028212,33.1809141 17.2618689,33.8522504 L22.5993834,33.8522504 C22.4578288,33.2335503 22.1521309,32.7210248 21.6831934,32.3140723 M25.4145142,35.8151269 C25.1844126,36.0100309 24.9187717,36.1068814 24.6184951,36.1068814 L17.20856,36.1068814 C17.2968058,36.7959636 17.5979859,37.3578167 18.1114981,37.7912376 C18.6250102,38.2246585 19.2800771,38.4412186 20.0769997,38.4412186 C20.6429172,38.4412186 21.1260102,38.3609109 21.5244715,38.2014986 C21.9220293,38.0429887 22.2713982,37.8402644 22.5728796,37.5918218 C22.9623055,37.2919463 23.342696,37.1412566 23.715557,37.1412566 C24.0336033,37.1412566 24.3350846,37.2651771 24.6184951,37.5127173 C24.954311,37.8134952 25.1229719,38.1756317 25.1229719,38.5994278 C25.1229719,38.9182523 24.9898502,39.192261 24.7245105,39.4220553 C24.0513729,40.0407554 23.2939048,40.4831997 22.4533111,40.7484858 C21.6127173,41.0134711 20.7757377,41.1461141 19.9441793,41.1461141 C19.1114162,41.1461141 18.3280466,40.9870026 17.5934682,40.6681781 C16.8591911,40.3505566 16.2164726,39.9168349 15.6683248,39.3685168 C15.1192734,38.8211011 14.6858751,38.1756317 14.3669254,37.4324096 C14.0485779,36.6900897 13.8892537,35.9041571 13.8892537,35.0725063 C13.8892537,34.2411562 14.0431567,33.4543212 14.3536734,32.7120014 C14.6626843,31.9693808 15.0924683,31.3242122 15.6415197,30.7758942 C16.1905711,30.2281776 16.832386,29.7947567 17.5669644,29.4762329 C18.3012416,29.1583107 19.0849123,28.9991992 19.9173742,28.9991992 C20.7489326,28.9991992 21.5244715,29.1495881 22.2412802,29.4494637 C22.9577878,29.7502416 23.5773154,30.1704283 24.1004653,30.7100238 C24.6218081,31.2493186 25.0293048,31.8893739 25.3217507,32.6325961 C25.6138955,33.3752167 25.760269,34.1885201 25.760269,35.0725063 C25.760269,35.3735849 25.6443147,35.6211251 25.4145142,35.8151269" id="Fill-22"></path>
                                    <path d="M36.7818962,39.6339232 C36.5867314,39.8465732 36.3388602,40.0450866 36.03768,40.2312681 C35.7361987,40.4162465 35.4003829,40.5756588 35.0284254,40.7083018 C34.6567691,40.8409449 34.2673432,40.9468187 33.8598464,41.0259233 C33.4526509,41.106231 33.0541895,41.1462344 32.6656672,41.1462344 C31.8329041,41.1462344 31.0450168,40.9871229 30.3017042,40.6682984 C29.5583916,40.3503762 28.9111555,39.9169552 28.3630076,39.3686371 C27.8139562,38.8212214 27.3808592,38.175752 27.0616082,37.4325299 C26.7432608,36.6899093 26.5839365,35.9039767 26.5839365,35.0726266 C26.5839365,34.2412765 26.7432608,33.4544415 27.0616082,32.7118209 C27.3808592,31.9695011 27.8139562,31.3243326 28.3630076,30.7757137 C28.9111555,30.2282979 29.5583916,29.794877 30.3017042,29.4763532 C31.0450168,29.158431 31.8329041,28.9990187 32.6656672,28.9990187 C33.3912101,28.9990187 34.0809126,29.0916583 34.736883,29.277539 C35.3913475,29.4628182 35.9581685,29.7590844 36.4361414,30.1660369 C36.8255673,30.501705 37.020732,30.8815875 37.020732,31.3062859 C37.020732,31.571572 36.9315827,31.8191122 36.7550911,32.0486057 C36.453911,32.4200664 36.0641839,32.6059471 35.5865122,32.6059471 C35.2675624,32.6059471 34.9660811,32.5268425 34.6835741,32.3674303 C34.382394,32.1902721 34.073082,32.0531174 33.753831,31.9562669 C33.4357848,31.8591156 33.0719592,31.8100888 32.6656672,31.8100888 C32.2048615,31.8100888 31.7973648,31.8991191 31.4434781,32.0753749 C31.0895915,32.2525331 30.7884113,32.4865383 30.5405401,32.7785936 C30.2926688,33.0697466 30.1020218,33.4150396 29.9701049,33.8129688 C29.8372844,34.2099956 29.7704224,34.6301823 29.7704224,35.0726266 C29.7704224,35.5141685 29.8372844,35.9343552 29.9701049,36.3322844 C30.1020218,36.7302135 30.2926688,37.0746042 30.5405401,37.3666595 C30.7884113,37.6587149 31.0895915,37.89272 31.4434781,38.0689759 C31.7973648,38.2461341 32.2048615,38.334262 32.6656672,38.334262 C33.2315846,38.334262 33.6960044,38.2416224 34.0595289,38.0563432 C34.4224509,37.8704625 34.7191134,37.697816 34.949215,37.539306 C35.231722,37.3266561 35.5597072,37.2207822 35.9313635,37.2207822 C36.3210906,37.2207822 36.6490757,37.3711712 36.9147166,37.6719491 C37.1267474,37.9363328 37.233064,38.2283882 37.233064,38.546912 C37.233064,38.9361185 37.0821728,39.2982551 36.7818962,39.6339232" id="Fill-24"></path>
                                    <path d="M50.0986967,40.5756287 C49.7893847,40.8845276 49.4123072,41.0394282 48.9701747,41.0394282 C48.5274399,41.0394282 48.1512659,40.8845276 47.8419539,40.5756287 C47.5317384,40.2667298 47.3766306,39.8901559 47.3766306,39.448614 L47.3766306,34.6214297 C47.3766306,33.8433173 47.1778517,33.1891254 46.7793904,32.6585532 C46.380929,32.1288833 45.7659192,31.8635972 44.9334573,31.8635972 C44.4913248,31.8635972 44.1106331,31.9427018 43.7916833,32.1021141 C43.4733359,32.2615264 43.2164293,32.4687623 43.0212645,32.7253259 C42.8260998,32.9815886 42.680931,33.273644 42.5836498,33.6002887 C42.4857662,33.9278359 42.4375774,34.2680157 42.4375774,34.6214297 L42.4375774,39.448614 C42.4375774,39.8901559 42.2824696,40.2667298 41.9722541,40.5756287 C41.6629421,40.8845276 41.2858645,41.0394282 40.8437321,41.0394282 C40.4006961,41.0394282 40.0245221,40.8845276 39.7152101,40.5756287 C39.4052957,40.2667298 39.2507903,39.8901559 39.2507903,39.448614 L39.2507903,24.5170973 C39.2507903,24.0746531 39.4052957,23.6989815 39.7152101,23.3891803 C40.0245221,23.0802814 40.4006961,22.9253808 40.8437321,22.9253808 C41.2858645,22.9253808 41.6629421,23.0802814 41.9722541,23.3891803 C42.2824696,23.6989815 42.4375774,24.0746531 42.4375774,24.5170973 L42.4375774,30.7233483 C42.7736944,30.2282679 43.2513662,29.8171045 43.8717973,29.4895574 C44.4913248,29.1629126 45.1551258,28.9989886 45.8632004,28.9989886 C46.606513,28.9989886 47.270314,29.1361434 47.8552058,29.410152 C48.4391941,29.6844614 48.9301178,30.060133 49.3285791,30.5371667 C49.7270404,31.0142005 50.0327383,31.5895886 50.2447691,32.2615264 C50.4580046,32.9334642 50.5640201,33.6670614 50.5640201,34.4620174 L50.5640201,39.448614 C50.5640201,39.8901559 50.4089123,40.2667298 50.0986967,40.5756287" id="Fill-26"></path>
                                    <path d="M63.9879805,40.5756287 C63.677765,40.8845276 63.301591,41.0394282 62.8594585,41.0394282 C62.4164225,41.0394282 62.036032,40.8845276 61.7176846,40.5756287 C61.3984336,40.2667298 61.2397117,39.8901559 61.2397117,39.448614 L61.2397117,34.3035074 C61.2397117,33.6315696 61.0180431,33.0564823 60.5756095,32.5794486 C60.1328747,32.1021141 59.539851,31.8635972 58.7956348,31.8635972 C58.0700918,31.8635972 57.4773693,32.1021141 57.0165637,32.5794486 C56.5566616,33.0564823 56.3268612,33.6315696 56.3268612,34.3035074 L56.3268612,39.448614 C56.3268612,39.8901559 56.1714522,40.2667298 55.8615378,40.5756287 C55.5513223,40.8845276 55.1751483,41.0394282 54.7330158,41.0394282 C54.2899799,41.0394282 53.9092882,40.8845276 53.5909407,40.5756287 C53.271991,40.2667298 53.113269,39.8901559 53.113269,39.448614 L53.113269,34.6214297 C53.113269,33.8433173 53.2632567,33.10972 53.5644369,32.4200363 C53.865617,31.7309542 54.2722102,31.1336093 54.7863247,30.6298063 C55.2989333,30.1260034 55.9015948,29.7280742 56.5922009,29.4369212 C57.2822046,29.1451667 58.016783,28.9989886 58.7956348,28.9989886 C59.5747878,28.9989886 60.3102698,29.1451667 61.0002735,29.4369212 C61.6908795,29.7280742 62.2926375,30.1260034 62.8058484,30.6298063 C63.3193606,31.1336093 63.7223396,31.7309542 64.0144844,32.4200363 C64.3069303,33.10972 64.4530026,33.8433173 64.4530026,34.6214297 L64.4530026,39.448614 C64.4530026,39.8901559 64.2972925,40.2667298 63.9879805,40.5756287" id="Fill-28"></path>
                                    <path d="M74.8500123,33.8254511 C74.7171918,33.4374476 74.5265448,33.0963655 74.2786736,32.8043101 C74.0308023,32.5134579 73.7296222,32.2839644 73.3757355,32.1155288 C73.0218488,31.9470932 72.6146533,31.8637777 72.15445,31.8637777 C71.6936444,31.8637777 71.2861476,31.9470932 70.9325622,32.1155288 C70.5786755,32.2839644 70.2771942,32.5134579 70.0296241,32.8043101 C69.7817528,33.0963655 69.5953223,33.4374476 69.4715373,33.8254511 C69.3474511,34.2152592 69.2860103,34.6303327 69.2860103,35.0724762 C69.2860103,35.5140181 69.3474511,35.9299939 69.4715373,36.3188998 C69.5953223,36.7078056 69.7817528,37.0479854 70.0296241,37.3400407 C70.2771942,37.6317952 70.5786755,37.8615895 70.9325622,38.0297244 C71.2861476,38.19816 71.6936444,38.2817762 72.15445,38.2817762 C72.6146533,38.2817762 73.0218488,38.19816 73.3757355,38.0297244 C73.7296222,37.8615895 74.0308023,37.6317952 74.2786736,37.3400407 C74.5265448,37.0479854 74.7171918,36.7078056 74.8500123,36.3188998 C74.9828327,35.9299939 75.0487912,35.5140181 75.0487912,35.0724762 C75.0487912,34.6303327 74.9828327,34.2152592 74.8500123,33.8254511 M77.7576054,37.4323795 C77.4395592,38.1756016 77.0052574,38.821071 76.456206,39.3684867 C75.9071546,39.9168048 75.260822,40.3505265 74.5175094,40.668148 C73.7741968,40.9869726 72.9863096,41.1460841 72.15445,41.1460841 C71.3219881,41.1460841 70.5341008,40.9869726 69.7907882,40.668148 C69.0471744,40.3505265 68.3999383,39.9168048 67.8520916,39.3684867 C67.3027391,38.821071 66.869642,38.1756016 66.5503911,37.4323795 C66.2323448,36.6900597 66.0727193,35.904127 66.0727193,35.0724762 C66.0727193,34.2411261 66.2323448,33.4542912 66.5503911,32.7119713 C66.869642,31.9696515 67.3027391,31.3241822 67.8520916,30.7758641 C68.3999383,30.2284483 69.0471744,29.7947266 69.7907882,29.4762028 C70.5341008,29.1582806 71.3219881,28.9991691 72.15445,28.9991691 C72.9863096,28.9991691 73.7741968,29.1582806 74.5175094,29.4762028 C75.260822,29.7947266 75.9071546,30.2284483 76.456206,30.7758641 C77.0052574,31.3241822 77.4395592,31.9696515 77.7576054,32.7119713 C78.0765552,33.4542912 78.2352771,34.2411261 78.2352771,35.0724762 C78.2352771,35.904127 78.0765552,36.6900597 77.7576054,37.4323795" id="Fill-30"></path>
                                    <path d="M82.7376191,40.5756287 C82.4274035,40.8845276 82.0512295,41.0394282 81.6090971,41.0394282 C81.1660611,41.0394282 80.7856706,40.8845276 80.4673232,40.5756287 C80.1480722,40.2667298 79.9896515,39.8901559 79.9896515,39.448614 L79.9896515,24.5438666 C79.9896515,24.1014223 80.1480722,23.7212391 80.4673232,23.4024145 C80.7856706,23.084793 81.1660611,22.9253808 81.6090971,22.9253808 C82.0512295,22.9253808 82.4274035,23.084793 82.7376191,23.4024145 C83.0478346,23.7212391 83.2029424,24.1014223 83.2029424,24.5438666 L83.2029424,39.448614 C83.2029424,39.8901559 83.0478346,40.2667298 82.7376191,40.5756287" id="Fill-32"></path>
                                    <path d="M93.7325918,33.8254511 C93.5997713,33.4374476 93.4088231,33.0963655 93.1612531,32.8043101 C92.9133818,32.5134579 92.6122017,32.2839644 92.2580138,32.1155288 C91.9044283,31.9470932 91.4969316,31.8637777 91.0370295,31.8637777 C90.5762239,31.8637777 90.1687271,31.9470932 89.8151417,32.1155288 C89.461255,32.2839644 89.1597737,32.5134579 88.9122036,32.8043101 C88.6643323,33.0963655 88.4779018,33.4374476 88.3541168,33.8254511 C88.2300306,34.2152592 88.1685898,34.6303327 88.1685898,35.0724762 C88.1685898,35.5140181 88.2300306,35.9299939 88.3541168,36.3188998 C88.4779018,36.7078056 88.6643323,37.0479854 88.9122036,37.3400407 C89.1597737,37.6317952 89.461255,37.8615895 89.8151417,38.0297244 C90.1687271,38.19816 90.5762239,38.2817762 91.0370295,38.2817762 C91.4969316,38.2817762 91.9044283,38.19816 92.2580138,38.0297244 C92.6122017,37.8615895 92.9133818,37.6317952 93.1612531,37.3400407 C93.4088231,37.0479854 93.5997713,36.7078056 93.7325918,36.3188998 C93.8654122,35.9299939 93.9313707,35.5140181 93.9313707,35.0724762 C93.9313707,34.6303327 93.8654122,34.2152592 93.7325918,33.8254511 M96.6401849,37.4323795 C96.3218375,38.1756016 95.8878369,38.821071 95.3387855,39.3684867 C94.7897341,39.9168048 94.1434015,40.3505265 93.4000889,40.668148 C92.6567763,40.9869726 91.8688891,41.1460841 91.0370295,41.1460841 C90.2045676,41.1460841 89.4163791,40.9869726 88.6730665,40.668148 C87.9297539,40.3505265 87.2825178,39.9168048 86.73437,39.3684867 C86.1853186,38.821071 85.7522215,38.1756016 85.4329706,37.4323795 C85.1149243,36.6900597 84.9552988,35.904127 84.9552988,35.0724762 C84.9552988,34.2411261 85.1149243,33.4542912 85.4329706,32.7119713 C85.7522215,31.9696515 86.1853186,31.3241822 86.73437,30.7758641 C87.2825178,30.2284483 87.9297539,29.7947266 88.6730665,29.4762028 C89.4163791,29.1582806 90.2045676,28.9991691 91.0370295,28.9991691 C91.8688891,28.9991691 92.6567763,29.1582806 93.4000889,29.4762028 C94.1434015,29.7947266 94.7897341,30.2284483 95.3387855,30.7758641 C95.8878369,31.3241822 96.3218375,31.9696515 96.6401849,32.7119713 C96.9591347,33.4542912 97.1178566,34.2411261 97.1178566,35.0724762 C97.1178566,35.904127 96.9591347,36.6900597 96.6401849,37.4323795" id="Fill-34"></path>
                                    <path d="M106.02791,32.7252958 C105.523433,32.1511108 104.81054,31.8635672 103.890434,31.8635672 C102.969727,31.8635672 102.26105,32.1511108 101.765608,32.7252958 C101.269866,33.3003831 101.021995,34.0381913 101.021995,34.9399234 C101.021995,35.8416555 101.269866,36.5797644 101.765608,37.1548517 C102.26105,37.7290367 102.969727,38.0162796 103.890434,38.0162796 C104.81054,38.0162796 105.523433,37.7290367 106.02791,37.1548517 C106.532387,36.5797644 106.784775,35.8416555 106.784775,34.9399234 C106.784775,34.0381913 106.532387,33.3003831 106.02791,32.7252958 M109.5472,42.2599548 C109.263488,43.0022746 108.851775,43.6522556 108.311759,44.2092963 C107.771442,44.7657354 107.099509,45.203668 106.293551,45.5221918 C105.487894,45.840114 104.562668,45.9995263 103.517874,45.9995263 C102.686316,45.9995263 101.973121,45.9459878 101.380399,45.840114 C100.786773,45.7342402 100.180497,45.5393361 99.5612709,45.2572065 C99.1893134,45.0800483 98.9327079,44.8325081 98.7911533,44.5136835 C98.6492974,44.1960621 98.6492974,43.8594916 98.7911533,43.5060776 C98.9327079,43.1526636 99.1582919,42.9009125 99.4685074,42.7505235 C99.7778194,42.5998338 100.128092,42.5953222 100.517518,42.7369885 C101.01326,42.9309903 101.513219,43.0636333 102.017696,43.1349177 C102.522173,43.2052997 103.022433,43.2407915 103.517874,43.2407915 C104.650914,43.2407915 105.478858,42.9532478 106.001406,42.3790629 C106.523652,41.8042763 106.784775,41.0661674 106.784775,40.1644353 L106.784775,39.2359339 C106.67876,39.430838 106.523652,39.6248397 106.320356,39.8197438 C106.116156,40.0149487 105.872802,40.1912045 105.589391,40.3506168 C105.305981,40.508826 104.992151,40.6381604 104.6473,40.7350109 C104.301545,40.8321622 103.943141,40.8808882 103.571485,40.8808882 C102.792331,40.8808882 102.053537,40.7440343 101.353594,40.4697248 C100.653952,40.1954154 100.04346,39.797787 99.5209127,39.2759374 C98.9986664,38.7543885 98.5824354,38.1266651 98.2731234,37.3933686 C97.9629079,36.6597713 97.8087036,35.8416555 97.8087036,34.9399234 C97.8087036,34.1085733 97.954776,33.331664 98.2463184,32.6061878 C98.5387643,31.881313 98.9459598,31.252988 99.4685074,30.7233182 C99.9907538,30.192746 100.601246,29.7725593 101.301189,29.4627581 C101.999927,29.1538592 102.756792,28.9989586 103.571485,28.9989586 C104.314797,28.9989586 104.978899,29.1719058 105.56349,29.5162965 C106.147478,29.8606872 106.581479,30.263128 106.864889,30.7233182 C106.864889,30.192746 107.028129,29.7903052 107.356114,29.5162965 C107.683196,29.2419871 108.023529,29.1048324 108.378621,29.1048324 C108.820452,29.1048324 109.196626,29.2642447 109.506842,29.5821669 C109.816154,29.9006907 109.971261,30.2808739 109.971261,30.7233182 L109.971261,39.8991492 C109.971261,40.7304993 109.829707,41.5173342 109.5472,42.2599548" id="Fill-36"></path>
                                    <path d="M115.548606,40.5756287 C115.230258,40.8845276 114.848964,41.0394282 114.406531,41.0394282 C113.963796,41.0394282 113.587622,40.8845276 113.27831,40.5756287 C112.968094,40.2667298 112.812986,39.8901559 112.812986,39.448614 L112.812986,30.7233483 C112.812986,30.280904 112.968094,29.9007207 113.27831,29.582197 C113.587622,29.2642747 113.963796,29.1048625 114.406531,29.1048625 C114.848964,29.1048625 115.230258,29.2642747 115.548606,29.582197 C115.867857,29.9007207 116.026277,30.280904 116.026277,30.7233483 L116.026277,39.448614 C116.026277,39.8901559 115.867857,40.2667298 115.548606,40.5756287 M115.667873,25.8426255 C115.323022,26.1788952 114.902273,26.3473308 114.406531,26.3473308 C113.911089,26.3473308 113.494858,26.1788952 113.158741,25.8426255 C112.822022,25.5069574 112.654264,25.0912823 112.654264,24.5962019 C112.654264,24.1014223 112.822022,23.6812356 113.158741,23.3368449 C113.494858,22.9921535 113.911089,22.8195069 114.406531,22.8195069 C114.902273,22.8195069 115.323022,22.9921535 115.667873,23.3368449 C116.013025,23.6812356 116.185903,24.1014223 116.185903,24.5962019 C116.185903,25.0912823 116.013025,25.5069574 115.667873,25.8426255" id="Fill-39"></path>
                                    <path d="M125.73241,32.3140723 C125.263472,31.9071198 124.674364,31.7043955 123.966591,31.7043955 C123.257914,31.7043955 122.674227,31.8947879 122.214023,32.2740688 C121.753218,32.6548536 121.452038,33.1809141 121.311085,33.8522504 L126.6486,33.8522504 C126.507045,33.2335503 126.201347,32.7210248 125.73241,32.3140723 M129.463731,35.8151269 C129.233629,36.0100309 128.967988,36.1068814 128.667712,36.1068814 L121.257776,36.1068814 C121.346022,36.7959636 121.647202,37.3578167 122.160715,37.7912376 C122.674227,38.2246585 123.329294,38.4412186 124.126216,38.4412186 C124.692134,38.4412186 125.175227,38.3609109 125.573688,38.2014986 C125.971246,38.0429887 126.320615,37.8402644 126.622096,37.5918218 C127.011522,37.2919463 127.391912,37.1412566 127.764773,37.1412566 C128.08282,37.1412566 128.384,37.2651771 128.667712,37.5127173 C129.003527,37.8134952 129.172188,38.1756317 129.172188,38.5994278 C129.172188,38.9182523 129.039067,39.192261 128.773727,39.4220553 C128.100589,40.0407554 127.343121,40.4831997 126.502528,40.7484858 C125.661934,41.0134711 124.824954,41.1461141 123.993396,41.1461141 C123.160633,41.1461141 122.377263,40.9870026 121.642685,40.6681781 C120.908106,40.3505566 120.265689,39.9168349 119.717541,39.3685168 C119.16849,38.8211011 118.735092,38.1756317 118.416142,37.4324096 C118.097794,36.6900897 117.93847,35.9041571 117.93847,35.0725063 C117.93847,34.2411562 118.092373,33.4543212 118.40289,32.7120014 C118.711901,31.9693808 119.141685,31.3242122 119.690736,30.7758942 C120.239788,30.2281776 120.881602,29.7947567 121.616181,29.4762329 C122.350458,29.1583107 123.134129,28.9991992 123.966591,28.9991992 C124.798149,28.9991992 125.573688,29.1495881 126.290497,29.4494637 C127.007004,29.7502416 127.626532,30.1704283 128.149682,30.7100238 C128.671025,31.2493186 129.078521,31.8893739 129.370967,32.6325961 C129.663112,33.3752167 129.809485,34.1885201 129.809485,35.0725063 C129.809485,35.3735849 129.693531,35.6211251 129.463731,35.8151269" id="Fill-41"></path>
                                    <path d="M140.830239,31.4123402 C140.74109,31.6953722 140.581464,31.9125338 140.351664,32.0620204 C140.121562,32.2127101 139.864656,32.279182 139.581546,32.2614361 C139.43969,32.2614361 139.290004,32.2346669 139.130378,32.1814292 C138.705112,32.0397628 138.262076,31.9161431 137.802174,31.8102693 C137.341368,31.7043955 136.881466,31.650857 136.421564,31.650857 C135.836672,31.650857 135.385806,31.7043955 135.066555,31.8102693 C134.748509,31.9161431 134.588883,32.1378164 134.588883,32.4734845 C134.588883,32.791106 134.753026,33.017291 135.080108,33.149934 C135.408093,33.2825771 135.969493,33.4810905 136.766416,33.7463766 C137.351307,33.9412806 137.894938,34.139794 138.400318,34.3428191 C138.904795,34.5464457 139.337892,34.7849626 139.700814,35.059272 C140.063736,35.3335815 140.351664,35.6602263 140.564598,36.0404095 C140.776629,36.4211943 140.882645,36.8849938 140.882645,37.4324096 C140.882645,37.9283923 140.776629,38.3967035 140.564598,38.8379446 C140.351664,39.2803889 140.033317,39.6738064 139.60805,40.0184978 C139.183085,40.3637909 138.647286,40.6381003 138.001856,40.8411254 C137.35462,41.0438497 136.607091,41.1461141 135.757462,41.1461141 C135.173474,41.1461141 134.512986,41.0706189 133.778708,40.9202299 C133.04413,40.7707433 132.357741,40.5358358 131.720443,40.2179136 C131.454802,40.0762472 131.251506,39.8903665 131.109951,39.6605722 C130.968095,39.4310786 130.897619,39.192261 130.897619,38.9447208 C130.897619,38.7678634 130.932556,38.6093534 131.003936,38.4667847 C131.198197,37.9542592 131.543952,37.6976957 132.039694,37.6976957 C132.233956,37.6976957 132.438156,37.7512341 132.650186,37.8571079 C133.127858,38.0688556 133.606735,38.2372912 134.084406,38.3609109 C134.562078,38.4848314 135.040653,38.5470924 135.518626,38.5470924 C135.784267,38.5470924 136.058642,38.5293465 136.34145,38.493554 C136.624861,38.4589645 136.876949,38.4009144 137.098918,38.3209074 C137.319985,38.2418029 137.500994,38.135929 137.64285,38.003286 C137.784404,37.8703422 137.855784,37.7076213 137.855784,37.5127173 C137.855784,37.353305 137.815727,37.2206619 137.736216,37.1144873 C137.656102,37.0086135 137.50521,36.8940172 137.284445,36.7700967 C137.063379,36.646477 136.744128,36.5138339 136.328801,36.3721675 C135.91257,36.2308019 135.37677,36.0446204 134.721704,35.8151269 C133.553125,35.4081744 132.7303,34.9179064 132.251725,34.3428191 C131.774053,33.7686341 131.535218,33.0918839 131.535218,32.3140723 C131.535218,31.8192926 131.654485,31.3642157 131.893321,30.9485407 C132.132458,30.5328656 132.455022,30.1839633 132.862217,29.9009313 C133.269714,29.6175985 133.756421,29.3968275 134.323242,29.237716 C134.890063,29.0783038 135.500857,28.9991992 136.155923,28.9991992 C137.005251,28.9991992 137.718446,29.0647688 138.293399,29.1974118 C138.869255,29.3303556 139.43969,29.5117247 140.006512,29.741519 C140.608269,29.9899615 140.90945,30.3957109 140.90945,30.9617749 C140.90945,31.1034413 140.882645,31.2529279 140.830239,31.4123402" id="Fill-43"></path>
                                    <path d="M146.999131,28.3546322 C146.948232,28.4048621 146.884382,28.4298266 146.80728,28.4298266 C146.729876,28.4298266 146.665725,28.4048621 146.615428,28.3546322 C146.56483,28.3038007 146.539229,28.2400358 146.539229,28.1627359 L146.539229,26.8970625 C146.366352,27.2474688 146.234134,27.5163642 146.142274,27.703448 C146.049812,27.8905319 145.981444,28.0273858 145.936869,28.1137091 C145.892596,28.1997316 145.860972,28.2574809 145.843503,28.2872579 C145.795314,28.3826045 145.720923,28.4298266 145.619726,28.4298266 C145.506784,28.4298266 145.429682,28.3826045 145.388119,28.2872579 L144.691489,26.8970625 L144.691489,28.1627359 C144.691489,28.2400358 144.666491,28.3038007 144.616194,28.3546322 C144.564993,28.4048621 144.501444,28.4298266 144.424041,28.4298266 C144.346337,28.4298266 144.282486,28.4048621 144.232189,28.3546322 C144.18129,28.3038007 144.156292,28.2400358 144.156292,28.1627359 L144.156292,25.7649346 C144.156292,25.6876346 144.18129,25.6232682 144.232189,25.5730383 C144.282486,25.5228084 144.346337,25.4972422 144.424041,25.4972422 C144.483072,25.4972422 144.533972,25.5134842 144.575836,25.546269 C144.617399,25.5790538 144.649926,25.6193581 144.674021,25.6665802 L145.619726,27.5831369 L146.5573,25.6665802 C146.580792,25.6193581 146.613621,25.5790538 146.655485,25.546269 C146.697349,25.5134842 146.747646,25.4972422 146.80728,25.4972422 C146.884382,25.4972422 146.948232,25.5228084 146.999131,25.5730383 C147.049428,25.6232682 147.074426,25.6876346 147.074426,25.7649346 L147.074426,28.1627359 C147.074426,28.2400358 147.049428,28.3038007 146.999131,28.3546322 M143.50002,25.9923226 C143.449723,26.0425526 143.385271,26.0675171 143.308169,26.0675171 L142.513957,26.0675171 L142.513957,28.1446892 C142.513957,28.2283055 142.487152,28.2962813 142.433843,28.3498197 C142.379932,28.4030574 142.311564,28.4298266 142.228438,28.4298266 C142.14471,28.4298266 142.076643,28.4030574 142.023033,28.3498197 C141.969122,28.2962813 141.942618,28.2283055 141.942618,28.1446892 L141.942618,26.0675171 L141.157441,26.0675171 C141.079436,26.0675171 141.015887,26.0425526 140.965288,25.9923226 C140.914389,25.9420927 140.889391,25.8777263 140.889391,25.8004264 C140.889391,25.7234272 140.914389,25.6590607 140.965288,25.6088308 C141.015887,25.5586009 141.079436,25.5330348 141.157441,25.5330348 L143.308169,25.5330348 C143.385271,25.5330348 143.449723,25.5586009 143.50002,25.6088308 C143.550318,25.6590607 143.576219,25.7234272 143.576219,25.8004264 C143.576219,25.8777263 143.550318,25.9420927 143.50002,25.9923226" id="Fill-46"></path>
                                </g>
                            </g>
                            <g id="Group-2" transform="translate(0.000000, 90.000000)">
                                <path d="M11,124 L121,124 C127.075132,124 132,128.924868 132,135 L132,345 C132,351.075132 127.075132,356 121,356 L11,356 C4.92486775,356 2.52034597e-15,351.075132 0,345 L0,135 C1.03236771e-15,128.924868 4.92486775,124 11,124 Z" id="Bg-Copy-5" stroke="#2CC3E2" stroke-dasharray="3"></path>
                                <rect id="Rectangle" fill="#FFFFFF" x="121" y="157" width="23" height="24"></rect>
                                <rect id="Bg" stroke="#2CC3E2" stroke-width="2" fill="#FFFFFF" x="11" y="0" width="108.583784" height="72" rx="11"></rect>
                                <rect id="Bg-Copy" stroke="#AAE7F3" stroke-width="2" fill="#E0F6FB" x="11" y="135" width="108.583784" height="72" rx="11"></rect>
                                <g id="Group-7" transform="translate(330.000000, 135.000000)">
                                    <path d="M11,0 L97.5837838,0 C103.658916,-1.11598369e-15 108.583784,4.92486775 108.583784,11 L108.583784,61 C108.583784,67.0751322 103.658916,72 97.5837838,72 L11,72 C4.92486775,72 2.52034597e-15,67.0751322 0,61 L0,11 C1.03236771e-15,4.92486775 4.92486775,1.11598369e-15 11,0 Z" id="Bg-Copy-6" stroke="#2CC3E2" stroke-dasharray="4"></path>
                                    <rect id="Bg-Copy-7" stroke="#2CC3E2" stroke-width="2" x="0" y="138" width="108.583784" height="72" rx="11"></rect>
                                    <text id="Change-Healthcare" font-family="Mulish-Regular, Mulish" font-size="16" font-weight="normal" letter-spacing="0.533333333" fill="#141B4D">
                                        <tspan x="23.584" y="31">Change</tspan>
                                        <tspan x="10.7413333" y="51">Healthcare</tspan>
                                    </text>
                                    <text id="Payer" font-family="Mulish-Regular, Mulish" font-size="18" font-weight="normal" letter-spacing="0.6" fill="#141B4D">
                                        <tspan x="30.515" y="179">Payer</tspan>
                                    </text>
                                    <text id="ERN" font-family="Mulish-Regular_Bold, Mulish" font-size="14" font-weight="bold" letter-spacing="0.466666667" fill="#141B4D">
                                        <tspan x="40.935439" y="228">ERN</tspan>
                                    </text>
                                    <line x1="56" y1="82" x2="56" y2="132" id="Line-2-Copy-3" stroke="#147A90" stroke-width="2" stroke-linecap="square"></line>
                                    <g id="Group" transform="translate(39.000000, 95.000000)">
                                        <rect id="Rectangle" fill="#FFFFFF" x="0" y="4" width="35" height="13"></rect>
                                        <text id="Auto" font-family="Mulish-Regular, Mulish" font-size="14" font-weight="normal" letter-spacing="0.466666667" fill="#141B4D">
                                            <tspan x="0.435666667" y="14">Auto</tspan>
                                        </text>
                                    </g>
                                </g>
                                <rect id="Bg-Copy-4" stroke="#AAE7F3" stroke-width="2" fill="#E0F6FB" x="11" y="273" width="108.583784" height="72" rx="11"></rect>
                                <g id="Bg-Copy-3">
                                    <use fill="black" fill-opacity="1" filter="url(#filter-7)" xlink:href="#path-6"></use>
                                    <use fill="#E0F6FB" fill-rule="evenodd" xlink:href="#path-6"></use>
                                </g>
                                <g id="Bg-Copy-3">
                                    <use fill="black" fill-opacity="1" filter="url(#filter-9)" xlink:href="#path-8"></use>
                                    <use fill="#FFFFFF" fill-rule="evenodd" xlink:href="#path-8"></use>
                                </g>
                                <rect id="Bg-Copy-2" stroke="#AAE7F3" stroke-width="2" fill="#E0F6FB" x="11" y="217" width="108.583784" height="32" rx="16"></rect>
                                <text id="Client" font-family="Nunito-Black, Nunito" font-size="24" font-weight="700" letter-spacing="0.8" fill="#141B4D">
                                    <tspan x="32.18" y="44">Client</tspan>
                                </text>
                                <text id="App" font-family="Mulish-Regular, Mulish" font-size="18" font-weight="normal" letter-spacing="0.6" fill="#141B4D">
                                    <tspan x="46.694" y="178">App</tspan>
                                </text>
                                <text id="Database" font-family="Mulish-Regular, Mulish" font-size="16" font-weight="normal" letter-spacing="0.533333333" fill="#141B4D">
                                    <tspan x="28.5786667" y="238">Database</tspan>
                                </text>
                                <text id="Verified-Claim-Auto" font-family="Mulish-Regular, Mulish" font-size="14" font-weight="normal" letter-spacing="0.466666667" fill="#141B4D">
                                    <tspan x="174.159667" y="142">Verified Claim </tspan>
                                    <tspan x="175.401" y="160">Auto Submits</tspan>
                                </text>
                                <text id="Remittance-Automatic" font-family="Mulish-Regular, Mulish" font-size="14" font-weight="normal" letter-spacing="0.466666667" fill="#141B4D">
                                    <tspan x="182.699667" y="282">Remittance</tspan>
                                    <tspan x="186.335" y="300">Automatic</tspan>
                                </text>
                                <text id="Reports,-Analytics," font-family="Mulish-Regular, Mulish" font-size="16" font-weight="normal" letter-spacing="0.533333333" fill="#141B4D">
                                    <tspan x="32.3026667" y="294">Reports, </tspan>
                                    <tspan x="26.7933333" y="314">Analytics, </tspan>
                                    <tspan x="17.6573333" y="334">Dashboards</tspan>
                                </text>
                                <path id="Line-2" d="M66.5,78.5 L66.5,103.5 L72.5,103.5 L65.5,117.5 L58.5,103.5 L64.5,103.5 L64.5,78.5 L66.5,78.5 Z" fill="#2CC3E2" fill-rule="nonzero"></path>
                                <path id="Line-2-Copy" d="M309,163 L323,170 L309,177 L309,171 L125,171 L125,169 L309,169 L309,163 Z" fill="#2CC3E2" fill-rule="nonzero"></path>
                                <path id="Line-2-Copy-2" d="M305,307 L319,314 L305,321 L305,315 L139,315 L139,313 L305,313 L305,307 Z" fill="#2CC3E2" fill-rule="nonzero"></path>
                            </g>
                        </g>
                    </g>
                </g>
            </g>
        </g>
    </g>
</svg>
