<?xml version="1.0" encoding="UTF-8"?>
<svg width="954px" height="250px" viewBox="0 0 954 250" version="1.1" xmlns="http://www.w3.org/2000/svg" xmlns:xlink="http://www.w3.org/1999/xlink">
    <title>Brand - MP Cloud</title>
    <defs>
        <linearGradient x1="0%" y1="49.9997883%" x2="100.000051%" y2="49.9997883%" id="linearGradient-1">
            <stop stop-color="#00AAD6" offset="0%"></stop>
            <stop stop-color="#1C1C4B" offset="100%"></stop>
        </linearGradient>
    </defs>
    <g id="Brand---MP-Cloud" stroke="none" stroke-width="1" fill="none" fill-rule="evenodd">
        <g id="Brand/Logo---Current">
            <path d="M186.904527,156.657996 L156.973754,156.556047 C153.206019,156.556047 149.907015,159.1459 148.999967,162.810684 L139.984954,198.957727 L122.260856,75.7572993 C121.69015,71.8224406 118.392934,68.8641422 114.424826,68.6942278 C110.322539,68.5940678 106.923348,71.2500975 106.050292,75.1169905 L85.8358389,164.964125 L74.7008042,115.535144 C73.8957326,111.97052 70.8346715,109.346685 67.2029041,109.146365 C63.5371448,108.87629 60.1737346,111.095908 58.9285572,114.52639 L46.2817769,156.657996 L10.8944077,156.570356 C7.52205227,156.563201 4.48245973,158.602174 3.21223566,161.725021 C1.0027614,167.16228 5.00128365,173.103917 10.8693611,173.109282 L52.0675581,173.134322 C55.531155,173.134322 58.6262081,170.948687 59.8016126,167.68812 L64.814525,146.604432 L77.7994353,204.271575 C78.6384988,208.004325 81.9679172,210.692549 85.8358389,210.692549 C89.6679797,210.692549 93.0313899,208.004325 93.8740315,204.271575 L112.306593,122.360336 L129.662147,242.940506 C130.232854,246.839593 133.462085,249.79968 137.396202,250 L137.83273,250 C141.602254,250 144.895891,247.445919 145.804727,243.747152 L163.392858,173.10034 L180.177706,173.10034 L186.904527,156.657996 Z" id="Pulse" fill="#E23C50"></path>
            <path d="M39.33222,62.4891344 C39.330431,62.528483 39.3250638,62.5696202 39.3196967,62.6071802 L39.3196967,62.6071802 C15.8402309,70.3087719 2.5423901e-14,91.3584778 2.5423901e-14,115.937037 L2.5423901e-14,115.937037 C2.5423901e-14,126.192709 1.96795279,139.760818 13.3659775,150.908988 L13.3659775,150.908988 L33.5196031,150.908988 C22.0035012,139.499686 16.4807101,128.770042 16.4807101,115.937037 L16.4807101,115.937037 C16.4807101,97.0085773 29.9665538,81.0044335 49.3025845,76.9998204 L49.3025845,76.9998204 C52.1435927,76.4757688 54.1061783,76.3523573 56.5643302,76.232523 L56.5643302,76.232523 C56.5643302,76.232523 56.5500179,76.1663458 56.5410726,76.1216315 L56.5410726,76.1216315 C56.4283626,75.5796941 55.7037982,71.8523097 55.7216886,65.70141 L55.7216886,65.70141 C56.3979488,38.4292616 78.7431582,16.4405554 106.183576,16.4405554 L106.183576,16.4405554 C124.213602,16.4745382 140.996661,26.7641939 149.977682,43.3066979 L149.977682,43.3066979 L152.833002,48.2717743 L152.858049,48.3111228 C152.858049,48.3111228 158.167944,45.5173731 164.941279,45.8303732 L164.941279,45.8303732 C179.216093,45.8303732 191.21166,55.9519031 194.4069,70.408932 L194.4069,70.408932 L194.4069,70.4107206 C195.086738,72.8449673 195.405188,75.9874886 195.405188,75.9874886 L195.405188,75.9874886 C195.405188,75.9874886 195.467805,75.9928543 195.526844,75.99822 L195.526844,75.99822 C196.102917,76.0590315 199.344672,76.3934945 201.029955,76.729746 L201.029955,76.729746 L201.031744,76.7315346 C220.741686,80.1959989 235.07196,96.6705371 235.07196,115.937037 L235.07196,115.937037 C235.07196,138.399714 216.803991,156.659248 194.337127,156.659248 L194.337127,156.659248 L186.903632,156.659248 L180.178601,173.099803 L194.337127,173.133786 C195.38372,173.133786 196.424946,173.099803 197.43218,173.06582 L197.43218,173.06582 C227.568693,171.420334 251.549092,146.435769 251.549092,115.937037 L251.549092,115.937037 C251.549092,90.4159003 233.960962,68.3234568 209.069937,61.6681798 L209.069937,61.6681798 C209.06457,61.6538712 209.059203,61.6413512 209.053836,61.6288312 L209.053836,61.6288312 C202.554224,42.3820061 185.109217,29.3522579 164.941279,29.3522579 L164.941279,29.3522579 C163.551189,29.3522579 162.264863,29.5185951 161.103771,29.7815152 L161.103771,29.7815152 C161.085881,29.7850923 161.062623,29.7850923 161.041155,29.790458 L161.041155,29.790458 C148.596537,11.2626389 128.113726,-5.08342785e-14 106.183576,-5.08342785e-14 L106.183576,-5.08342785e-14 C70.7747384,-5.08342785e-14 41.7134429,27.5762057 39.33222,62.4891344" id="Cloud" fill="url(#linearGradient-1)"></path>
            <g id="Text" transform="translate(285.541004, 49.193604)" fill="#1C1C4C">
                <path d="M104.195944,105.349226 C102.253038,107.245112 99.911174,108.185901 97.1739305,108.185901 C94.4420543,108.185901 92.1288152,107.245112 90.2377915,105.349226 C88.3431897,103.458705 87.3949942,101.146081 87.3949942,98.4095659 L87.3949942,51.7278323 C82.3498789,61.8225336 78.2189671,70.1537027 75.0112041,76.7231283 C71.803441,83.296131 69.3077191,88.3416931 67.5186711,91.8669689 C65.7296231,95.3868789 64.4415085,97.99104 63.6543274,99.6687207 C62.8635682,101.353556 62.3143305,102.458893 61.9958799,102.982945 C60.206832,106.456352 57.4212842,108.185901 53.6356587,108.185901 C49.7426903,108.185901 46.9589316,106.402695 45.2736484,102.823762 L19.722465,51.7278323 L19.722465,98.2503829 C19.722465,100.988687 18.7474339,103.328139 16.7991606,105.270529 C14.8562545,107.212918 12.5161797,108.185901 9.78430345,108.185901 C7.04706003,108.185901 4.73203193,107.212918 2.84279725,105.270529 C0.946406386,103.328139 -5.08478021e-14,100.988687 -5.08478021e-14,98.2503829 L-5.08478021e-14,10.2490551 C-5.08478021e-14,7.5179054 0.946406386,5.20349301 2.84279725,3.30939508 C4.73203193,1.4188743 7.04706003,0.470931052 9.78430345,0.470931052 C11.8864348,0.470931052 13.7237871,1.05400558 15.3017274,2.20763463 C16.8778787,3.36662939 18.0854861,4.83862429 18.9334949,6.62183074 L53.6356587,77.1201913 L88.0247391,6.62183074 C88.8673807,4.83862429 90.0785662,3.36662939 91.6565065,2.20763463 C93.2362359,1.05400558 95.0717991,0.470931052 97.1739305,0.470931052 C99.911174,0.470931052 102.253038,1.44570288 104.195944,3.38809226 C106.144217,5.33584735 107.113881,7.67529975 107.113881,10.4064494 L107.113881,98.4095659 C107.113881,101.146081 106.144217,103.458705 104.195944,105.349226" id="Fill-6"></path>
                <path d="M195.774627,29.8868621 C195.245069,28.2556843 194.407794,26.8123065 193.248491,25.5459974 C192.094555,24.2868426 190.595333,23.2387393 188.752613,22.3927447 C186.911683,21.5556929 184.729045,21.1318013 182.208276,21.1318013 L150.656626,21.1318013 L150.656626,47.7833152 L182.208276,47.7833152 C184.729045,47.7833152 186.911683,47.3916179 188.752613,46.6028576 C190.595333,45.8140972 192.094555,44.8142854 193.248491,43.6069992 C194.407794,42.4015015 195.245069,41.0028381 195.774627,39.4253175 C196.298818,37.8477968 196.561808,36.2702761 196.561808,34.6945441 C196.561808,33.1152348 196.298818,31.5180399 195.774627,29.8868621 M215.491725,46.9945549 C214.019338,50.8864879 211.732935,54.3312779 208.630726,57.3271363 C205.526727,60.3247832 201.555041,62.7161042 196.721033,64.5010993 C191.881658,66.2896714 186.047573,67.1839575 179.211621,67.1839575 L150.656626,67.1839575 L150.656626,97.779273 C150.656626,100.723263 149.629712,103.19507 147.581252,105.191116 C145.532792,107.185374 143.033492,108.186974 140.088719,108.186974 C137.140368,108.186974 134.673271,107.185374 132.671326,105.191116 C130.674749,103.19507 129.674671,100.723263 129.674671,97.779273 L129.674671,12.3016205 C129.674671,9.3594193 130.674749,6.88761256 132.671326,4.88620031 C134.673271,2.89015377 137.140368,1.89034192 140.088719,1.89034192 L179.211621,1.89034192 C186.047573,1.89034192 191.881658,2.81145659 196.721033,4.65368593 C201.555041,6.49054954 205.526727,8.90869911 208.630726,11.9045575 C211.732935,14.9022045 214.019338,18.4006516 215.491725,22.3927447 C216.964111,26.3937806 217.69941,30.4896109 217.69941,34.6945441 C217.69941,39.0085801 216.964111,43.1097761 215.491725,46.9945549" id="Fill-8"></path>
                <path d="M352.653561,87.4468705 C352.283228,88.3411565 351.732202,89.2104026 350.995114,90.0510315 C346.051974,96.1500626 339.924485,100.828967 332.618013,104.089534 C325.306174,107.344736 317.813641,108.975914 310.135047,108.975914 C302.565585,108.975914 295.491689,107.557576 288.920516,104.719112 C282.343975,101.882436 276.642279,97.992292 271.802905,93.0468899 C266.967108,88.1086422 263.151069,82.3226112 260.365521,75.701317 C257.579973,69.0746571 256.188094,61.9811799 256.188094,54.4119425 C256.188094,46.8409165 257.579973,39.7689022 260.365521,33.1941109 C263.151069,26.6264739 266.967108,20.8726372 271.802905,15.9290237 C276.642279,10.9889874 282.343975,7.09347722 288.920516,4.25680176 C295.491689,1.41833773 302.565585,0 310.135047,0 C313.292717,0 316.473644,0.232514382 319.681407,0.710063151 C322.885592,1.18045763 326.014637,1.94238938 329.070331,2.99585838 C332.11529,4.05111596 335.006392,5.41579653 337.743635,7.09347722 C340.475512,8.77652363 342.947976,10.7779359 345.162817,13.0905597 C347.368714,15.2994463 348.470767,17.8177559 348.470767,20.6615857 C348.470767,23.3927354 347.495736,25.651702 345.55283,27.4420628 C343.604557,29.230635 341.316364,30.1195553 338.690042,30.1195553 C336.900994,30.1195553 335.144149,29.5686751 333.406983,28.4687032 C331.669818,27.361577 329.753747,26.1292508 327.64446,24.757416 C325.544117,23.3927354 323.071653,22.1586206 320.234223,21.0514944 C317.395004,19.9515225 314.028015,19.3952766 310.135047,19.3952766 C305.191907,19.3952766 300.69603,20.3163913 296.649203,22.1586206 C292.600588,24.0008499 289.158459,26.5209481 286.315662,29.727858 C283.476443,32.9347679 281.270547,36.667518 279.690817,40.9243198 C278.112877,45.1846987 277.325696,49.6793806 277.325696,54.4119425 C277.325696,59.1373502 278.112877,63.6373978 279.690817,67.8924109 C281.270547,72.1492127 283.476443,75.8873285 286.315662,79.0888727 C289.158459,82.2975712 292.600588,84.8480751 296.649203,86.7385959 C300.69603,88.6326938 305.191907,89.5806371 310.135047,89.5806371 C315.081765,89.5806371 319.180473,88.7650482 322.440119,87.1356589 C325.703342,85.5044811 328.462054,83.7194861 330.721622,81.7735195 C332.982979,79.8293416 335.036806,78.0407694 336.875947,76.4113802 C338.716878,74.7802024 340.688408,73.9646135 342.794118,73.9646135 C345.527783,73.9646135 347.946576,75.044911 350.048707,77.1983519 C352.150839,79.3535814 353.204588,81.7449024 353.204588,84.3723149 C353.204588,85.5313097 353.018527,86.5579501 352.653561,87.4468705" id="Fill-10"></path>
                <path d="M378.682063,105.428817 C376.841132,107.265681 374.606611,108.186796 371.980289,108.186796 C369.34681,108.186796 367.087243,107.265681 365.196219,105.428817 C363.299828,103.591954 362.358789,101.352661 362.358789,98.7270374 L362.358789,10.0943436 C362.358789,7.46514252 363.299828,5.2043873 365.196219,3.3085008 C367.087243,1.41976859 369.34681,0.471825338 371.980289,0.471825338 C374.606611,0.471825338 376.841132,1.41976859 378.682063,3.3085008 C380.524782,5.2043873 381.446142,7.46514252 381.446142,10.0943436 L381.446142,98.7270374 C381.446142,101.352661 380.524782,103.591954 378.682063,105.428817" id="Fill-12"></path>
                <path d="M441.939937,65.2889653 C441.150967,62.9817072 440.0185,60.9534664 438.546113,59.2167628 C437.073727,57.4872135 435.28289,56.1207444 433.180758,55.1209325 C431.080416,54.1193321 428.659834,53.622109 425.927958,53.622109 C423.190714,53.622109 420.770132,54.1193321 418.668001,55.1209325 C416.56587,56.1207444 414.776822,57.4872135 413.304435,59.2167628 C411.833838,60.9534664 410.726417,62.9817072 409.991118,65.2889653 C409.25403,67.6069548 408.889065,70.0751844 408.889065,72.7043855 C408.889065,75.3300095 409.25403,77.8036048 409.991118,80.1162286 C410.726417,82.4288524 411.833838,84.4517275 413.304435,86.1884311 C414.776822,87.9233461 416.56587,89.2898152 418.668001,90.2896271 C420.770132,91.2912275 423.190714,91.786662 425.927958,91.786662 C428.659834,91.786662 431.080416,91.2912275 433.180758,90.2896271 C435.28289,89.2898152 437.073727,87.9233461 438.546113,86.1884311 C440.0185,84.4517275 441.150967,82.4288524 441.939937,80.1162286 C442.727118,77.8036048 443.11892,75.3300095 443.11892,72.7043855 C443.11892,70.0751844 442.727118,67.6069548 441.939937,65.2889653 M459.209617,86.7375227 C457.320383,91.1570846 454.742365,94.9953604 451.48093,98.2505618 C448.219496,101.511129 444.380199,104.09025 439.964828,105.978982 C435.549458,107.874869 430.869308,108.821023 425.927958,108.821023 C420.983029,108.821023 416.302879,107.874869 411.88572,105.978982 C407.47035,104.09025 403.625685,101.511129 400.371407,98.2505618 C397.108184,94.9953604 394.535533,91.1570846 392.639142,86.7375227 C390.749907,82.3233266 389.801712,77.6497876 389.801712,72.7043855 C389.801712,67.760772 390.749907,63.0818672 392.639142,58.6676711 C394.535533,54.253475 397.108184,50.4151991 400.371407,47.1546321 C403.625685,43.8994307 407.47035,41.3203097 411.88572,39.4262117 C416.302879,37.535691 420.983029,36.5895363 425.927958,36.5895363 C430.869308,36.5895363 435.549458,37.535691 439.964828,39.4262117 C444.380199,41.3203097 448.219496,43.8994307 451.48093,47.1546321 C454.742365,50.4151991 457.320383,54.253475 459.209617,58.6676711 C461.106008,63.0818672 462.048837,67.760772 462.048837,72.7043855 C462.048837,77.6497876 461.106008,82.3233266 459.209617,86.7375227" id="Fill-14"></path>
                <path d="M534.301329,88.4740475 C532.512281,92.577032 530.091699,96.1237706 527.046739,99.119629 C523.992834,102.115487 520.418316,104.481768 516.319607,106.216683 C512.21732,107.953387 507.848465,108.820844 503.227354,108.820844 C498.59372,108.820844 494.232021,107.953387 490.133312,106.216683 C486.029236,104.481768 482.456507,102.115487 479.404391,99.119629 C476.348697,96.1237706 473.962107,92.577032 472.226731,88.4740475 C470.489565,84.3728515 469.627244,80.010524 469.627244,75.3834878 L469.627244,46.6822702 C469.627244,44.0530691 470.541447,41.8191424 472.385956,39.9769131 C474.221519,38.1382609 476.45604,37.2189348 479.08773,37.2189348 C481.712263,37.2189348 483.978987,38.1382609 485.87001,39.9769131 C487.764612,41.8191424 488.714597,44.0530691 488.714597,46.6822702 L488.714597,77.2793743 C488.714597,81.2750445 490.025969,84.6894288 492.65408,87.5261042 C495.283981,90.369934 498.804827,91.7882717 503.227354,91.7882717 C507.537171,91.7882717 511.058017,90.369934 513.795261,87.5261042 C516.525348,84.6894288 517.897548,81.2750445 517.897548,77.2793743 L517.897548,46.6822702 C517.897548,44.0530691 518.815329,41.8191424 520.65626,39.9769131 C522.493612,38.1382609 524.728133,37.2189348 527.359822,37.2189348 C529.986145,37.2189348 532.25108,38.1382609 534.142103,39.9769131 C536.038494,41.8191424 536.98669,44.0530691 536.98669,46.6822702 L536.98669,75.3834878 C536.98669,80.010524 536.090377,84.3728515 534.301329,88.4740475" id="Fill-16"></path>
                <path d="M596.695987,65.2889653 C595.907017,62.9817072 594.772761,60.9534664 593.302163,59.2167628 C591.827988,57.4872135 590.03894,56.1207444 587.936808,55.1209325 C585.836466,54.1193321 583.415884,53.622109 580.684008,53.622109 C577.946764,53.622109 575.526182,54.1193321 573.424051,55.1209325 C571.32192,56.1207444 569.532872,57.4872135 568.060485,59.2167628 C566.589888,60.9534664 565.482467,62.9817072 564.747168,65.2889653 C564.010081,67.6069548 563.645115,70.0751844 563.645115,72.7043855 C563.645115,75.3300095 564.010081,77.8036048 564.747168,80.1162286 C565.482467,82.4288524 566.589888,84.4517275 568.060485,86.1884311 C569.532872,87.9233461 571.32192,89.2898152 573.424051,90.2896271 C575.526182,91.2912275 577.946764,91.786662 580.684008,91.786662 C583.415884,91.786662 585.836466,91.2912275 587.936808,90.2896271 C590.03894,89.2898152 591.827988,87.9233461 593.302163,86.1884311 C594.772761,84.4517275 595.907017,82.4288524 596.695987,80.1162286 C597.483168,77.8036048 597.87497,75.3300095 597.87497,72.7043855 C597.87497,70.0751844 597.483168,67.6069548 596.695987,65.2889653 M614.046175,105.349405 C612.203455,107.245291 609.968934,108.18608 607.342612,108.18608 C605.235113,108.18608 603.238536,107.370491 601.349301,105.746468 C599.45291,104.117079 598.506504,101.723969 598.506504,98.5689276 C597.032328,101.511129 594.488302,103.957896 590.854746,105.900285 C587.228345,107.84804 583.204776,108.821023 578.787617,108.821023 C573.948242,108.821023 569.452365,107.874869 565.301773,105.978982 C561.145815,104.09025 557.519414,101.511129 554.415416,98.2505618 C551.313207,94.9953604 548.892625,91.1570846 547.157249,86.7375227 C545.42545,82.3233266 544.555973,77.6497876 544.555973,72.7043855 C544.555973,67.760772 545.42545,63.0818672 547.157249,58.6676711 C548.892625,54.253475 551.313207,50.4151991 554.415416,47.1546321 C557.519414,43.8994307 561.145815,41.3203097 565.301773,39.4262117 C569.452365,37.535691 573.948242,36.5895363 578.787617,36.5895363 C580.997091,36.5895363 583.124269,36.879285 585.179885,37.4569938 C587.228345,38.032914 589.092533,38.7948458 590.774238,39.742789 C592.459522,40.6907323 593.903283,41.7388356 595.116258,42.8978303 C596.323865,44.0514594 597.247014,45.2104541 597.87497,46.3658718 L597.87497,9.93623383 C597.87497,7.30524417 598.798119,5.07131753 600.639049,3.22908819 C602.476401,1.39222458 604.710922,0.471109909 607.342612,0.471109909 C609.968934,0.471109909 612.203455,1.39222458 614.046175,3.22908819 C615.883527,5.07131753 616.804887,7.30524417 616.804887,9.93623383 L616.804887,98.5689276 C616.804887,101.199917 615.883527,103.458884 614.046175,105.349405" id="Fill-18"></path>
                <path d="M668.009945,18.881241 C667.707596,19.1799325 667.328317,19.3301726 666.868532,19.3301726 C666.410536,19.3301726 666.029469,19.1799325 665.730698,18.881241 C665.431927,18.5789723 665.278069,18.199795 665.278069,17.7419205 L665.278069,10.2138202 C664.251155,12.2992954 663.465763,13.8982789 662.920103,15.0089822 C662.372655,16.1232627 661.964752,16.9352744 661.701762,17.4503832 C661.435193,17.9601263 661.249132,18.3053207 661.143579,18.4823894 C660.85912,19.0475782 660.417225,19.3301726 659.816105,19.3301726 C659.145212,19.3301726 658.687216,19.0475782 658.438538,18.4823894 L654.304048,10.2138202 L654.304048,17.7419205 C654.304048,18.199795 654.153768,18.5789723 653.854997,18.881241 C653.552648,19.1799325 653.17337,19.3301726 652.713584,19.3301726 C652.25201,19.3301726 651.872732,19.1799325 651.573961,18.881241 C651.271612,18.5789723 651.123121,18.199795 651.123121,17.7419205 L651.123121,3.48163458 C651.123121,3.02376011 651.271612,2.64100566 651.573961,2.34231411 C651.872732,2.04362256 652.25201,1.88980535 652.713584,1.88980535 C653.064238,1.88980535 653.366587,1.98817682 653.615265,2.18313119 C653.862153,2.37629698 654.05537,2.61596565 654.198494,2.89856006 L659.816105,14.2935533 L665.385411,2.89856006 C665.523168,2.61596565 665.719963,2.37629698 665.968641,2.18313119 C666.21553,1.98817682 666.51609,1.88980535 666.868532,1.88980535 C667.328317,1.88980535 667.707596,2.04362256 668.009945,2.34231411 C668.308716,2.64100566 668.458996,3.02376011 668.458996,3.48163458 L668.458996,17.7419205 C668.458996,18.199795 668.308716,18.5789723 668.009945,18.881241 M647.224785,4.83379514 C646.926014,5.13248669 646.543158,5.28272676 646.085162,5.28272676 L641.367442,5.28272676 L641.367442,17.6346062 C641.367442,18.1318292 641.208217,18.534258 640.891555,18.8544124 C640.571316,19.1709896 640.165202,19.3301726 639.671425,19.3301726 C639.174069,19.3301726 638.769744,19.1709896 638.451294,18.8544124 C638.131054,18.534258 637.975407,18.1318292 637.975407,17.6346062 L637.975407,5.28272676 L633.30957,5.28272676 C632.847996,5.28272676 632.468717,5.13248669 632.169946,4.83379514 C631.867597,4.53510359 631.717317,4.15234915 631.717317,3.69447467 C631.717317,3.23481162 631.867597,2.85384575 632.169946,2.5551542 C632.468717,2.25467408 632.847996,2.10264544 633.30957,2.10264544 L646.085162,2.10264544 C646.543158,2.10264544 646.926014,2.25467408 647.224785,2.5551542 C647.523556,2.85384575 647.677414,3.23481162 647.677414,3.69447467 C647.677414,4.15234915 647.523556,4.53510359 647.224785,4.83379514" id="Fill-20"></path>
            </g>
        </g>
    </g>
</svg>