<?xml version="1.0" encoding="UTF-8"?>
<svg width="1041px" height="250px" viewBox="0 0 1041 250" version="1.1" xmlns="http://www.w3.org/2000/svg" xmlns:xlink="http://www.w3.org/1999/xlink">
    <title>Brand - MP Technologies</title>
    <defs>
        <linearGradient x1="0%" y1="50.000117%" x2="100.000051%" y2="50.000117%" id="linearGradient-1">
            <stop stop-color="#00AAD6" offset="0%"></stop>
            <stop stop-color="#1C1C4B" offset="100%"></stop>
        </linearGradient>
    </defs>
    <g id="Brand---MP-Technologies" stroke="none" stroke-width="1" fill="none" fill-rule="evenodd">
        <g id="Group" transform="translate(0.000000, 0.000000)">
            <g id="Brand/Logo---Current" transform="translate(0.000000, 0.000000)">
                <path d="M163.774606,137.213305 L137.546377,137.124012 C134.246489,137.124012 131.355756,139.392379 130.560961,142.602243 L122.66161,174.262248 L107.130974,66.3534817 C106.629329,62.9070684 103.740163,60.3159922 100.263132,60.1687364 C96.6685273,60.0810095 93.6900063,62.4073385 92.9249967,65.7942228 L75.2122023,144.486804 L65.4567621,101.193587 C64.7513229,98.0730163 62.0690864,95.7748853 58.8852041,95.5994315 C55.6731043,95.3628823 52.7275038,97.3069727 51.6364245,100.310052 L40.5547586,137.213305 L9.54678698,137.136544 C6.59178058,137.128712 3.92835572,138.916147 2.81532944,141.651346 C0.87772312,146.412096 4.38140445,151.617746 9.52483998,151.620879 L45.6229473,151.644378 C48.6594711,151.644378 51.3714929,149.730052 52.4014341,146.872662 L56.7939688,128.406153 L68.1703516,178.916473 C68.9071436,182.184299 71.8229589,184.540393 75.2122023,184.540393 C78.5716605,184.540393 81.5188287,182.184299 82.2556208,178.916473 L98.407043,107.173114 L113.614744,212.783749 C114.11639,216.200398 116.944417,218.793041 120.393231,218.968495 L120.775736,218.968495 C124.077191,218.968495 126.964789,216.731459 127.761152,213.490264 L143.172647,151.614613 L157.88027,151.614613 L163.774606,137.213305 Z" id="Pulse" fill="#E23C50"></path>
                <path d="M93.041159,0 C62.0143756,0 36.551156,24.1546575 34.4646237,54.7337426 L34.4646237,54.7337426 C34.463056,54.7682068 34.4567855,54.8026709 34.4536502,54.837135 L34.4536502,54.837135 C13.8814757,61.5827058 0,80.0178838 0,101.547001 L0,101.547001 C0,110.529607 1.72440692,122.413467 11.7102906,132.176216 L11.7102906,132.176216 L29.3713527,132.176216 C19.280437,122.18475 14.4426917,112.787008 14.4426917,101.547001 L14.4426917,101.547001 C14.4426917,84.9681865 26.2564468,70.9506837 43.2010962,67.4447415 L43.2010962,67.4447415 C45.6905127,66.9841753 47.4102167,66.8760833 49.5641577,66.7711243 L49.5641577,66.7711243 C49.5641577,66.7711243 49.5516166,66.7131619 49.5437783,66.6739981 L49.5437783,66.6739981 C49.4450169,66.1977665 48.8101216,62.9346397 48.825798,57.5472691 L48.825798,57.5472691 C49.4167993,33.6620585 68.9982236,14.4013079 93.041159,14.4013079 L93.041159,14.4013079 C108.841429,14.4310724 123.547485,23.4434431 131.417051,37.9324779 L131.417051,37.9324779 L133.920576,42.2812248 L133.940956,42.315689 C133.940956,42.315689 138.595287,39.8687355 144.528814,40.142882 L144.528814,40.142882 C157.038603,40.142882 167.548079,49.0064304 170.347889,61.6719992 L170.347889,61.6719992 C170.942025,63.8040758 171.222633,66.5565068 171.222633,66.5565068 L171.222633,66.5565068 C171.222633,66.5565068 171.277501,66.562773 171.329233,66.5659061 L171.329233,66.5659061 C171.834014,66.6191688 174.674582,66.912114 176.152869,67.2066256 L176.152869,67.2066256 L176.154437,67.2066256 C193.423588,70.2410359 205.978838,84.6721082 205.978838,101.547001 L205.978838,101.547001 C205.978838,121.221321 189.973207,137.214245 170.286751,137.214245 L170.286751,137.214245 L163.774763,137.214245 L157.880427,151.613987 L170.286751,151.643751 C171.203822,151.643751 172.11619,151.613987 172.998772,151.585789 L172.998772,151.585789 C199.405713,150.142995 220.418395,128.259837 220.418395,101.547001 L220.418395,101.547001 C220.418395,79.1954442 205.0069,59.8454002 183.196288,54.0146955 L183.196288,54.0146955 C183.191585,54.0021631 183.186882,53.9911972 183.182179,53.9786648 L183.182179,53.9786648 C177.486933,37.1241373 162.20085,25.7118097 144.528814,25.7118097 L144.528814,25.7118097 C143.310756,25.7118097 142.183621,25.8559324 141.166221,26.0846489 L141.166221,26.0846489 C141.150544,26.087782 141.130165,26.0893486 141.112921,26.0940482 L141.112921,26.0940482 C130.208399,9.86614131 112.25889,0 93.041159,0 Z" id="Cloud" fill="url(#linearGradient-1)"></path>
                <g id="Text" transform="translate(275.477610, 10.419134)" fill="#1C1C4C">
                    <path d="M94.0662405,92.2719195 C92.3637806,93.9308975 90.3117364,94.7564702 87.9148107,94.7564702 C85.5194528,94.7564702 83.4924908,93.9308975 81.8370602,92.2719195 C80.175359,90.6160746 79.3445084,88.5905235 79.3445084,86.1936997 L79.3445084,45.3067057 C74.9237561,54.1483223 71.3040692,61.4453192 68.4932859,67.1992628 C65.6825027,72.9563396 63.4972088,77.3755813 61.9279985,80.4632543 C60.3603559,83.5462277 59.2332208,85.8271267 58.5403228,87.296552 C57.8489923,88.7706769 57.367726,89.7403723 57.0886857,90.1993719 C55.521043,93.2400483 53.0802234,94.7564702 49.7630915,94.7564702 C46.3534688,94.7564702 43.9126492,93.1946183 42.4374974,90.0599488 L20.0468575,45.3067057 L20.0468575,86.0542766 C20.0468575,88.4511004 19.1940599,90.5001498 17.4853294,92.2029912 C15.7828694,93.9042662 13.7323929,94.7564702 11.3386025,94.7564702 C8.94010927,94.7564702 6.91314733,93.9042662 5.25614904,92.2029912 C3.59601548,90.5001498 2.76516487,88.4511004 2.76516487,86.0542766 L2.76516487,8.97681002 C2.76516487,6.58311934 3.59601548,4.55756826 5.25614904,2.89702368 C6.91314733,1.2427453 8.94010927,0.412473008 11.3386025,0.412473008 C13.1805826,0.412473008 14.7905516,0.921602244 16.1732125,1.93359451 C17.5558733,2.94871988 18.6140321,4.23799176 19.355527,5.7998436 L49.7630915,67.5454707 L79.8963186,5.7998436 C80.6346783,4.23799176 81.69754,2.94871988 83.0802008,1.93359451 C84.4628616,0.921602244 86.071263,0.412473008 87.9148107,0.412473008 C90.3117364,0.412473008 92.3637806,1.26624357 94.0662405,2.96751849 C95.7734034,4.67349307 96.621498,6.72254243 96.621498,9.11466656 L96.621498,86.1936997 C96.621498,88.5905235 95.7734034,90.6160746 94.0662405,92.2719195" id="Fill-6"></path>
                    <path d="M174.31136,26.1769188 C173.847337,24.7482238 173.113681,23.4824502 172.097848,22.3748983 C171.086719,21.2720461 169.773034,20.3540469 168.15993,19.6115015 C166.54369,18.8783554 164.632734,18.5070827 162.423925,18.5070827 L134.77698,18.5070827 L134.77698,41.8518331 L162.423925,41.8518331 C164.632734,41.8518331 166.54369,41.5087583 168.15993,40.8179091 C169.773034,40.1270599 171.086719,39.2513576 172.097848,38.1939353 C173.113681,37.1365131 173.847337,35.9130363 174.31136,34.5313379 C174.770679,33.1496395 175.00269,31.7679411 175.00269,30.3862427 C175.00269,29.0045443 174.770679,27.6040472 174.31136,26.1769188 M191.588349,41.1609838 C190.298179,44.5682333 188.294732,47.5869781 185.57644,50.2109518 C182.85658,52.8349256 179.376413,54.9309715 175.14221,56.4943899 C170.901737,58.0609414 165.788086,58.8442171 159.798124,58.8442171 L134.77698,58.8442171 L134.77698,85.641647 C134.77698,88.2186242 133.87872,90.3851649 132.082202,92.1334363 C130.287251,93.8801413 128.097254,94.7558436 125.516914,94.7558436 C122.933439,94.7558436 120.77166,93.8801413 119.017468,92.1334363 C117.267979,90.3851649 116.391667,88.2186242 116.391667,85.641647 L116.391667,10.7745845 C116.391667,8.19604076 117.267979,6.03263315 119.017468,4.27966203 C120.77166,2.53139056 122.933439,1.65568827 125.516914,1.65568827 L159.798124,1.65568827 C165.788086,1.65568827 170.901737,2.46246229 175.14221,4.07601033 C179.376413,5.68329216 182.85658,7.80283634 185.57644,10.4268101 C188.294732,13.0507838 190.298179,16.1165251 191.588349,19.6115015 C192.878519,23.1158772 193.52282,26.7048467 193.52282,30.3862427 C193.52282,34.1647649 192.878519,37.758434 191.588349,41.1609838" id="Fill-8"></path>
                    <path d="M311.775592,76.5918356 C311.45109,77.3751114 310.968256,78.1348889 310.323955,78.8727346 C305.990991,84.2131087 300.621815,88.3112074 294.219562,91.1685973 C287.812607,94.019721 281.247319,95.4468494 274.520565,95.4468494 C267.884733,95.4468494 261.687842,94.2045741 255.92989,91.7200234 C250.167236,89.2339062 245.171159,85.8282232 240.930685,81.4967084 C236.693347,77.1714597 233.349566,72.1036656 230.908746,66.304292 C228.467926,60.4986521 227.2483,54.2857089 227.2483,47.656063 C227.2483,41.0264171 228.467926,34.8322725 230.908746,29.0736292 C233.349566,23.3212521 236.693347,18.2800894 240.930685,13.9501411 C245.171159,9.62489238 250.167236,6.21294322 255.92989,3.726826 C261.687842,1.24227533 267.884733,0 274.520565,0 C277.285886,0 280.073155,0.203651694 282.885506,0.620354392 C285.691586,1.03392399 288.433393,1.70127492 291.110927,2.62397375 C293.779055,3.54667258 296.312365,4.74351792 298.710858,6.21294322 C301.104649,7.68706818 303.271131,9.4400393 305.210305,11.4655904 C307.144776,13.3987149 308.110444,15.605986 308.110444,18.0952363 C308.110444,20.4873604 307.256078,22.4674815 305.553618,24.034033 C303.846456,25.6021511 301.843008,26.3807272 299.541709,26.3807272 C297.972499,26.3807272 296.433074,25.8982293 294.910893,24.9332336 C293.388712,23.9651048 291.709766,22.8841842 289.863083,21.6842058 C288.021103,20.4873604 285.854621,19.4080065 283.366772,18.4383111 C280.880491,17.4748819 277.930187,16.9876844 274.520565,16.9876844 C270.1876,16.9876844 266.248114,17.7944584 262.703674,19.4080065 C259.154531,21.0215545 256.138387,23.2288256 253.647403,26.0376524 C251.159554,28.8464792 249.225083,32.1158722 247.842422,35.8426982 C246.459761,39.5757904 245.769998,43.5109677 245.769998,47.656063 C245.769998,51.7964586 246.459761,55.7379021 247.842422,59.4647282 C249.225083,63.1931207 251.159554,66.4656468 253.647403,69.2713405 C256.138387,72.0801673 259.154531,74.3156363 262.703674,75.9699147 C266.248114,77.6304593 270.1876,78.459165 274.520565,78.459165 C278.853529,78.459165 282.444998,77.7463841 285.302811,76.3176891 C288.160623,74.8905607 290.577928,73.3287089 292.559429,71.6211677 C294.539361,69.9198928 296.339015,68.3533413 297.950552,66.9246464 C299.563656,65.4959514 301.291198,64.7831705 303.136314,64.7831705 C305.531672,64.7831705 307.651124,65.727801 309.493104,67.6154956 C311.335085,69.5031901 312.258426,71.5976695 312.258426,73.8973671 C312.258426,74.914059 312.095391,75.811693 311.775592,76.5918356" id="Fill-10"></path>
                    <path d="M334.583695,92.3408478 C332.969023,93.9496962 331.011038,94.7564702 328.709738,94.7564702 C326.403736,94.7564702 324.423803,93.9496962 322.766805,92.3408478 C321.105104,90.7319994 320.278956,88.7706769 320.278956,86.4709793 L320.278956,8.8420866 C320.278956,6.53768935 321.105104,4.55756826 322.766805,2.89702368 C324.423803,1.2427453 326.403736,0.412473008 328.709738,0.412473008 C331.011038,0.412473008 332.969023,1.2427453 334.583695,2.89702368 C336.198367,4.55756826 337.005703,6.53768935 337.005703,8.8420866 L337.005703,86.4709793 C337.005703,88.7706769 336.198367,90.7319994 334.583695,92.3408478" id="Fill-12"></path>
                    <path d="M390.011464,57.1844558 C389.320133,55.1620378 388.327815,53.387135 387.037646,51.8660135 C385.747476,50.3495916 384.179833,49.1543128 382.337853,48.277044 C380.495873,47.4013417 378.37642,46.9658404 375.981062,46.9658404 C373.584136,46.9658404 371.463116,47.4013417 369.621136,48.277044 C367.779156,49.1543128 366.211513,50.3495916 364.921343,51.8660135 C363.631173,53.387135 362.66237,55.1620378 362.016501,57.1844558 C361.3722,59.2147065 361.052401,61.374981 361.052401,63.6793783 C361.052401,65.9790759 361.3722,68.14405 362.016501,70.1711677 C362.66237,72.1967188 363.631173,73.966922 364.921343,75.4880435 C366.211513,77.009165 367.779156,78.2044437 369.621136,79.0817126 C371.463116,79.9574149 373.584136,80.3929162 375.981062,80.3929162 C378.37642,80.3929162 380.495873,79.9574149 382.337853,79.0817126 C384.179833,78.2044437 385.747476,77.009165 387.037646,75.4880435 C388.327815,73.966922 389.320133,72.1967188 390.011464,70.1711677 C390.702794,68.14405 391.046108,65.9790759 391.046108,63.6793783 C391.046108,61.374981 390.702794,59.2147065 390.011464,57.1844558 M405.145486,75.9705413 C403.490055,79.8414901 401.229514,83.2033096 398.371702,86.0544333 C395.513889,88.9102567 392.151296,91.1676574 388.280786,92.8235023 C384.411844,94.4840469 380.310891,95.3127526 375.981062,95.3127526 C371.648098,95.3127526 367.547144,94.4840469 363.678202,92.8235023 C359.807693,91.1676574 356.440396,88.9102567 353.587287,86.0544333 C350.729474,83.2033096 348.473636,79.8414901 346.813503,75.9705413 C345.156504,72.1027257 344.325654,68.0093266 344.325654,63.6793783 C344.325654,59.34943 345.156504,55.2513313 346.813503,51.3835156 C348.473636,47.5172665 350.729474,44.1570136 353.587287,41.2996237 C356.440396,38.4484999 359.807693,36.1910992 363.678202,34.5321212 C367.547144,32.8762763 371.648098,32.046004 375.981062,32.046004 C380.310891,32.046004 384.411844,32.8762763 388.280786,34.5321212 C392.151296,36.1910992 395.513889,38.4484999 398.371702,41.2996237 C401.229514,44.1570136 403.490055,47.5172665 405.145486,51.3835156 C406.807187,55.2513313 407.633335,59.34943 407.633335,63.6793783 C407.633335,68.0093266 406.807187,72.1027257 405.145486,75.9705413" id="Fill-14"></path>
                    <path d="M470.943367,77.4915062 C469.375724,81.0836087 467.254704,84.1900803 464.588144,86.8156206 C461.91061,89.4380278 458.77846,91.512142 455.188558,93.031697 C451.592386,94.5528185 447.764203,95.312596 443.713414,95.312596 C439.654787,95.312596 435.831307,94.5528185 432.241405,93.031697 C428.645233,91.512142 425.513083,89.4380278 422.840252,86.8156206 C420.164286,84.1900803 418.071483,81.0836087 416.549302,77.4915062 C415.028689,73.897837 414.271518,70.0785845 414.271518,66.0259158 L414.271518,40.887464 C414.271518,38.5830667 415.074151,36.6264439 416.688822,35.0128959 C418.298791,33.4040475 420.256777,32.5972734 422.562779,32.5972734 C424.864079,32.5972734 426.850282,33.4040475 428.505713,35.0128959 C430.167414,36.6264439 430.998265,38.5830667 430.998265,40.887464 L430.998265,67.6848938 C430.998265,71.1861364 432.147347,74.1766832 434.448646,76.6612339 C436.754648,79.1504842 439.839769,80.3943261 443.713414,80.3943261 C447.491433,80.3943261 450.576554,79.1504842 452.975047,76.6612339 C455.368837,74.1766832 456.571219,71.1861364 456.571219,67.6848938 L456.571219,40.887464 C456.571219,38.5830667 457.372285,36.6264439 458.988524,35.0128959 C460.596925,33.4040475 462.554911,32.5972734 464.860914,32.5972734 C467.162213,32.5972734 469.148416,33.4040475 470.805414,35.0128959 C472.465548,36.6264439 473.294831,38.5830667 473.294831,40.887464 L473.294831,66.0259158 C473.294831,70.0785845 472.51101,73.897837 470.943367,77.4915062" id="Fill-16"></path>
                    <path d="M525.615688,57.1844558 C524.924358,55.1620378 523.93204,53.387135 522.64187,51.8660135 C521.3517,50.3495916 519.784058,49.1543128 517.942077,48.277044 C516.100097,47.4013417 513.980645,46.9658404 511.585287,46.9658404 C509.188361,46.9658404 507.06734,47.4013417 505.22536,48.277044 C503.38338,49.1543128 501.81417,50.3495916 500.525568,51.8660135 C499.235398,53.387135 498.266595,55.1620378 497.620726,57.1844558 C496.976425,59.2147065 496.655058,61.374981 496.655058,63.6793783 C496.655058,65.9790759 496.976425,68.14405 497.620726,70.1711677 C498.266595,72.1967188 499.235398,73.966922 500.525568,75.4880435 C501.81417,77.009165 503.38338,78.2044437 505.22536,79.0817126 C507.06734,79.9574149 509.188361,80.3929162 511.585287,80.3929162 C513.980645,80.3929162 516.100097,79.9574149 517.942077,79.0817126 C519.784058,78.2044437 521.3517,77.009165 522.64187,75.4880435 C523.93204,73.966922 524.924358,72.1967188 525.615688,70.1711677 C526.307019,68.14405 526.650332,65.9790759 526.650332,63.6793783 C526.650332,61.374981 526.307019,59.2147065 525.615688,57.1844558 M540.820254,92.2720762 C539.204015,93.9310542 537.247597,94.7566268 534.946297,94.7566268 C533.099614,94.7566268 531.350125,94.0422793 529.694694,92.6198506 C528.032993,91.1911556 527.202143,89.0966763 527.202143,86.3317129 C525.911973,88.9102567 523.681217,91.0517325 520.498903,92.754574 C517.319723,94.458982 513.794095,95.3127526 509.925153,95.3127526 C505.68468,95.3127526 501.745194,94.4840469 498.108263,92.8235023 C494.466629,91.1676574 491.289017,88.9102567 488.569157,86.0544333 C485.850865,83.2033096 483.729844,79.8414901 482.209231,75.9705413 C480.691753,72.1027257 479.929878,68.0093266 479.929878,63.6793783 C479.929878,59.34943 480.691753,55.2513313 482.209231,51.3835156 C483.729844,47.5172665 485.850865,44.1570136 488.569157,41.2996237 C491.289017,38.4484999 494.466629,36.1910992 498.108263,34.5321212 C501.745194,32.8762763 505.68468,32.046004 509.925153,32.046004 C511.859624,32.046004 513.725119,32.3013519 515.524773,32.8057815 C517.319723,33.3117776 518.953207,33.9791285 520.428359,34.8094008 C521.90351,35.6396731 523.170166,36.5576723 524.233027,37.5727976 C525.291186,38.5832234 526.098522,39.5983487 526.650332,40.6087744 L526.650332,8.70282017 C526.650332,6.39842292 527.457668,4.44180011 529.07234,2.82825207 C530.682309,1.21940368 532.640295,0.412629663 534.946297,0.412629663 C537.247597,0.412629663 539.204015,1.21940368 540.820254,2.82825207 C542.430223,4.44180011 543.235992,6.39842292 543.235992,8.70282017 L543.235992,86.3317129 C543.235992,88.6376767 542.430223,90.6162312 540.820254,92.2720762" id="Fill-18"></path>
                    <path d="M83.8359613,135.42634 C82.1287985,137.086885 80.0783219,137.910891 77.6845316,137.910891 L52.3890498,137.910891 L52.3890498,204.492462 C52.3890498,207.071006 51.4892229,209.259479 49.694272,211.05318 C47.8977536,212.851581 45.7077568,213.747649 43.1289846,213.747649 C40.5439419,213.747649 38.3774597,212.851581 36.6295382,211.05318 C34.880049,209.259479 34.0021691,207.071006 34.0021691,204.492462 L34.0021691,137.910891 L8.56873473,137.910891 C6.17024147,137.910891 4.14798245,137.086885 2.48628124,135.42634 C0.830850605,133.770495 0,131.744944 0,129.34812 C0,126.955996 0.830850605,124.906947 2.48628124,123.200972 C4.14798245,121.498131 6.17024147,120.645927 8.56873473,120.645927 L77.6845316,120.645927 C80.0783219,120.645927 82.1287985,121.498131 83.8359613,123.200972 C85.5384212,124.906947 86.3927865,126.955996 86.3927865,129.34812 C86.3927865,131.744944 85.5384212,133.770495 83.8359613,135.42634" id="Fill-20"></path>
                    <path d="M112.861022,168.30246 C110.420202,166.182916 107.353893,165.12706 103.669933,165.12706 C99.9812698,165.12706 96.9431783,166.118687 94.5478203,168.094108 C92.1493271,170.077363 90.5816844,172.817261 89.8480277,176.313804 L117.629791,176.313804 C116.892999,173.091408 115.301841,170.422004 112.861022,168.30246 M132.282547,186.537119 C131.084868,187.552244 129.702207,188.056674 128.139267,188.056674 L89.5705549,188.056674 C90.0298742,191.645644 91.5975169,194.571962 94.2703476,196.829362 C96.9431783,199.086763 100.352801,200.21468 104.500784,200.21468 C107.446384,200.21468 109.960883,199.796411 112.034874,198.966139 C114.104162,198.140566 115.922628,197.08471 117.491838,195.790739 C119.5188,194.228887 121.498733,193.444045 123.439474,193.444045 C125.094905,193.444045 126.664115,194.089464 128.139267,195.378736 C129.887189,196.945287 130.765068,198.831415 130.765068,201.038686 C130.765068,202.699231 130.07217,204.126359 128.691077,205.323205 C125.187396,208.545601 121.244775,210.849998 116.869484,212.231697 C112.494193,213.611829 108.137714,214.302678 103.809453,214.302678 C99.4749212,214.302678 95.3974826,213.473972 91.5740022,211.813427 C87.7520894,210.159149 84.40674,207.900182 81.5536304,205.044358 C78.6958178,202.193235 76.4399801,198.831415 74.7798465,194.960467 C73.1228482,191.094217 72.2935653,187.000818 72.2935653,182.669303 C72.2935653,178.339355 73.0946307,174.241256 74.7108702,170.375007 C76.3192716,166.507192 78.5562976,163.146939 81.4141102,160.291115 C84.2719228,157.438425 87.6125692,155.181024 91.4360497,153.522046 C95.2579625,151.866201 99.3369686,151.037496 103.669933,151.037496 C107.998194,151.037496 112.034874,151.820771 115.765864,153.382623 C119.495285,154.949175 122.719926,157.137647 125.442922,159.948041 C128.156511,162.756867 130.277532,166.090489 131.799713,169.961438 C133.320326,173.829253 134.0822,178.065209 134.0822,182.669303 C134.0822,184.237422 133.478658,185.526693 132.282547,186.537119" id="Fill-22"></path>
                    <path d="M191.44977,206.426684 C190.433937,207.534235 189.143767,208.568159 187.576125,209.537855 C186.006914,210.501284 184.258993,211.331556 182.322954,212.022405 C180.388483,212.713255 178.361521,213.264681 176.240501,213.676684 C174.121048,214.094953 172.047057,214.303304 170.024798,214.303304 C165.690266,214.303304 161.589312,213.474599 157.72037,211.814054 C153.851428,210.158209 150.482564,207.900808 147.629455,205.044985 C144.771642,202.193861 142.517372,198.832042 140.855671,194.961093 C139.198672,191.093277 138.369389,186.999878 138.369389,182.66993 C138.369389,178.339982 139.198672,174.241883 140.855671,170.374067 C142.517372,166.507818 144.771642,163.147565 147.629455,160.290175 C150.482564,157.439052 153.851428,155.181651 157.72037,153.522673 C161.589312,151.866828 165.690266,151.036556 170.024798,151.036556 C173.801249,151.036556 177.39115,151.519054 180.805476,152.487182 C184.211964,153.452178 187.162267,154.995231 189.650116,157.114776 C191.677078,158.863047 192.69291,160.841602 192.69291,163.053572 C192.69291,164.435271 192.228888,165.724543 191.310249,166.919821 C189.742607,168.854512 187.714077,169.822641 185.227796,169.822641 C183.567662,169.822641 181.998452,169.410638 180.528003,168.580366 C178.960361,167.657667 177.350392,166.94332 175.68869,166.43889 C174.03326,165.932894 172.139547,165.677546 170.024798,165.677546 C167.626304,165.677546 165.505284,166.141245 163.663304,167.059244 C161.821324,167.981943 160.253681,169.20072 158.963511,170.721842 C157.673341,172.238264 156.681023,174.036665 155.994396,176.109212 C155.303065,178.17706 154.955049,180.365533 154.955049,182.66993 C154.955049,184.969628 155.303065,187.1581 155.994396,189.230648 C156.681023,191.303195 157.673341,193.096897 158.963511,194.618018 C160.253681,196.13914 161.821324,197.357917 163.663304,198.275916 C165.505284,199.198615 167.626304,199.657615 170.024798,199.657615 C172.970398,199.657615 175.387703,199.175117 177.279848,198.210121 C179.168857,197.241992 180.712985,196.342792 181.910664,195.517219 C183.381113,194.409667 185.088276,193.858241 187.022747,193.858241 C189.051276,193.858241 190.758439,194.641517 192.1411,196.208068 C193.24472,197.585067 193.798098,199.106188 193.798098,200.765166 C193.798098,202.792284 193.012709,204.678412 191.44977,206.426684" id="Fill-24"></path>
                    <path d="M260.763716,211.3314 C259.153747,212.940248 257.191059,213.747022 254.889759,213.747022 C252.585325,213.747022 250.627339,212.940248 249.01737,211.3314 C247.402698,209.722551 246.595362,207.761229 246.595362,205.461531 L246.595362,180.319946 C246.595362,176.267277 245.560718,172.860028 243.486727,170.096631 C241.412736,167.337934 238.211609,165.956236 233.878645,165.956236 C231.577346,165.956236 229.595845,166.368239 227.935712,167.198511 C226.278713,168.028783 224.941514,169.108137 223.925682,170.444406 C222.909849,171.779107 222.154246,173.300229 221.647897,175.001504 C221.138413,176.707478 220.88759,178.479248 220.88759,180.319946 L220.88759,205.461531 C220.88759,207.761229 220.080254,209.722551 218.465582,211.3314 C216.855613,212.940248 214.892925,213.747022 212.591625,213.747022 C210.285623,213.747022 208.327637,212.940248 206.717668,211.3314 C205.104564,209.722551 204.300363,207.761229 204.300363,205.461531 L204.300363,127.693215 C204.300363,125.388818 205.104564,123.432195 206.717668,121.818647 C208.327637,120.209799 210.285623,119.403025 212.591625,119.403025 C214.892925,119.403025 216.855613,120.209799 218.465582,121.818647 C220.080254,123.432195 220.88759,125.388818 220.88759,127.693215 L220.88759,160.017439 C222.63708,157.438895 225.123361,155.297419 228.352705,153.591445 C231.577346,151.89017 235.03243,151.036399 238.717958,151.036399 C242.5869,151.036399 246.041984,151.750747 249.086346,153.177875 C252.126005,154.60657 254.681263,156.563193 256.755254,159.047743 C258.829245,161.532294 260.420403,164.529107 261.524023,168.028783 C262.633914,171.528459 263.185724,175.349278 263.185724,179.489674 L263.185724,205.461531 C263.185724,207.761229 262.378388,209.722551 260.763716,211.3314" id="Fill-26"></path>
                    <path d="M333.057439,211.3314 C331.442767,212.940248 329.484781,213.747022 327.183482,213.747022 C324.877479,213.747022 322.897546,212.940248 321.240548,211.3314 C319.578847,209.722551 318.752699,207.761229 318.752699,205.461531 L318.752699,178.664101 C318.752699,175.164425 317.598914,172.169179 315.296047,169.684628 C312.991613,167.198511 309.904924,165.956236 306.031279,165.956236 C302.254828,165.956236 299.169707,167.198511 296.771214,169.684628 C294.377424,172.169179 293.181312,175.164425 293.181312,178.664101 L293.181312,205.461531 C293.181312,207.761229 292.372409,209.722551 290.759305,211.3314 C289.144633,212.940248 287.186647,213.747022 284.885347,213.747022 C282.579345,213.747022 280.597845,212.940248 278.940847,211.3314 C277.280713,209.722551 276.454565,207.761229 276.454565,205.461531 L276.454565,180.319946 C276.454565,176.267277 277.235251,172.446458 278.802894,168.854356 C280.370537,165.265386 282.486854,162.154215 285.16282,159.530241 C287.830948,156.906268 290.967801,154.83372 294.562406,153.317298 C298.153875,151.797743 301.977355,151.036399 306.031279,151.036399 C310.086771,151.036399 313.914954,151.797743 317.506423,153.317298 C321.101028,154.83372 324.233178,156.906268 326.904441,159.530241 C329.577272,162.154215 331.674778,165.265386 333.195391,168.854356 C334.717572,172.446458 335.477879,176.267277 335.477879,180.319946 L335.477879,205.461531 C335.477879,207.761229 334.667408,209.722551 333.057439,211.3314" id="Fill-28"></path>
                    <path d="M389.594314,176.174224 C388.902984,174.153373 387.910666,172.376904 386.620496,170.855782 C385.330326,169.340927 383.762683,168.145648 381.920703,167.268379 C380.078723,166.39111 377.95927,165.957175 375.563912,165.957175 C373.165419,165.957175 371.044398,166.39111 369.203986,167.268379 C367.362006,168.145648 365.792796,169.340927 364.504193,170.855782 C363.214023,172.376904 362.243653,174.153373 361.599351,176.174224 C360.953483,178.204475 360.633684,180.366316 360.633684,182.669147 C360.633684,184.968844 360.953483,187.135385 361.599351,189.160936 C362.243653,191.186487 363.214023,192.958257 364.504193,194.479379 C365.792796,195.998933 367.362006,197.195779 369.203986,198.071481 C371.044398,198.94875 373.165419,199.384251 375.563912,199.384251 C377.95927,199.384251 380.078723,198.94875 381.920703,198.071481 C383.762683,197.195779 385.330326,195.998933 386.620496,194.479379 C387.910666,192.958257 388.902984,191.186487 389.594314,189.160936 C390.285644,187.135385 390.628958,184.968844 390.628958,182.669147 C390.628958,180.366316 390.285644,178.204475 389.594314,176.174224 M404.728336,194.96031 C403.072905,198.831259 400.812365,202.193078 397.954552,205.044202 C395.09674,207.900025 391.732579,210.158992 387.863636,211.813271 C383.994694,213.473815 379.893741,214.302521 375.563912,214.302521 C371.230948,214.302521 367.129995,213.473815 363.261053,211.813271 C359.390543,210.158992 356.021679,207.900025 353.170137,205.044202 C350.310757,202.193078 348.056487,198.831259 346.394785,194.96031 C344.739355,191.094061 343.908504,187.000662 343.908504,182.669147 C343.908504,178.339199 344.739355,174.2411 346.394785,170.374851 C348.056487,166.508602 350.310757,163.146782 353.170137,160.290959 C356.021679,157.439835 359.390543,155.180868 363.261053,153.52189 C367.129995,151.866045 371.230948,151.037339 375.563912,151.037339 C379.893741,151.037339 383.994694,151.866045 387.863636,153.52189 C391.732579,155.180868 395.09674,157.439835 397.954552,160.290959 C400.812365,163.146782 403.072905,166.508602 404.728336,170.374851 C406.38847,174.2411 407.214617,178.339199 407.214617,182.669147 C407.214617,187.000662 406.38847,191.094061 404.728336,194.96031" id="Fill-30"></path>
                    <path d="M430.649307,211.3314 C429.034635,212.940248 427.07665,213.747022 424.77535,213.747022 C422.469348,213.747022 420.489415,212.940248 418.832417,211.3314 C417.170716,209.722551 416.346136,207.761229 416.346136,205.461531 L416.346136,127.832638 C416.346136,125.528241 417.170716,123.54812 418.832417,121.887575 C420.489415,120.233297 422.469348,119.403025 424.77535,119.403025 C427.07665,119.403025 429.034635,120.233297 430.649307,121.887575 C432.263979,123.54812 433.071315,125.528241 433.071315,127.832638 L433.071315,205.461531 C433.071315,207.761229 432.263979,209.722551 430.649307,211.3314" id="Fill-32"></path>
                    <path d="M487.87814,176.174224 C487.18681,174.153373 486.192924,172.376904 484.904322,170.855782 C483.614152,169.340927 482.04651,168.145648 480.202962,167.268379 C478.362549,166.39111 476.241529,165.957175 473.847739,165.957175 C471.449245,165.957175 469.328225,166.39111 467.487812,167.268379 C465.645832,168.145648 464.076622,169.340927 462.78802,170.855782 C461.49785,172.376904 460.527479,174.153373 459.883178,176.174224 C459.237309,178.204475 458.91751,180.366316 458.91751,182.669147 C458.91751,184.968844 459.237309,187.135385 459.883178,189.160936 C460.527479,191.186487 461.49785,192.958257 462.78802,194.479379 C464.076622,195.998933 465.645832,197.195779 467.487812,198.071481 C469.328225,198.94875 471.449245,199.384251 473.847739,199.384251 C476.241529,199.384251 478.362549,198.94875 480.202962,198.071481 C482.04651,197.195779 483.614152,195.998933 484.904322,194.479379 C486.192924,192.958257 487.18681,191.186487 487.87814,189.160936 C488.569471,187.135385 488.912784,184.968844 488.912784,182.669147 C488.912784,180.366316 488.569471,178.204475 487.87814,176.174224 M503.012162,194.96031 C501.355164,198.831259 499.096191,202.193078 496.238379,205.044202 C493.380566,207.900025 490.016405,210.158992 486.147463,211.813271 C482.278521,213.473815 478.177568,214.302521 473.847739,214.302521 C469.514774,214.302521 465.412253,213.473815 461.543311,211.813271 C457.674369,210.158992 454.305505,207.900025 451.452396,205.044202 C448.594583,202.193078 446.340313,198.831259 444.678612,194.96031 C443.023181,191.094061 442.19233,187.000662 442.19233,182.669147 C442.19233,178.339199 443.023181,174.2411 444.678612,170.374851 C446.340313,166.508602 448.594583,163.146782 451.452396,160.290959 C454.305505,157.439835 457.674369,155.180868 461.543311,153.52189 C465.412253,151.866045 469.514774,151.037339 473.847739,151.037339 C478.177568,151.037339 482.278521,151.866045 486.147463,153.52189 C490.016405,155.180868 493.380566,157.439835 496.238379,160.290959 C499.096191,163.146782 501.355164,166.508602 503.012162,170.374851 C504.672296,174.2411 505.498444,178.339199 505.498444,182.669147 C505.498444,187.000662 504.672296,191.094061 503.012162,194.96031" id="Fill-34"></path>
                    <path d="M551.87527,170.444249 C549.249469,167.453702 545.538859,165.956079 540.74971,165.956079 C535.957427,165.956079 532.268764,167.453702 529.689992,170.444249 C527.109652,173.439495 525.819482,177.282246 525.819482,181.978768 C525.819482,186.675289 527.109652,190.519606 529.689992,193.514853 C532.268764,196.5054 535.957427,198.001456 540.74971,198.001456 C545.538859,198.001456 549.249469,196.5054 551.87527,193.514853 C554.501072,190.519606 555.814756,186.675289 555.814756,181.978768 C555.814756,177.282246 554.501072,173.439495 551.87527,170.444249 M570.193175,220.103931 C568.716455,223.97018 566.573488,227.355498 563.762705,230.256752 C560.950354,233.154872 557.452943,235.435771 553.257931,237.094749 C549.064487,238.750594 544.248689,239.580866 538.810536,239.580866 C534.482275,239.580866 530.770097,239.30202 527.684977,238.750594 C524.595153,238.199168 521.439488,237.184042 518.216415,235.714617 C516.280376,234.791918 514.944745,233.502646 514.207953,231.842102 C513.469593,230.187823 513.469593,228.434852 514.207953,226.594154 C514.944745,224.753456 516.118909,223.442253 517.733581,222.658977 C519.34355,221.874134 521.166718,221.850636 523.19368,222.588482 C525.77402,223.598908 528.376307,224.289757 531.002108,224.66103 C533.62791,225.027603 536.231764,225.212456 538.810536,225.212456 C544.708008,225.212456 549.017458,223.714832 551.737318,220.724286 C554.45561,217.730606 555.814756,213.886288 555.814756,209.189767 L555.814756,204.353823 C555.262946,205.368948 554.45561,206.379374 553.397451,207.394499 C552.33459,208.411191 551.067934,209.32919 549.592783,210.159462 C548.117631,210.983468 546.484147,211.657086 544.689196,212.161515 C542.889543,212.667511 541.024048,212.921293 539.089577,212.921293 C535.034085,212.921293 531.188658,212.208512 527.545456,210.779817 C523.903822,209.351122 520.726211,207.280141 518.006351,204.562174 C515.288058,201.845774 513.121576,198.576381 511.511607,194.757128 C509.896935,190.936309 509.094302,186.675289 509.094302,181.978768 C509.094302,177.648819 509.854609,173.602417 511.372087,169.823895 C512.894268,166.048505 515.013721,162.775979 517.733581,160.017282 C520.451873,157.253885 523.629485,155.065413 527.272687,153.451865 C530.909617,151.843017 534.849103,151.036242 539.089577,151.036242 C542.958519,151.036242 546.415171,151.93701 549.457965,153.730711 C552.497624,155.524413 554.756598,157.620458 556.231749,160.017282 C556.231749,157.253885 557.081412,155.157839 558.788574,153.730711 C560.491034,152.302016 562.262471,151.587669 564.110721,151.587669 C566.410453,151.587669 568.368439,152.417941 569.983111,154.073786 C571.59308,155.732764 572.400416,157.712885 572.400416,160.017282 L572.400416,207.808069 C572.400416,212.138017 571.663623,216.236116 570.193175,220.103931" id="Fill-36"></path>
                    <path d="M601.430492,211.3314 C599.773494,212.940248 597.788859,213.747022 595.485992,213.747022 C593.181557,213.747022 591.223571,212.940248 589.613602,211.3314 C587.99893,209.722551 587.191594,207.761229 587.191594,205.461531 L587.191594,160.017439 C587.191594,157.713042 587.99893,155.732921 589.613602,154.073942 C591.223571,152.418098 593.181557,151.587825 595.485992,151.587825 C597.788859,151.587825 599.773494,152.418098 601.430492,154.073942 C603.092194,155.732921 603.916774,157.713042 603.916774,160.017439 L603.916774,205.461531 C603.916774,207.761229 603.092194,209.722551 601.430492,211.3314 M602.051279,134.597008 C600.256328,136.348412 598.066331,137.225681 595.485992,137.225681 C592.907219,137.225681 590.740737,136.348412 588.991248,134.597008 C587.238624,132.848736 586.365447,130.683762 586.365447,128.105218 C586.365447,125.528241 587.238624,123.339769 588.991248,121.546067 C590.740737,119.750799 592.907219,118.851599 595.485992,118.851599 C598.066331,118.851599 600.256328,119.750799 602.051279,121.546067 C603.847797,123.339769 604.747624,125.528241 604.747624,128.105218 C604.747624,130.683762 603.847797,132.848736 602.051279,134.597008" id="Fill-39"></path>
                    <path d="M654.437193,168.30246 C651.996374,166.182916 648.930065,165.12706 645.246105,165.12706 C641.557441,165.12706 638.51935,166.118687 636.123992,168.094108 C633.725499,170.077363 632.157856,172.817261 631.424199,176.313804 L659.205962,176.313804 C658.46917,173.091408 656.878013,170.422004 654.437193,168.30246 M673.858718,186.537119 C672.661039,187.552244 671.278378,188.056674 669.715439,188.056674 L631.146727,188.056674 C631.606046,191.645644 633.173688,194.571962 635.846519,196.829362 C638.51935,199.086763 641.928973,200.21468 646.076955,200.21468 C649.022556,200.21468 651.537054,199.796411 653.611046,198.966139 C655.680334,198.140566 657.498799,197.08471 659.06801,195.790739 C661.094972,194.228887 663.074904,193.444045 665.015646,193.444045 C666.671077,193.444045 668.238719,194.089464 669.715439,195.378736 C671.46336,196.945287 672.34124,198.831415 672.34124,201.038686 C672.34124,202.699231 671.648342,204.126359 670.267249,205.323205 C666.763568,208.545601 662.820946,210.849998 658.445656,212.231697 C654.070365,213.611829 649.713886,214.302678 645.385625,214.302678 C641.051093,214.302678 636.973654,213.473972 633.150174,211.813427 C629.326693,210.159149 625.982912,207.900182 623.129802,205.044358 C620.271989,202.193235 618.016152,198.831415 616.356018,194.960467 C614.69902,191.094217 613.869737,187.000818 613.869737,182.669303 C613.869737,178.339355 614.670802,174.241256 616.287042,170.375007 C617.895443,166.507192 620.132469,163.146939 622.990282,160.291115 C625.848094,157.438425 629.188741,155.181024 633.012221,153.522046 C636.834134,151.866201 640.91314,151.037496 645.246105,151.037496 C649.574366,151.037496 653.611046,151.820771 657.342035,153.382623 C661.071457,154.949175 664.296098,157.137647 667.019093,159.948041 C669.732683,162.756867 671.853703,166.090489 673.375884,169.961438 C674.896498,173.829253 675.658372,178.065209 675.658372,182.669303 C675.658372,184.237422 675.05483,185.526693 673.858718,186.537119" id="Fill-41"></path>
                    <path d="M733.021395,163.605938 C732.557373,165.080063 731.726522,166.211113 730.530411,166.98969 C729.332732,167.774532 727.995533,168.12074 726.521949,168.028313 C725.783589,168.028313 725.004471,167.88889 724.17362,167.611611 C721.960109,166.873765 719.654106,166.229912 717.260316,165.678486 C714.861823,165.12706 712.468032,164.848214 710.074242,164.848214 C707.02988,164.848214 704.683119,165.12706 703.021418,165.678486 C701.365987,166.229912 700.535136,167.384461 700.535136,169.132732 C700.535136,170.78701 701.389502,171.965057 703.091962,172.655906 C704.799124,173.346756 707.72121,174.38068 711.869193,175.762378 C714.913555,176.777503 717.74315,177.811427 720.373654,178.86885 C722.999456,179.929405 725.253726,181.17168 727.142735,182.600375 C729.031745,184.02907 730.530411,185.730345 731.638734,187.710466 C732.742355,189.69372 733.294165,192.109343 733.294165,194.960467 C733.294165,197.54371 732.742355,199.982831 731.638734,202.280962 C730.530411,204.585359 728.873413,206.634408 726.659901,208.429676 C724.447957,210.228077 721.659121,211.656772 718.299663,212.714195 C714.930799,213.77005 711.03991,214.302678 706.61759,214.302678 C703.577931,214.302678 700.14009,213.909473 696.318178,213.126198 C692.494697,212.347622 688.92204,211.124145 685.604908,209.4683 C684.222247,208.730454 683.164088,207.762325 682.427296,206.56548 C681.688936,205.370201 681.322108,204.126359 681.322108,202.837087 C681.322108,201.915955 681.503955,201.090383 681.875486,200.347837 C682.886615,197.678433 684.686269,196.342165 687.266609,196.342165 C688.277739,196.342165 689.3406,196.621011 690.444221,197.172437 C692.930502,198.275289 695.423054,199.152558 697.909335,199.796411 C700.395616,200.44183 702.8866,200.766106 705.374449,200.766106 C706.75711,200.766106 708.185233,200.67368 709.657249,200.48726 C711.132401,200.307107 712.444518,200.004762 713.59987,199.58806 C714.75052,199.176057 715.692673,198.62463 716.431033,197.933781 C717.167825,197.241365 717.539356,196.393861 717.539356,195.378736 C717.539356,194.548463 717.33086,193.857614 716.917002,193.304622 C716.500009,192.753195 715.71462,192.156339 714.565538,191.51092 C713.414888,190.867067 711.753187,190.176218 709.591408,189.438372 C707.424926,188.702093 704.63609,187.732398 701.226467,186.537119 C695.144013,184.417575 690.861214,181.864096 688.370229,178.86885 C685.883948,175.878303 684.640808,172.353562 684.640808,168.30246 C684.640808,165.725483 685.261594,163.35529 686.504735,161.190316 C687.749443,159.025342 689.428388,157.208142 691.547841,155.734017 C693.668862,154.258326 696.202172,153.108477 699.152476,152.279771 C702.102779,151.449499 705.281958,151.037496 708.691581,151.037496 C713.112333,151.037496 716.824511,151.379004 719.817141,152.069853 C722.814474,152.762269 725.783589,153.706899 728.733892,154.903745 C731.866042,156.197716 733.433685,158.310994 733.433685,161.259244 C733.433685,161.99709 733.294165,162.775666 733.021395,163.605938" id="Fill-43"></path>
                    <path d="M765.130479,147.680376 C764.865547,147.94199 764.533207,148.072014 764.131891,148.072014 C763.729006,148.072014 763.395099,147.94199 763.133302,147.680376 C762.869938,147.415629 762.736689,147.08352 762.736689,146.680916 L762.736689,140.088867 C761.836862,141.9139 761.148667,143.314397 760.670536,144.288792 C760.189269,145.263187 759.833414,145.975968 759.601403,146.425568 C759.37096,146.873602 759.206357,147.17438 759.115434,147.329468 C758.864611,147.826065 758.477404,148.072014 757.950676,148.072014 C757.36281,148.072014 756.961493,147.826065 756.745158,147.329468 L753.119201,140.088867 L753.119201,146.680916 C753.119201,147.08352 752.989087,147.415629 752.72729,147.680376 C752.460791,147.94199 752.130018,148.072014 751.727134,148.072014 C751.322682,148.072014 750.990342,147.94199 750.728546,147.680376 C750.463614,147.415629 750.3335,147.08352 750.3335,146.680916 L750.3335,134.192368 C750.3335,133.789764 750.463614,133.454522 750.728546,133.192908 C750.990342,132.931294 751.322682,132.798137 751.727134,132.798137 C752.034392,132.798137 752.299324,132.88273 752.517226,133.053485 C752.733561,133.224239 752.902866,133.434157 753.028278,133.680105 L757.950676,143.662171 L762.830747,133.680105 C762.953023,133.434157 763.123896,133.224239 763.341799,133.053485 C763.559701,132.88273 763.821497,132.798137 764.131891,132.798137 C764.533207,132.798137 764.865547,132.931294 765.130479,133.192908 C765.392275,133.454522 765.52239,133.789764 765.52239,134.192368 L765.52239,146.680916 C765.52239,147.08352 765.392275,147.415629 765.130479,147.680376 M746.917607,135.37668 C746.65581,135.638295 746.320335,135.768318 745.919018,135.768318 L741.785145,135.768318 L741.785145,146.586923 C741.785145,147.022424 741.645624,147.376465 741.368152,147.655311 C741.087544,147.932591 740.731689,148.072014 740.299019,148.072014 C739.863215,148.072014 739.508927,147.932591 739.229887,147.655311 C738.949279,147.376465 738.811326,147.022424 738.811326,146.586923 L738.811326,135.768318 L734.724482,135.768318 C734.318463,135.768318 733.98769,135.638295 733.724326,135.37668 C733.459394,135.115066 733.32928,134.779824 733.32928,134.377221 C733.32928,133.976183 733.459394,133.640941 733.724326,133.379327 C733.98769,133.117713 734.318463,132.984556 734.724482,132.984556 L745.919018,132.984556 C746.320335,132.984556 746.65581,133.117713 746.917607,133.379327 C747.179403,133.640941 747.31422,133.976183 747.31422,134.377221 C747.31422,134.779824 747.179403,135.115066 746.917607,135.37668" id="Fill-46"></path>
                </g>
            </g>
        </g>
    </g>
</svg>