<?xml version="1.0" encoding="UTF-8"?>
<svg width="483px" height="552px" viewBox="0 0 483 552" version="1.1" xmlns="http://www.w3.org/2000/svg" xmlns:xlink="http://www.w3.org/1999/xlink">
    <title>Brand - No Claim Left Behind Logo</title>
    <defs>
        <radialGradient cx="35.1826487%" cy="33.4302253%" fx="35.1826487%" fy="33.4302253%" r="128.372046%" gradientTransform="translate(0.351826,0.334302),scale(1.000000,0.854422),rotate(59.674094),translate(-0.351826,-0.334302)" id="radialGradient-1">
            <stop stop-color="#FFFFFF" offset="0%"></stop>
            <stop stop-color="#CCCCCC" offset="100%"></stop>
        </radialGradient>
        <path d="M0,57.7857424 C0,57.7857424 116.641507,64.5840653 214.031513,0 C310.289057,63.4510113 425.798143,57.9913661 425.798143,57.9913661 C425.798143,57.9913661 453.968362,400.552486 214.031513,499.538932 C26.7529923,400.552486 5.66220909,240.2074 0,57.7857424 Z" id="path-2"></path>
        <filter x="-10.2%" y="-8.7%" width="120.4%" height="117.4%" filterUnits="objectBoundingBox" id="filter-3">
            <feOffset dx="0" dy="0" in="SourceAlpha" result="shadowOffsetOuter1"></feOffset>
            <feGaussianBlur stdDeviation="14.5" in="shadowOffsetOuter1" result="shadowBlurOuter1"></feGaussianBlur>
            <feComposite in="shadowBlurOuter1" in2="SourceAlpha" operator="out" result="shadowBlurOuter1"></feComposite>
            <feColorMatrix values="0 0 0 0 0   0 0 0 0 0   0 0 0 0 0  0 0 0 0.5 0" type="matrix" in="shadowBlurOuter1"></feColorMatrix>
        </filter>
        <linearGradient x1="0%" y1="50.000117%" x2="100.000051%" y2="50.000117%" id="linearGradient-4">
            <stop stop-color="#00AAD6" offset="0%"></stop>
            <stop stop-color="#1C1C4B" offset="100%"></stop>
        </linearGradient>
    </defs>
    <g id="Brand---No-Claim-Left-Behind-Logo" stroke="none" stroke-width="1" fill="none" fill-rule="evenodd">
        <g id="Group" transform="translate(28.000000, 26.000000)">
            <g id="Path" fill-rule="nonzero">
                <use fill="black" fill-opacity="1" filter="url(#filter-3)" xlink:href="#path-2"></use>
                <path stroke="#EC1731" stroke-width="20.718232" d="M214.062749,12.3359926 C294.387117,62.7357285 385.824518,68.129499 416.019058,68.4493667 C417.510412,103.421317 418.512246,227.582461 366.232137,336.58998 C336.483981,398.616871 289.32949,455.780452 214.542225,488.064216 C137.182043,446.184966 89.5192682,393.355584 60.0134311,332.456619 C22.5230696,255.077888 14.071795,164.952255 10.7182455,68.3368233 C42.1653457,68.2182758 133.570271,63.1380516 214.062749,12.3359926 Z" stroke-linejoin="square" fill="url(#radialGradient-1)" fill-rule="evenodd"></path>
                <use stroke="#FFFFFF" stroke-width="6.90607735" xlink:href="#path-2"></use>
            </g>
            <g id="Group-2" transform="translate(84.294498, 98.066298)">
                <path d="M206.378372,173.103569 L173.327221,172.99092 C169.168911,172.99092 165.526193,175.852613 164.524643,179.902066 L154.570381,219.843237 L134.999659,83.7092619 C134.367517,79.3613859 130.726774,76.0925736 126.34524,75.9068007 C121.815547,75.7961275 118.062204,78.7309438 117.098187,83.0037202 L94.7776472,182.279564 L82.4844601,127.662336 C81.5955104,123.725532 78.215526,120.826289 74.2033995,120.604943 C70.1557151,120.30652 66.4438561,122.759118 65.0689472,126.547699 L51.1045347,173.103569 L12.0302555,173.00673 C8.30654382,172.996849 4.95026473,175.251815 3.5476996,178.702448 C1.10605101,184.708446 5.521168,191.275715 12.0025992,191.279667 L57.4911446,191.309312 C61.3175793,191.309312 64.7350972,188.894265 66.0329638,185.28948 L71.5681574,161.99277 L85.9039534,225.714846 C86.832412,229.837423 90.5067376,232.809789 94.7776472,232.809789 C99.0110233,232.809789 102.724858,229.837423 103.653316,225.714846 L124.006314,135.205901 L143.170095,268.440633 C143.802237,272.750959 147.365938,276.021748 151.711914,276.243094 L152.193922,276.243094 C156.354207,276.243094 159.992975,273.420927 160.9965,269.331947 L180.417089,191.271762 L198.950703,191.271762 L206.378372,173.103569 Z" id="Pulse" fill="#E23C50"></path>
                <path d="M117.244568,-8.42550471e-14 C78.146583,-8.42550471e-14 46.0594486,30.472682 43.4301329,69.0502002 L43.4301329,69.0502002 C43.4281574,69.093679 43.4202557,69.1371578 43.4163048,69.1806365 L43.4163048,69.1806365 C17.4925552,77.6906157 -4.21091182e-13,100.9478 -4.21091182e-13,128.108191 L-4.21091182e-13,128.108191 C-4.21091182e-13,139.440337 2.17298823,154.432604 14.7565655,166.748951 L14.7565655,166.748951 L37.0119158,166.748951 C24.2959838,154.144063 18.1997641,142.288196 18.1997641,128.108191 L18.1997641,128.108191 C18.1997641,107.192931 33.0867089,89.5089333 54.4392814,85.0859575 L54.4392814,85.0859575 C57.5762862,84.5049232 59.7433481,84.368558 62.457608,84.2361454 L62.457608,84.2361454 C62.457608,84.2361454 62.4418044,84.163022 62.4319272,84.1136144 L62.4319272,84.1136144 C62.3074743,83.5128169 61.5074195,79.3961689 61.5271739,72.5996481 L61.5271739,72.5996481 C62.2719163,42.4668909 86.9471853,18.1681929 117.244568,18.1681929 L117.244568,18.1681929 C137.155066,18.2057427 155.686705,29.5754385 165.603433,47.8543046 L165.603433,47.8543046 L168.758217,53.3405336 L168.783897,53.3840124 C168.783897,53.3840124 174.64899,50.2970204 182.126045,50.6428742 L182.126045,50.6428742 C197.890087,50.6428742 211.133463,61.8248208 214.661605,77.8032652 L214.661605,77.8032652 C215.410298,80.4930194 215.763903,83.9653913 215.763903,83.9653913 L215.763903,83.9653913 C215.763903,83.9653913 215.833043,83.9732965 215.898233,83.9772492 L215.898233,83.9772492 C216.534326,84.0444436 220.11383,84.4140131 221.976674,84.7855588 L221.976674,84.7855588 L221.978649,84.7855588 C243.740139,88.6136661 259.561468,106.819409 259.561468,128.108191 L259.561468,128.108191 C259.561468,152.928634 239.392187,173.104755 214.584563,173.104755 L214.584563,173.104755 L206.378569,173.104755 L198.9509,191.270972 L214.584563,191.308522 C215.740198,191.308522 216.889906,191.270972 218.002081,191.235398 L218.002081,191.235398 C251.278432,189.415219 277.757282,161.808183 277.757282,128.108191 L277.757282,128.108191 C277.757282,99.9102385 258.336693,75.4988909 230.852343,68.1430752 L230.852343,68.1430752 C230.846417,68.1272647 230.84049,68.1134306 230.834564,68.0976201 L230.834564,68.0976201 C223.657776,46.83453 204.395224,32.4371315 182.126045,32.4371315 L182.126045,32.4371315 C180.591125,32.4371315 179.170781,32.6189517 177.888718,32.9074926 L177.888718,32.9074926 C177.868964,32.9114452 177.843283,32.9134215 177.821553,32.9193504 L177.821553,32.9193504 C164.080366,12.4467833 141.461534,-8.42550471e-14 117.244568,-8.42550471e-14 Z" id="Cloud" fill="url(#linearGradient-4)"></path>
            </g>
        </g>
    </g>
</svg>