<?xml version="1.0" encoding="UTF-8"?>
<svg width="42px" height="40px" viewBox="0 0 42 40" version="1.1" xmlns="http://www.w3.org/2000/svg" xmlns:xlink="http://www.w3.org/1999/xlink">
    <title>02_UI Design Comps/Card, Carousel, or Tiles/MPC/PreFooter Content Block Decor - Left</title>
    <g id="02_UI-Design-Comps/Card,-Carousel,-or-Tiles/MPC/PreFooter-Content-Block-Decor---Left" stroke="none" stroke-width="1" fill="none" fill-rule="evenodd">
        <path d="M34.5941017,19 C33.7488812,19 33.00846,19.9559106 32.8048843,20.7644296 L30.781575,28.7391337 L26.803618,1.55845351 C26.6751284,0.690351122 25.9351088,0.0376959668 25.0445154,0.000604319463 C24.1238073,-0.0214928321 23.3609004,0.564476277 23.1649538,1.41758416 L18.6280671,21.2391237 L16.1293464,10.3341794 C15.9486579,9.54815217 15.2616402,8.96928572 14.4461329,8.92509141 C13.6233981,8.86550802 12.8689233,9.35519668 12.5894585,10.1116295 L9.75104345,19.4070331 L1.80878146,19.3876981 C1.05189754,19.3857251 0.36969819,19.8359546 0.0846119408,20.5249122 C0.0497079589,20.6092491 0.0216976345,20.6941403 5.89750471e-13,20.7790909 L5.89750471e-13,21.6468004 C0.195235967,22.4200066 0.900641998,23.035555 1.80316004,23.0360957 L11.0491897,23.0420145 C11.8269532,23.0420145 12.5216,22.5598231 12.7854051,21.8400873 L13.910492,17.1886369 L16.8243947,29.9114665 C17.0131137,30.7345854 17.7599594,31.3280518 18.6280671,31.3280518 C19.4885458,31.3280518 20.243422,30.7345854 20.4321411,29.9114665 L24.5691039,11.8403371 L28.4643458,38.4421508 C28.5928354,39.3027559 29.3171954,39.9558057 30.2005612,40 L30.2985345,40 C31.1441565,40 31.8837747,39.4365226 32.0877519,38.6201118 L36.0351926,23 L42.0009841,23.001 L42.0009841,19 L34.5941017,19 Z" id="Path" fill="#FFFFFF"></path>
    </g>
</svg>